<svg width="30" height="30" viewBox="0 0 30 30" fill="none" xmlns="http://www.w3.org/2000/svg">
    <path d="M30 15C30 23.2825 23.2877 30 15 30C9.82149 30 5.2565 27.3795 2.56326 23.3865C0.946273 20.9948 0 18.1092 0 15C0 6.7175 6.71231 0 15 0C23.2877 0 30 6.7175 30 15Z" fill="#FC355D"/>
    <path d="M17.3345 15L20.5009 11.8336C21.1456 11.1889 21.1456 10.1439 20.5009 9.49916C19.8562 8.85445 18.8111 8.85445 18.1664 9.49916L15 12.6655L11.8336 9.49916C11.1889 8.85445 10.1439 8.85445 9.49916 9.49916C8.85445 10.1439 8.85445 11.1889 9.49916 11.8336L12.6655 15L9.49916 18.1664C8.85445 18.8111 8.85445 19.8562 9.49916 20.5009C9.82152 20.8232 10.2427 20.9844 10.669 20.9844C11.0953 20.9844 11.5165 20.8232 11.8388 20.5009L15.0052 17.3345L18.1716 20.5009C18.494 20.8232 18.9151 20.9844 19.3414 20.9844C19.7626 20.9844 20.1889 20.8232 20.5113 20.5009C21.156 19.8562 21.156 18.8111 20.5113 18.1664L17.3345 15Z" fill="white"/>
</svg>
