<svg width="24" height="25" viewBox="0 0 24 25" fill="none" xmlns="http://www.w3.org/2000/svg">
    <path d="M21.3899 6.66833H17.9826V3.19471C17.9826 1.80045 16.8454 0.666016 15.4476 0.666016H2.53502C1.13719 0.666016 0 1.80037 0 3.19471V16.0751C0 17.4694 1.13719 18.6038 2.53502 18.6038H5.94234V22.0774C5.94234 23.4717 7.07953 24.6061 8.47736 24.6061H21.39C22.7878 24.6061 23.925 23.4718 23.925 22.0774V9.19703C23.9249 7.80269 22.7877 6.66833 21.3899 6.66833ZM3.16874 15.4429V3.82685H14.8139V6.66833H8.47728C7.07945 6.66833 5.94226 7.80269 5.94226 9.19703V15.4429H3.16874ZM20.7562 21.4452H9.11107V9.82916H20.7562V21.4452Z" fill="#FB822A"/>
</svg>
