<svg width="160" height="160" viewBox="0 0 160 160" fill="none" xmlns="http://www.w3.org/2000/svg">
    <path d="M134.416 135.222H24.0703L134.513 24.7793L134.416 135.222Z" fill="#FFCDA8"/>
    <path d="M26.194 140.177C22.6896 140.177 19.8223 137.378 19.8223 133.956V6.22089C19.8223 2.79947 22.6896 0 26.194 0C29.6983 0 32.5656 2.79947 32.5656 6.22089V133.956C32.5656 137.378 29.6985 140.177 26.194 140.177Z" fill="#FB822A"/>
    <path d="M159.999 133.805C159.999 137.31 157.2 140.177 153.778 140.177H26.0432C22.6217 140.177 19.8223 137.31 19.8223 133.805C19.8223 130.301 22.6217 127.434 26.0432 127.434H153.778C157.2 127.434 159.999 130.301 159.999 133.805Z" fill="#FB822A"/>
    <path d="M133.805 20.5312C137.31 20.5312 140.177 23.3166 140.177 26.7207V153.811C140.177 157.215 137.31 160 133.805 160C130.301 160 127.434 157.215 127.434 153.811V26.7207C127.434 23.3166 130.301 20.5312 133.805 20.5312Z" fill="#FB822A"/>
    <path d="M0 26.5489C0 23.2393 2.79947 20.5312 6.22089 20.5312H133.956C137.378 20.5312 140.177 23.2393 140.177 26.5489C140.177 29.8586 137.378 32.5666 133.956 32.5666H6.22089C2.79947 32.5666 0 29.8586 0 26.5489Z" fill="#FB822A"/>
    <path d="M152.531 7.47958C154.939 9.90027 154.939 13.8615 152.531 16.2822L31.0935 138.362C28.6855 140.783 24.7452 140.783 22.3372 138.362C19.9293 135.941 19.9293 131.98 22.3372 129.559L143.774 7.47958C146.182 5.05889 150.123 5.05889 152.531 7.47958Z" fill="#FB822A"/>
</svg>
