<svg width="48" height="48" viewBox="0 0 48 48" fill="none" xmlns="http://www.w3.org/2000/svg">
<path d="M24 48C10.7661 48 0 37.2339 0 24C0 10.7661 10.7661 0 24 0C37.2339 0 48 10.7661 48 24C48 37.2339 37.2339 48 24 48ZM24 2.82353C12.3219 2.82353 2.82353 12.3219 2.82353 24C2.82353 35.6753 12.3219 45.1765 24 45.1765C35.6781 45.1765 45.1765 35.6753 45.1765 24C45.1765 12.3219 35.6781 2.82353 24 2.82353ZM22.3652 32.5496C22.227 32.6913 22.0619 32.804 21.8796 32.8811C21.6973 32.9582 21.5015 32.9981 21.3035 32.9986H21.2951C20.8974 32.9981 20.5159 32.8409 20.2334 32.5609L12.4405 24.768C12.3012 24.6288 12.1908 24.4635 12.1154 24.2816C12.0401 24.0996 12.0013 23.9047 12.0013 23.7078C12.0013 23.5109 12.0401 23.3159 12.1154 23.134C12.1908 22.9521 12.3012 22.7868 12.4405 22.6475C12.5797 22.5083 12.745 22.3979 12.9269 22.3225C13.1088 22.2471 13.3038 22.2084 13.5007 22.2084C13.6976 22.2084 13.8926 22.2471 14.0745 22.3225C14.2564 22.3979 14.4217 22.5083 14.5609 22.6475L21.2838 29.3675L33.4278 16.9525C33.7056 16.6683 34.0849 16.5061 34.4823 16.5016C34.8797 16.4971 35.2626 16.6506 35.5468 16.9285C35.831 17.2063 35.9932 17.5856 35.9977 17.983C36.0022 18.3804 35.8486 18.7633 35.5708 19.0475L22.3652 32.5496Z" fill="white"/>
</svg>
