<svg width="64" height="64" viewBox="0 0 64 64" fill="none" xmlns="http://www.w3.org/2000/svg">
<path d="M32 64C49.6731 64 64 49.6731 64 32C64 14.3269 49.6731 0 32 0C14.3269 0 0 14.3269 0 32C0 49.6731 14.3269 64 32 64Z" fill="white" fill-opacity="0.1"/>
<path d="M54.4339 29.7314L47.4422 35.6279C47.6902 36.0145 47.7697 36.5065 47.6177 36.9786C47.4785 37.4107 47.1727 37.7411 46.7954 37.9212L48.5667 47.0779C49.3379 46.8792 50.039 46.4051 50.5684 45.6023C51.5569 44.1033 52.221 42.3432 52.4679 40.5283C52.6312 39.328 53.0088 38.1559 53.5761 37.088C54.4362 35.469 54.9249 33.6459 54.9966 31.8423C55.0296 31.0135 54.8179 30.3063 54.4339 29.7314Z" fill="white" fill-opacity="0.2"/>
<path d="M44.7859 35.7466C45.1497 35.1162 45.9132 34.804 46.6305 35.0383C46.7172 35.0666 46.7998 35.1018 46.8778 35.1431L53.9485 29.2017C52.7193 28.0573 50.6341 27.7172 48.7307 28.3356L36.5196 32.3026C36.2231 32.3989 35.9896 32.5873 35.8337 32.8225L44.7859 35.7466Z" fill="white" fill-opacity="0.2"/>
<path d="M43.3961 44.8268C44.4973 46.353 46.2211 47.2936 47.8036 47.2475L46.0367 38.1459C45.9081 38.1376 45.7786 38.1132 45.6505 38.0713C44.9742 37.8506 44.5484 37.2134 44.5629 36.5341L35.5885 33.6041C35.5929 33.8615 35.6726 34.1221 35.8387 34.3523L43.3961 44.8268Z" fill="white" fill-opacity="0.2"/>
<path d="M41.0179 52.3594L33.2978 47.4741C33.0099 47.8315 32.5706 48.0599 32.0785 48.0599C31.6281 48.0599 31.2221 47.8687 30.9357 47.5623L22.8496 52.0912C23.2753 52.7696 23.9389 53.2957 24.8594 53.5555C26.5783 54.0406 28.443 54.1337 30.2304 53.8098C31.4126 53.5956 32.6345 53.5956 33.8166 53.8098C35.6089 54.1346 37.4788 54.0401 39.2015 53.5516C39.9931 53.3271 40.5945 52.9055 41.0179 52.3594Z" fill="white" fill-opacity="0.2"/>
<path d="M32.3724 44.8913C33.0812 45.0443 33.6125 45.6777 33.6125 46.4359C33.6125 46.5276 33.6047 46.6174 33.5899 46.7047L41.3957 51.6289C42.0985 50.1 41.7759 48.0013 40.6027 46.3726L33.0762 35.9238C32.8935 35.6701 32.6431 35.505 32.3724 35.4287L32.3724 44.8913Z" fill="white" fill-opacity="0.2"/>
<path d="M23.3471 46.4055C22.2428 47.9295 21.8852 49.8674 22.4178 51.3654L30.4866 46.8643C30.4548 46.739 30.4379 46.6076 30.4379 46.4723C30.4379 45.7578 30.9094 45.154 31.5568 44.9579V35.4765C31.3146 35.5601 31.0926 35.7169 30.926 35.9467L23.3471 46.4055Z" fill="white" fill-opacity="0.2"/>
<path d="M16.5578 35.6279L9.56612 29.7315C9.18206 30.3063 8.9704 31.0135 9.00335 31.8423C9.07507 33.6459 9.56381 35.469 10.4239 37.088C10.9912 38.1559 11.3688 39.3281 11.5321 40.5284C11.779 42.3432 12.4431 44.1033 13.4316 45.6024C13.961 46.4052 14.6621 46.8792 15.4333 47.078L17.2046 37.9212C16.8273 37.7412 16.5215 37.4107 16.3823 36.9787C16.2303 36.5066 16.3098 36.0146 16.5578 35.6279Z" fill="white" fill-opacity="0.2"/>
<path d="M16.2527 47.2104C17.8329 47.2564 19.5541 46.3168 20.6536 44.7922L28.1998 34.3282C28.3656 34.0983 28.4453 33.8379 28.4496 33.5809L19.4886 36.5078C19.5031 37.1864 19.0779 37.823 18.4026 38.0435C18.2747 38.0853 18.1454 38.1097 18.0171 38.118L16.2527 47.2104Z" fill="white" fill-opacity="0.2"/>
<path d="M17.3805 35.0632C18.0988 34.8287 18.8635 35.1412 19.2278 35.7722L28.1933 32.8451C28.0372 32.6097 27.8034 32.4211 27.5064 32.3247L15.2771 28.3537C13.3709 27.7347 11.2826 28.0752 10.0515 29.2207L17.1328 35.168C17.2109 35.1268 17.2936 35.0915 17.3805 35.0632Z" fill="white" fill-opacity="0.2"/>
<path d="M40.2141 18.6559L36.8152 10.1265C37.4758 9.93566 38.208 9.95115 38.9793 10.2389C40.6577 10.865 42.2256 11.8973 43.4863 13.2227C44.3178 14.0969 45.3063 14.8213 46.3875 15.3489C48.0224 16.1466 49.4767 17.3276 50.5846 18.7391C51.1779 19.4951 51.4083 20.3142 51.3573 21.1154L42.1765 19.9851C42.1233 19.5675 41.9062 19.172 41.5419 18.905C41.1437 18.6132 40.6553 18.5375 40.2141 18.6559Z" fill="white" fill-opacity="0.2"/>
<path d="M39.4405 19.3273C38.9971 19.9407 39.0566 20.7671 39.5405 21.3097L34.0078 28.9651C33.8334 28.7434 33.7274 28.4619 33.7279 28.1487L33.7482 15.2481C33.7514 13.2372 34.7176 11.3487 36.18 10.5271L39.616 19.1232C39.5528 19.1851 39.494 19.2532 39.4405 19.3273Z" fill="white" fill-opacity="0.2"/>
<path d="M51.3199 21.9734C50.8745 23.4999 49.4516 24.8566 47.6667 25.4372L35.417 29.4225C35.1478 29.51 34.8765 29.5057 34.6316 29.4303L40.178 21.7597C40.8165 21.9834 41.5512 21.7734 41.9692 21.1954C42.0484 21.0859 42.1115 20.9696 42.1591 20.8494L51.3199 21.9734Z" fill="white" fill-opacity="0.2"/>
<path d="M27.6486 10.1265L24.2496 18.6559C23.8084 18.5375 23.32 18.6132 22.9218 18.905C22.5575 19.172 22.3404 19.5675 22.2872 19.9851L13.1064 21.1154C13.0555 20.3142 13.2858 19.4951 13.8791 18.7391C14.987 17.3276 16.4413 16.1466 18.0762 15.3489C19.1574 14.8213 20.1459 14.0969 20.9775 13.2227C22.2382 11.8973 23.8061 10.865 25.4844 10.2389C26.2557 9.95115 26.9879 9.93566 27.6486 10.1265Z" fill="white" fill-opacity="0.2"/>
<path d="M16.8535 25.4222C15.0713 24.8421 13.6505 23.4868 13.2057 21.9619L22.3529 20.839C22.4004 20.9591 22.4635 21.0752 22.5425 21.1846C22.9599 21.762 23.6935 21.9718 24.331 21.7483L29.8692 29.4112C29.6246 29.4865 29.3537 29.4908 29.0849 29.4033L16.8535 25.4222Z" fill="white" fill-opacity="0.2"/>
<path d="M24.9458 21.3206C25.4305 20.7775 25.49 19.9502 25.046 19.3362C24.9924 19.262 24.9335 19.1939 24.8702 19.1319L28.3113 10.5271C29.776 11.3495 30.7436 13.24 30.7467 15.2529L30.7671 28.1665C30.7676 28.4801 30.6614 28.7618 30.4868 28.9838L24.9458 21.3206Z" fill="white" fill-opacity="0.2"/>
</svg>
