<svg width="64" height="64" viewBox="0 0 64 64" fill="none" xmlns="http://www.w3.org/2000/svg">
    <circle cx="32" cy="32" r="32" fill="white" fill-opacity="0.1"/>
    <path d="M31.7134 8C26.756 8.01826 22.0069 9.9638 18.5015 13.4125C14.9961 16.8612 13.0186 21.5334 13 26.4106C12.9998 28.4441 13.3328 30.4643 13.9862 32.3935C14.2208 33.0249 14.6919 33.5441 15.3031 33.8447C15.9142 34.1454 16.6191 34.2047 17.2733 34.0105C17.9082 33.7731 18.4271 33.3062 18.7238 32.7051C19.0205 32.1041 19.0728 31.4142 18.8699 30.7765C18.3141 29.2762 18.0667 27.6823 18.1421 26.0872C18.2197 23.5123 19.0568 21.0151 20.5513 18.8999C22.0458 16.7847 24.1333 15.1427 26.5594 14.1738C28.9856 13.205 31.6458 12.9512 34.216 13.4433C36.7862 13.9354 39.1555 15.1521 41.0353 16.9454C42.9151 18.7387 44.2243 21.031 44.8035 23.5433C45.3826 26.0555 45.2067 28.6793 44.2972 31.0949C43.3876 33.5106 41.7837 35.6139 39.6808 37.1487C37.5778 38.6835 35.0666 39.5836 32.453 39.7393C32.453 39.7393 29.835 39.901 28.5201 40.0627C28.038 40.1296 27.5599 40.2221 27.0879 40.3399C27.054 40.3649 27.012 40.377 26.9697 40.3741C26.9274 40.3711 26.8877 40.3533 26.8577 40.3238C26.8277 40.2943 26.8096 40.2551 26.8065 40.2135C26.8035 40.1719 26.8159 40.1307 26.8413 40.0973L27.2522 37.9144L29.7176 26.9304C29.8593 26.2764 29.7311 25.5938 29.3612 25.0328C28.9913 24.4718 28.4101 24.0783 27.7453 23.9389C27.0805 23.7996 26.3867 23.9257 25.8165 24.2896C25.2463 24.6535 24.8463 25.2253 24.7047 25.8793C24.7047 25.8793 18.8347 52.6983 18.8347 52.9409C18.7539 53.2644 18.741 53.6008 18.797 53.9295C18.8529 54.2581 18.9764 54.5721 19.1599 54.8521C19.3435 55.1322 19.5832 55.3724 19.8644 55.5581C20.1456 55.7439 20.4623 55.8712 20.7953 55.9323C21.1249 56.01 21.4672 56.0209 21.8013 55.9645C22.1354 55.908 22.4543 55.7853 22.7387 55.6038C23.0231 55.4223 23.267 55.1859 23.4556 54.9088C23.6442 54.6317 23.7736 54.3197 23.8359 53.9919C23.9181 53.6685 24.6577 50.1111 24.6577 50.1111C24.9301 48.8017 25.604 47.6059 26.5885 46.6848C27.573 45.7638 28.8208 45.1617 30.1637 44.9598C30.7272 44.879 33.1104 44.7173 33.1104 44.7173C37.8729 44.2842 42.2858 42.0725 45.4417 38.5368C48.5977 35.0011 50.2567 30.4102 50.0778 25.7081C49.8989 21.0059 47.8956 16.5499 44.4799 13.2562C41.0641 9.96254 36.4955 8.08155 31.7134 8Z" fill="white" fill-opacity="0.2"/>
</svg>
