<svg width="80" height="80" viewBox="0 0 80 80" fill="none" xmlns="http://www.w3.org/2000/svg">
<path d="M40 80C18 80 0 62 0 40C0 18 18 0 40 0C62 0 80 18 80 40C80 62 62 80 40 80ZM40 5.71429C21.1429 5.71429 5.71429 21.1429 5.71429 40C5.71429 58.8571 21.1429 74.2857 40 74.2857C58.8571 74.2857 74.2857 58.8571 74.2857 40C74.2857 21.1429 58.8571 5.71429 40 5.71429Z" fill="#191919"/>
<path d="M57.1406 63.4278H51.4263C51.4263 57.2849 46.4263 52.142 40.1406 52.142C33.9978 52.142 28.8549 57.142 28.8549 63.4278H23.1406C23.1406 54.142 30.7121 46.4277 40.1406 46.4277C49.5692 46.4277 57.1406 53.9992 57.1406 63.4278Z" fill="#191919"/>
<path fill-rule="evenodd" clip-rule="evenodd" d="M21.4277 21.4277H27.142V28.5684H34.2852V34.2826H27.142V41.4277H21.4277V34.2826H14.2852V28.5684H21.4277V21.4277ZM52.8563 21.4277H58.5706V28.5684H65.7109V34.2826H58.5706V41.4277H52.8563V34.2826H45.7109V28.5684H52.8563V21.4277Z" fill="#F37565"/>
</svg>
