<svg width="48" height="48" viewBox="0 0 48 48" fill="none" xmlns="http://www.w3.org/2000/svg">
    <path d="M23.9657 34.28C26.0078 34.2906 28.007 33.6933 29.7095 32.564C31.4121 31.4346 32.7412 29.8242 33.5282 27.9371C34.3151 26.05 34.5245 23.9713 34.1297 21.9648C33.7348 19.9583 32.7536 18.1146 31.3105 16.6675C29.8674 15.2205 28.0276 14.2355 26.0245 13.8375C24.0214 13.4395 21.9454 13.6464 20.0599 14.4321C18.1745 15.2177 16.5646 16.5466 15.4347 18.2501C14.3048 19.9537 13.7058 21.9549 13.7137 24C13.7172 26.723 14.798 29.3337 16.7195 31.2605C18.641 33.1872 21.2465 34.2729 23.9657 34.28ZM3.01051e-06 24C-0.000801617 22.2953 0.159687 20.5944 0.479317 18.92C1.91819 18.7581 3.29669 18.2505 4.4975 17.4403C5.69831 16.6301 6.68587 15.5413 7.37611 14.2667C8.11312 12.9327 8.52827 11.4445 8.58838 9.92112C8.64849 8.39774 8.35188 6.88141 7.72228 5.49333C10.2691 3.01091 13.3405 1.13353 16.7094 0C17.5015 1.24154 18.593 2.26335 19.8832 2.97116C21.1735 3.67897 22.621 4.04999 24.0922 4.04999C25.5633 4.04999 27.0108 3.67897 28.3011 2.97116C29.5914 2.26335 30.6829 1.24154 31.4749 0C34.8348 1.16047 37.8921 3.06037 40.4221 5.56C39.8114 6.9443 39.5319 8.45228 39.6059 9.96385C39.6798 11.4754 40.1052 12.9488 40.8482 14.2667C41.5285 15.4881 42.485 16.5331 43.641 17.318C44.797 18.1029 46.1204 18.6059 47.5053 18.7867C48.2227 22.4475 48.1592 26.2188 47.3189 29.8533C45.965 30.0853 44.6814 30.6224 43.5651 31.4238C42.4487 32.2253 41.5288 33.2704 40.8748 34.48C40.2013 35.6891 39.7935 37.0283 39.6787 38.408C39.5639 39.7876 39.7447 41.176 40.2091 42.48C37.5786 45.0073 34.4036 46.8958 30.929 48C30.1127 46.9452 29.0662 46.0915 27.8696 45.5042C26.6731 44.9169 25.3582 44.6115 24.0256 44.6115C22.693 44.6115 21.3781 44.9169 20.1816 45.5042C18.985 46.0915 17.9385 46.9452 17.1222 48C13.7039 46.9063 10.5801 45.0457 7.98856 42.56C8.48119 41.2386 8.68156 39.8258 8.57582 38.4193C8.47007 37.0128 8.06075 35.646 7.37611 34.4133C6.70806 33.1697 5.75755 32.1006 4.60121 31.2923C3.44487 30.484 2.11505 29.9592 0.718973 29.76C0.268835 27.8723 0.0277238 25.9406 3.01051e-06 24Z" fill="url(#paint0_linear)"/>
    <defs>
        <linearGradient id="paint0_linear" x1="0" y1="0" x2="51.4875" y2="4.08921" gradientUnits="userSpaceOnUse">
            <stop stop-color="#FF8212"/>
            <stop offset="1" stop-color="#ED4454"/>
        </linearGradient>
    </defs>
</svg>
