<svg width="40" height="40" viewBox="-4 -4 44 44" fill="none" xmlns="http://www.w3.org/2000/svg">
<path d="M20.1851 29.8111C20.1851 29.1908 19.7493 28.6725 19.1681 28.5473L19.1681 20.8052C19.3901 20.8677 19.5954 21.0027 19.7453 21.2103L25.9177 29.7593C26.8799 31.0919 27.1444 32.809 26.5681 34.0599L20.1665 30.0311C20.1787 29.9596 20.1851 29.8861 20.1851 29.8111Z" fill="#F2383D"/>
<path d="M30.8609 20.4857C30.2726 20.294 29.6465 20.5494 29.3482 21.0652L22.0065 18.6727C22.1343 18.4803 22.3258 18.3262 22.569 18.2474L32.5833 15.0016C34.1442 14.4957 35.8543 14.774 36.8624 15.7103L31.0637 20.5714C30.9997 20.5376 30.932 20.5088 30.8609 20.4857Z" fill="#F2383D"/>
<path d="M24.9644 7.63129C24.6009 8.13317 24.6496 8.80934 25.0465 9.25326L20.5091 15.5167C20.3661 15.3353 20.2791 15.105 20.2795 14.8488L20.2962 4.29377C20.2989 2.64853 21.0912 1.10337 22.2906 0.431152L25.1084 7.46431C25.0566 7.51494 25.0084 7.57064 24.9644 7.63129Z" fill="#F2383D"/>
<path d="M3.44922 9.78683C3.81398 11.0345 4.97918 12.1434 6.44075 12.618L16.4718 15.8753C16.6922 15.9469 16.9144 15.9433 17.1149 15.8817L12.5731 9.61213C12.0502 9.79499 11.4486 9.62334 11.1063 9.15089C11.0415 9.0614 10.9898 8.96638 10.9508 8.86811L3.44922 9.78683Z" fill="#F2383D"/>
<path d="M5.94815 30.4446C7.24404 30.4822 8.65561 29.7135 9.55732 28.466L15.7459 19.9047C15.8819 19.7165 15.9472 19.5035 15.9508 19.2932L8.60192 21.6879C8.61375 22.2432 8.26506 22.764 7.71128 22.9444C7.60639 22.9786 7.5003 22.9986 7.39507 23.0054L5.94815 30.4446Z" fill="#F2383D"/>
<path d="M11.0041 33.8443C10.5673 32.6187 10.8605 31.0331 11.7662 29.7863L17.9817 21.2291C18.1183 21.041 18.3003 20.9128 18.499 20.8443L18.499 28.6018C17.968 28.7623 17.5813 29.2563 17.5813 29.8409C17.5813 29.9516 17.5952 30.0591 17.6213 30.1616L11.0041 33.8443Z" fill="#F2383D"/>
<path d="M31.8228 30.475C30.5249 30.5126 29.1113 29.7431 28.2082 28.4944L22.0103 19.9244C21.8741 19.736 21.8087 19.5228 21.8051 19.3123L29.165 21.7095C29.1532 22.2652 29.5024 22.7866 30.057 22.9672C30.162 23.0014 30.2683 23.0214 30.3737 23.0282L31.8228 30.475Z" fill="#F2383D"/>
<path d="M34.7066 9.7963C34.3413 11.0453 33.1744 12.1552 31.7106 12.6303L21.6646 15.8909C21.4438 15.9626 21.2213 15.959 21.0205 15.8974L25.5691 9.62143C26.0928 9.80447 26.6953 9.63264 27.0381 9.15972C27.103 9.07014 27.1548 8.97502 27.1938 8.87665L34.7066 9.7963Z" fill="#F2383D"/>
<path d="M13.1592 7.63858C13.5234 8.14097 13.4745 8.81782 13.077 9.26219L17.6213 15.532C17.7645 15.3504 17.8516 15.1199 17.8511 14.8633L17.8344 4.29768C17.8318 2.65078 17.0383 1.10405 15.8371 0.431152L13.0151 7.47143C13.067 7.52211 13.1152 7.57786 13.1592 7.63858Z" fill="#F2383D"/>
<path d="M6.87278 20.506C7.46194 20.3141 8.089 20.5698 8.38776 21.0861L15.7404 18.6912C15.6124 18.4985 15.4206 18.3443 15.1771 18.2654L5.14784 15.0164C3.58455 14.5099 1.87189 14.7885 0.862305 15.7257L6.66966 20.5917C6.73376 20.558 6.80158 20.5292 6.87278 20.506Z" fill="#F2383D"/>
<path d="M26.258 34.6577L19.9268 30.6607C19.6907 30.9531 19.3304 31.1399 18.9268 31.1399C18.5575 31.1399 18.2245 30.9835 17.9896 30.7328L11.3582 34.4383C11.7073 34.9933 12.2515 35.4237 13.0065 35.6363C14.4161 36.0332 15.9454 36.1094 17.4113 35.8444C18.3807 35.6691 19.3828 35.6691 20.3523 35.8444C21.8221 36.1101 23.3557 36.0328 24.7684 35.6331C25.4176 35.4494 25.9109 35.1045 26.258 34.6577Z" fill="#F2383D"/>
<path d="M37.2603 16.1438L31.5264 20.9681C31.7298 21.2845 31.795 21.687 31.6703 22.0733C31.5562 22.4268 31.3054 22.6972 30.996 22.8445L32.4486 30.3364C33.0811 30.1737 33.656 29.7859 34.0902 29.129C34.9009 27.9026 35.4455 26.4625 35.648 24.9776C35.7819 23.9955 36.0916 23.0365 36.5568 22.1628C37.2622 20.8381 37.663 19.3465 37.7218 17.8709C37.7488 17.1927 37.5752 16.6141 37.2603 16.1438Z" fill="#F2383D"/>
<path d="M22.8113 0.103473L25.5987 7.08211C25.9606 6.98522 26.3611 7.04715 26.6877 7.28588C26.9865 7.50435 27.1645 7.8279 27.2081 8.16958L34.7373 9.0944C34.7791 8.43883 34.5902 7.7687 34.1036 7.15016C33.195 5.99526 32.0023 5.02903 30.6616 4.37637C29.7749 3.94471 28.9642 3.352 28.2823 2.63672C27.2483 1.5523 25.9625 0.707743 24.5861 0.195451C23.9536 -0.0399674 23.3531 -0.0526386 22.8113 0.103473Z" fill="#F2383D"/>
<path d="M15.2936 0.103473L12.5061 7.08211C12.1443 6.98522 11.7438 7.04715 11.4172 7.28588C11.1184 7.50435 10.9404 7.8279 10.8968 8.16958L3.36757 9.0944C3.32581 8.43883 3.5147 7.7687 4.00131 7.15016C4.90988 5.99526 6.10258 5.02903 7.44331 4.37637C8.33003 3.94471 9.14069 3.352 9.82264 2.63672C10.8565 1.5523 12.1424 0.707743 13.5188 0.195452C14.1513 -0.0399673 14.7518 -0.0526385 15.2936 0.103473Z" fill="#F2383D"/>
<path d="M0.464275 16.1438L6.19818 20.9681C5.99479 21.2845 5.92954 21.687 6.05426 22.0733C6.16839 22.4268 6.41916 22.6972 6.7286 22.8445L5.27596 30.3364C4.64349 30.1737 4.06854 29.7859 3.63435 29.129C2.82365 27.9026 2.27907 26.4625 2.07656 24.9776C1.94263 23.9955 1.63299 23.0365 1.16774 22.1628C0.462384 20.8381 0.0615654 19.3465 0.00274961 17.8709C-0.0242784 17.1927 0.149306 16.6141 0.464275 16.1438Z" fill="#F2383D"/>
</svg>
