<svg width="96" height="96" viewBox="0 0 96 96" fill="none" xmlns="http://www.w3.org/2000/svg">
<rect width="96" height="96" rx="48" fill="#F5F5F5"/>
<g clip-path="url(#clip0_9219_15514)">
<path d="M40.8653 44.6771C41.276 44.6883 41.6848 44.6172 42.0676 44.468C42.4504 44.3189 42.7995 44.0946 43.0944 43.8085C43.3892 43.5223 43.6238 43.1801 43.7844 42.8019C43.9449 42.4237 44.0282 42.0173 44.0293 41.6064C44.0073 40.8124 43.6883 40.0555 43.1353 39.4852C42.5823 38.915 41.8356 38.5728 41.0426 38.5264C40.6272 38.4949 40.2097 38.548 39.8154 38.6825C39.421 38.817 39.0581 39.03 38.7485 39.3089C38.4389 39.5877 38.1891 39.9264 38.0142 40.3045C37.8393 40.6827 37.7429 41.0924 37.7309 41.5088C37.7189 41.9253 37.7915 42.3398 37.9443 42.7274C38.0971 43.115 38.327 43.4676 38.62 43.7637C38.9131 44.0599 39.2631 44.2936 39.649 44.4506C40.035 44.6076 40.4487 44.6846 40.8653 44.6771ZM57.8333 45.9277C57.6967 45.5983 57.4753 45.311 57.1914 45.0951C56.9076 44.8792 56.5716 44.7425 56.2177 44.6989C55.8638 44.6552 55.5046 44.7062 55.1769 44.8467C54.8491 44.9871 54.5645 45.212 54.352 45.4984L50.6186 50.5851C50.3399 50.9672 49.9351 51.2385 49.4757 51.3512C49.0163 51.4639 48.5319 51.4108 48.108 51.2011L42.2093 48.2704C41.7788 48.0579 41.2865 48.0059 40.8211 48.124C40.3558 48.2421 39.9478 48.5223 39.6706 48.9144L35.8066 54.2997C35.5918 54.6004 35.4641 54.9546 35.4377 55.3233C35.4114 55.6919 35.4873 56.0607 35.6572 56.3889C35.8271 56.7171 36.0844 56.992 36.4006 57.1833C36.7168 57.3747 37.0797 57.4749 37.4493 57.4731H59.5506C59.8849 57.477 60.2149 57.3973 60.5106 57.2413C60.8063 57.0853 61.0584 56.8578 61.2438 56.5796C61.4293 56.3015 61.5423 55.9813 61.5726 55.6484C61.6029 55.3154 61.5495 54.9802 61.4173 54.6731L57.8333 45.9277Z" fill="#EB5757"/>
<path d="M73.7 64.8H70.9V35.8667C70.9 33.1438 69.8183 30.5324 67.893 28.607C65.9676 26.6817 63.3562 25.6 60.6333 25.6H31.7V22.8C31.7 22.0574 31.405 21.3452 30.8799 20.8201C30.3548 20.295 29.6426 20 28.9 20C28.1574 20 27.4452 20.295 26.9201 20.8201C26.395 21.3452 26.1 22.0574 26.1 22.8V25.6H23.3C22.5574 25.6 21.8452 25.895 21.3201 26.4201C20.795 26.9452 20.5 27.6574 20.5 28.4C20.5 29.1426 20.795 29.8548 21.3201 30.3799C21.8452 30.905 22.5574 31.2 23.3 31.2H26.1V60.1333C26.1 61.4816 26.3656 62.8166 26.8815 64.0622C27.3975 65.3078 28.1537 66.4396 29.107 67.393C30.0604 68.3463 31.1922 69.1025 32.4378 69.6185C33.6834 70.1344 35.0184 70.4 36.3667 70.4H65.3V73.2C65.3 73.9426 65.595 74.6548 66.1201 75.1799C66.6452 75.705 67.3574 76 68.1 76C68.8426 76 69.5548 75.705 70.0799 75.1799C70.605 74.6548 70.9 73.9426 70.9 73.2V70.4H73.7C74.4426 70.4 75.1548 70.105 75.6799 69.5799C76.205 69.0548 76.5 68.3426 76.5 67.6C76.5 66.8574 76.205 66.1452 75.6799 65.6201C75.1548 65.095 74.4426 64.8 73.7 64.8ZM65.3 64.8H36.3667C35.129 64.8 33.942 64.3083 33.0668 63.4332C32.1917 62.558 31.7 61.371 31.7 60.1333V31.2H60.6333C61.871 31.2 63.058 31.6917 63.9332 32.5668C64.8083 33.442 65.3 34.629 65.3 35.8667V64.8Z" fill="#EB5757"/>
</g>
<rect x="17.8495" y="74.2686" width="81.4633" height="7" rx="3.5" transform="rotate(-45 17.8495 74.2686)" fill="#EB5757" stroke="#F6F6F6" stroke-width="2"/>
<defs>
<clipPath id="clip0_9219_15514">
<rect width="56" height="56" fill="white" transform="translate(20.5 20)"/>
</clipPath>
</defs>
</svg>
