<svg width="40" height="40" viewBox="0 0 40 40" fill="none" xmlns="http://www.w3.org/2000/svg">
<path d="M20 0C8.97108 0 0 8.97108 0 20C0 31.027 8.97108 40 20 40C31.027 40 40 31.027 40 20C40 8.97108 31.027 0 20 0ZM20 37.1929C10.519 37.1929 2.80705 29.4791 2.80705 20C2.80705 10.519 10.519 2.80701 20 2.80701C29.4792 2.80701 37.1929 10.519 37.1929 20C37.1929 29.4791 29.4791 37.1929 20 37.1929Z" fill="black"/>
<path d="M11.3444 17.3691C9.89161 17.3691 8.71289 18.546 8.71289 20.0007C8.71289 21.4536 9.89161 22.6323 11.3444 22.6323C12.7973 22.6323 13.976 21.4536 13.976 20.0007C13.976 18.546 12.7973 17.3691 11.3444 17.3691Z" fill="black"/>
<path d="M20.0007 17.3691C18.5479 17.3691 17.3691 18.546 17.3691 20.0007C17.3691 21.4536 18.5479 22.6323 20.0007 22.6323C21.4536 22.6323 22.6323 21.4536 22.6323 20.0007C22.6323 18.546 21.4535 17.3691 20.0007 17.3691Z" fill="black"/>
<path d="M28.655 17.3691C27.2021 17.3691 26.0234 18.546 26.0234 20.0007C26.0234 21.4536 27.2022 22.6323 28.655 22.6323C30.1078 22.6323 31.2865 21.4536 31.2865 20.0007C31.2866 18.546 30.1078 17.3691 28.655 17.3691Z" fill="black"/>
</svg>
