<svg width="244" height="44" viewBox="0 0 129 16" fill="none" xmlns="http://www.w3.org/2000/svg">
<path fill-rule="evenodd" clip-rule="evenodd" d="M63.4177 1.83887C62.1337 3.19362 62.1139 4.50669 62.1139 7.8623C62.1139 11.2179 62.1337 12.531 63.4177 13.8857C64.3461 14.8653 65.6103 15.4072 66.9338 15.4072C68.2573 15.4072 69.5216 14.8653 70.45 13.8857C71.734 12.531 71.7537 11.2179 71.7537 7.8623C71.7537 4.50669 71.734 3.19362 70.45 1.83887C69.5216 0.859284 68.2573 0.317383 66.9338 0.317383C65.6103 0.317383 64.3461 0.859284 63.4177 1.83887ZM70.4008 7.8623C70.4008 4.37563 70.3181 3.60212 69.4348 2.67008C68.7494 1.9469 67.8483 1.57487 66.9338 1.57487C66.0194 1.57487 65.1183 1.9469 64.4329 2.67008C63.5495 3.60212 63.4669 4.37563 63.4669 7.8623C63.4669 11.349 63.5495 12.1225 64.4329 13.0545C65.1183 13.7777 66.0194 14.1497 66.9338 14.1497C67.8483 14.1497 68.7494 13.7777 69.4348 13.0545C70.3181 12.1225 70.4008 11.349 70.4008 7.8623Z" fill="#F2383D"/>
<path fill-rule="evenodd" clip-rule="evenodd" d="M80.9744 0.915C80.9744 0.584945 81.2504 0.317383 81.5908 0.317383H90.8362C91.1766 0.317383 91.4525 0.584945 91.4525 0.915C91.4525 1.24506 91.1766 1.51262 90.8362 1.51262H86.8298V14.8096C86.8298 15.1397 86.5539 15.4072 86.2135 15.4072C85.8731 15.4072 85.5971 15.1397 85.5971 14.8096V1.51262H81.5908C81.2504 1.51262 80.9744 1.24506 80.9744 0.915Z" fill="#F2383D"/>
<path fill-rule="evenodd" clip-rule="evenodd" d="M103.451 0.877286C103.692 0.13075 104.78 0.130746 105.02 0.877286L109.447 14.6301C109.548 14.9456 109.367 15.2812 109.042 15.3798C108.717 15.4784 108.372 15.3026 108.27 14.9871L107.039 11.1637H101.432L100.201 14.9871C100.1 15.3026 99.7543 15.4784 99.4294 15.3798C99.1045 15.2812 98.9234 14.9456 99.0249 14.6301L103.451 0.877286ZM101.817 9.96686H106.654L104.236 2.4528L101.817 9.96686Z" fill="#F2383D"/>
<path fill-rule="evenodd" clip-rule="evenodd" d="M0.50293 0.317383H10.3646C10.705 0.317383 10.981 0.595979 10.981 0.939644C10.981 1.28331 10.705 1.56191 10.3646 1.56191H1.73564V7.38294H8.99495C9.33536 7.38294 9.61131 7.66154 9.61131 8.0052C9.61131 8.34887 9.33536 8.62747 8.99495 8.62747H1.73564V14.785C1.73564 15.1286 1.45969 15.4072 1.11929 15.4072C0.778882 15.4072 0.50293 15.1286 0.50293 14.785V0.317383Z" fill="#F2383D"/>
<path fill-rule="evenodd" clip-rule="evenodd" d="M43.7799 1.27267C44.626 0.61754 45.6997 0.317383 46.946 0.317383C48.2203 0.317383 49.3105 0.70446 50.1598 1.51547C51.007 2.31806 51.4273 3.34472 51.4273 4.54676C51.4273 4.88692 51.1513 5.16267 50.8109 5.16267C50.4705 5.16267 50.1946 4.88692 50.1946 4.54676C50.1946 3.66066 49.8978 2.96424 49.3109 2.40872L49.3088 2.40673C48.7235 1.84735 47.9548 1.54921 46.946 1.54921C45.8968 1.54921 45.1114 1.79995 44.5347 2.24659L44.534 2.24718C43.966 2.68561 43.7153 3.19717 43.7153 3.81638C43.7153 4.48292 43.9495 4.98168 44.4171 5.37091C44.9314 5.79899 45.8459 6.22539 47.2368 6.61545C48.6816 7.01406 49.8118 7.49559 50.5652 8.0901C51.557 8.87216 52.055 9.93789 52.055 11.2259C52.055 12.0451 51.8374 12.7923 51.3923 13.4463L51.3914 13.4477L51.3904 13.4491C50.9456 14.095 50.3221 14.5802 49.5492 14.9145C48.7801 15.2471 47.9299 15.4072 47.0088 15.4072C45.9908 15.4072 45.0551 15.2274 44.2126 14.8548L44.2106 14.8539L44.2086 14.853C43.3583 14.4697 42.6887 13.9126 42.2333 13.1728L42.2321 13.1709L42.231 13.1691C41.7871 12.4366 41.5769 11.5888 41.5769 10.6493C41.5769 10.3091 41.8529 10.0334 42.1933 10.0334C42.5337 10.0334 42.8096 10.3091 42.8096 10.6493C42.8096 11.4003 42.9757 12.0191 43.2843 12.5291C43.5938 13.0309 44.0591 13.4339 44.7135 13.7292C45.377 14.0223 46.1384 14.1754 47.0088 14.1754C47.7855 14.1754 48.4657 14.0408 49.0596 13.784C49.6491 13.5291 50.0775 13.1819 50.3739 12.7521C50.6695 12.3173 50.8223 11.8156 50.8223 11.2259C50.8223 10.2972 50.4834 9.59472 49.8014 9.05698L49.8012 9.05682C49.2396 8.6136 48.2959 8.18547 46.9075 7.80251L46.905 7.80182C45.463 7.39752 44.3452 6.91427 43.6281 6.31738C42.8642 5.68151 42.4826 4.82842 42.4826 3.81638C42.4826 2.78277 42.9372 1.92337 43.7799 1.27267Z" fill="#F2383D"/>
<path fill-rule="evenodd" clip-rule="evenodd" d="M21.6563 0.317383C21.9967 0.317383 22.2726 0.584945 22.2726 0.915V10.2232C22.2726 11.428 22.699 12.4196 23.3924 13.1074C24.0849 13.7942 25.0776 14.212 26.279 14.212C27.4803 14.212 28.473 13.7942 29.1655 13.1074C29.859 12.4196 30.2853 11.428 30.2853 10.2232V0.915C30.2853 0.584945 30.5612 0.317383 30.9016 0.317383C31.242 0.317383 31.518 0.584945 31.518 0.915V10.2232C31.518 11.7084 30.9876 13.01 30.047 13.9429C29.1055 14.8767 27.7868 15.4072 26.279 15.4072C24.7711 15.4072 23.4524 14.8767 22.5109 13.9429C21.5703 13.01 21.0399 11.7084 21.0399 10.2232V0.915C21.0399 0.584945 21.3159 0.317383 21.6563 0.317383Z" fill="#F2383D"/>
<path fill-rule="evenodd" clip-rule="evenodd" d="M119.999 1.83887C118.715 3.19362 118.695 4.50669 118.695 7.8623C118.695 11.2179 118.715 12.531 119.999 13.8857C120.928 14.8653 122.192 15.4072 123.515 15.4072C124.839 15.4072 126.103 14.8653 127.032 13.8857C128.316 12.531 128.335 11.2179 128.335 7.8623C128.335 4.50669 128.316 3.19362 127.032 1.83887C126.103 0.859284 124.839 0.317383 123.515 0.317383C122.192 0.317383 120.928 0.859284 119.999 1.83887ZM126.899 4.31883C126.774 3.62676 126.554 3.18438 126.089 2.69388C125.399 1.96561 124.474 1.57487 123.515 1.57487C122.557 1.57487 121.632 1.96562 120.942 2.69388C120.477 3.18438 120.256 3.62676 120.132 4.31882C119.99 5.10279 119.981 6.14279 119.981 7.8623C119.981 9.58181 119.99 10.6218 120.132 11.4058C120.256 12.0978 120.477 12.5402 120.942 13.0307C121.632 13.759 122.557 14.1497 123.515 14.1497C124.474 14.1497 125.399 13.759 126.089 13.0307C126.554 12.5402 126.774 12.0978 126.899 11.4058C127.041 10.6218 127.05 9.58181 127.05 7.8623C127.05 6.14279 127.041 5.10279 126.899 4.31883Z" fill="#F2383D"/>
</svg>
