<svg width="27" height="25" viewBox="0 0 27 25" fill="none" xmlns="http://www.w3.org/2000/svg">
<path d="M25.8634 11.2113L21.8834 14.5615C22.0246 14.7812 22.0699 15.0607 21.9833 15.329C21.9041 15.5745 21.73 15.7622 21.5152 15.8645L22.5235 21.0672C22.9626 20.9543 23.3616 20.6849 23.663 20.2288C24.2257 19.3771 24.6037 18.377 24.7443 17.3458C24.8373 16.6639 25.0522 15.9979 25.3751 15.3911C25.8647 14.4712 26.143 13.4354 26.1838 12.4106C26.2025 11.9397 26.0821 11.5379 25.8634 11.2113Z" fill="url(#paint0_linear_9496_1043)"/>
<path d="M20.3714 14.629C20.5784 14.2708 21.013 14.0934 21.4214 14.2265C21.4707 14.2426 21.5177 14.2626 21.5622 14.286L25.5871 10.9103C24.8874 10.2601 23.7004 10.0668 22.6169 10.4182L15.6658 12.6722C15.497 12.7269 15.3641 12.8339 15.2753 12.9676L20.3714 14.629Z" fill="url(#paint1_linear_9496_1043)"/>
<path d="M19.5802 19.7882C20.207 20.6553 21.1883 21.1897 22.0892 21.1636L21.0833 15.9922C21.0102 15.9875 20.9364 15.9736 20.8635 15.9498C20.4785 15.8244 20.2362 15.4624 20.2444 15.0764L15.1357 13.4117C15.1382 13.5579 15.1836 13.706 15.2782 13.8368L19.5802 19.7882Z" fill="url(#paint2_linear_9496_1043)"/>
<path d="M18.2263 24.0679L13.8317 21.2922C13.6678 21.4953 13.4178 21.625 13.1376 21.625C12.8813 21.625 12.6501 21.5164 12.4871 21.3423L7.88409 23.9156C8.12642 24.301 8.50418 24.5999 9.0282 24.7475C10.0066 25.0232 11.0681 25.0761 12.0856 24.892C12.7586 24.7703 13.4541 24.7703 14.1271 24.892C15.1473 25.0766 16.2118 25.0229 17.1924 24.7453C17.643 24.6178 17.9854 24.3782 18.2263 24.0679Z" fill="url(#paint3_linear_9496_1043)"/>
<path d="M13.305 19.8247C13.7084 19.9116 14.0109 20.2715 14.0109 20.7023C14.0109 20.7544 14.0065 20.8054 13.998 20.8551L18.4414 23.6529C18.8415 22.7842 18.6579 21.5918 17.99 20.6664L13.7056 14.7296C13.6016 14.5854 13.4591 14.4916 13.305 14.4482L13.305 19.8247Z" fill="url(#paint4_linear_9496_1043)"/>
<path d="M8.16729 20.6851C7.53868 21.5509 7.33514 22.652 7.63832 23.5032L12.2315 20.9458C12.2134 20.8745 12.2037 20.7999 12.2037 20.723C12.2037 20.3171 12.4721 19.974 12.8407 19.8626L12.8407 14.4754C12.7028 14.5229 12.5764 14.612 12.4816 14.7426L8.16729 20.6851Z" fill="url(#paint5_linear_9496_1043)"/>
<path d="M4.30228 14.5612L0.322262 11.211C0.103636 11.5376 -0.0168522 11.9394 0.00190844 12.4103C0.0427336 13.4351 0.32095 14.4709 0.810551 15.3908C1.13349 15.9976 1.34842 16.6636 1.44138 17.3455C1.58195 18.3767 1.95995 19.3768 2.52267 20.2285C2.82405 20.6846 3.22314 20.954 3.66214 21.0669L4.67045 15.8642C4.45566 15.7619 4.2816 15.5741 4.20238 15.3287C4.11581 15.0604 4.1611 14.7809 4.30228 14.5612Z" fill="url(#paint6_linear_9496_1043)"/>
<path d="M4.12861 21.1422C5.02811 21.1683 6.00791 20.6344 6.63381 19.7682L10.9294 13.8228C11.0238 13.6921 11.0692 13.5442 11.0716 13.3981L5.97064 15.0612C5.97885 15.4467 5.73682 15.8084 5.35243 15.9337C5.27963 15.9574 5.20598 15.9713 5.13294 15.976L4.12861 21.1422Z" fill="url(#paint7_linear_9496_1043)"/>
<path d="M4.77055 14.2403C5.1795 14.1071 5.61476 14.2847 5.82213 14.6432L10.9258 12.9801C10.8369 12.8463 10.7038 12.7392 10.5347 12.6844L3.57324 10.4281C2.48813 10.0764 1.29934 10.2699 0.598566 10.9207L4.62956 14.2999C4.67406 14.2764 4.72113 14.2564 4.77055 14.2403Z" fill="url(#paint8_linear_9496_1043)"/>
<path d="M17.7685 4.91813L15.8336 0.0718567C16.2097 -0.0365544 16.6265 -0.0277549 17.0655 0.13573C18.0209 0.491489 18.9135 1.07799 19.6311 1.83106C20.1045 2.32777 20.6672 2.73938 21.2827 3.03914C22.2133 3.49239 23.0412 4.16338 23.6718 4.96539C24.0096 5.39493 24.1407 5.8603 24.1117 6.31556L18.8855 5.67332C18.8553 5.43605 18.7317 5.21135 18.5243 5.05964C18.2976 4.89385 18.0196 4.85085 17.7685 4.91813Z" fill="url(#paint9_linear_9496_1043)"/>
<path d="M17.3281 5.29959C17.0757 5.64812 17.1095 6.11768 17.385 6.42596L14.2355 10.7756C14.1363 10.6496 14.0759 10.4897 14.0762 10.3117L14.0878 2.98187C14.0896 1.83934 14.6396 0.766311 15.4721 0.299493L17.428 5.18363C17.392 5.21879 17.3586 5.25747 17.3281 5.29959Z" fill="url(#paint10_linear_9496_1043)"/>
<path d="M24.0904 6.80307C23.8369 7.6704 23.0269 8.44121 22.0108 8.77114L15.0377 11.0355C14.8845 11.0852 14.73 11.0828 14.5906 11.0399L17.7479 6.68163C18.1114 6.80874 18.5296 6.68942 18.7675 6.361C18.8126 6.29879 18.8485 6.23273 18.8756 6.16442L24.0904 6.80307Z" fill="url(#paint11_linear_9496_1043)"/>
<path d="M10.616 0.0718567L8.68115 4.91813C8.43 4.85085 8.15195 4.89385 7.92531 5.05964C7.71791 5.21135 7.59433 5.43605 7.56407 5.67332L2.33789 6.31556C2.3089 5.8603 2.44001 5.39493 2.77777 4.96539C3.40843 4.16338 4.23631 3.49239 5.16694 3.03914C5.78242 2.73938 6.34512 2.32778 6.81848 1.83106C7.53613 1.07799 8.42866 0.491489 9.38405 0.13573C9.82309 -0.0277549 10.2399 -0.0365545 10.616 0.0718567Z" fill="url(#paint12_linear_9496_1043)"/>
<path d="M4.47092 8.76257C3.45641 8.43298 2.64763 7.66294 2.39444 6.79649L7.60145 6.15849C7.6285 6.22673 7.6644 6.29272 7.7094 6.35487C7.94696 6.68296 8.36456 6.80216 8.72748 6.67517L11.8801 11.0291C11.7409 11.0719 11.5867 11.0743 11.4336 11.0246L4.47092 8.76257Z" fill="url(#paint13_linear_9496_1043)"/>
<path d="M9.07744 6.43216C9.35334 6.12357 9.38724 5.65353 9.1345 5.30465C9.10395 5.26249 9.07043 5.22377 9.03444 5.18858L10.9933 0.299493C11.827 0.766783 12.3778 1.8409 12.3796 2.98459L12.3912 10.3219C12.3915 10.5 12.3311 10.6601 12.2317 10.7862L9.07744 6.43216Z" fill="url(#paint14_linear_9496_1043)"/>
<mask id="mask0_9496_1043" style="mask-type:alpha" maskUnits="userSpaceOnUse" x="0" y="0" width="27" height="25">
<path d="M17.7686 4.91813L15.8337 0.0718567C16.2098 -0.0365544 16.6266 -0.0277549 17.0657 0.13573C18.0211 0.491488 18.9136 1.07799 19.6313 1.83106C20.1046 2.32777 20.6673 2.73938 21.2828 3.03914C22.2134 3.49239 23.0413 4.16337 23.672 4.96539C24.0097 5.39493 24.1408 5.8603 24.1118 6.31556L18.8857 5.67332C18.8554 5.43604 18.7318 5.21135 18.5244 5.05964C18.2978 4.89385 18.0197 4.85084 17.7686 4.91813Z" fill="url(#paint15_linear_9496_1043)"/>
<path d="M25.8631 11.211L21.8831 14.5612C22.0242 14.7809 22.0695 15.0604 21.983 15.3287C21.9037 15.5742 21.7297 15.7619 21.5149 15.8642L22.5232 21.0669C22.9622 20.954 23.3613 20.6846 23.6627 20.2285C24.2254 19.3768 24.6034 18.3767 24.744 17.3455C24.8369 16.6636 25.0519 15.9976 25.3748 15.3908C25.8644 14.4709 26.1426 13.4351 26.1834 12.4103C26.2022 11.9394 26.0817 11.5376 25.8631 11.211Z" fill="url(#paint16_linear_9496_1043)"/>
<path d="M18.2262 24.0678L13.8316 21.2921C13.6677 21.4952 13.4176 21.6249 13.1375 21.6249C12.8811 21.6249 12.65 21.5163 12.4869 21.3422L7.88393 23.9155C8.12626 24.3009 8.50402 24.5998 9.02805 24.7474C10.0065 25.0231 11.068 25.076 12.0855 24.8919C12.7584 24.7702 13.454 24.7702 14.1269 24.8919C15.1471 25.0765 16.2116 25.0228 17.1922 24.7452C17.6429 24.6177 17.9852 24.3781 18.2262 24.0678Z" fill="url(#paint17_linear_9496_1043)"/>
<path d="M10.6156 0.0718568L8.68076 4.91813C8.42961 4.85084 8.15156 4.89385 7.92492 5.05964C7.71752 5.21135 7.59394 5.43604 7.56368 5.67332L2.3375 6.31556C2.30851 5.8603 2.43962 5.39493 2.77738 4.96539C3.40804 4.16337 4.23592 3.49239 5.16655 3.03914C5.78203 2.73938 6.34473 2.32777 6.81809 1.83106C7.53574 1.07799 8.42827 0.491489 9.38366 0.13573C9.8227 -0.0277549 10.2395 -0.0365544 10.6156 0.0718568Z" fill="url(#paint18_linear_9496_1043)"/>
<path d="M4.30228 14.5612L0.322262 11.211C0.103636 11.5376 -0.0168522 11.9394 0.00190844 12.4103C0.0427336 13.4351 0.32095 14.4709 0.810551 15.3908C1.13349 15.9976 1.34842 16.6636 1.44138 17.3455C1.58195 18.3767 1.95995 19.3768 2.52267 20.2285C2.82405 20.6846 3.22314 20.954 3.66214 21.0669L4.67045 15.8642C4.45566 15.7619 4.2816 15.5742 4.20238 15.3287C4.11581 15.0604 4.1611 14.7809 4.30228 14.5612Z" fill="url(#paint19_linear_9496_1043)"/>
<path d="M17.3282 5.29959C17.0758 5.64812 17.1097 6.11768 17.3852 6.42595L14.2356 10.7756C14.1364 10.6496 14.076 10.4897 14.0763 10.3117L14.0879 2.98187C14.0897 1.83934 14.6397 0.766311 15.4722 0.299493L17.4281 5.18363C17.3922 5.21879 17.3587 5.25747 17.3282 5.29959Z" fill="url(#paint20_linear_9496_1043)"/>
<path d="M20.371 14.6287C20.5781 14.2705 21.0127 14.0931 21.421 14.2262C21.4704 14.2423 21.5174 14.2623 21.5618 14.2857L25.5868 10.91C24.8871 10.2598 23.7 10.0665 22.6166 10.4179L15.6654 12.6719C15.4967 12.7266 15.3637 12.8336 15.275 12.9673L20.371 14.6287Z" fill="url(#paint21_linear_9496_1043)"/>
<path d="M13.3048 19.8246C13.7083 19.9115 14.0107 20.2714 14.0107 20.7022C14.0107 20.7543 14.0063 20.8053 13.9978 20.855L18.4413 23.6528C18.8413 22.7841 18.6577 21.5917 17.9899 20.6663L13.7054 14.7295C13.6014 14.5853 13.4589 14.4915 13.3048 14.4481L13.3048 19.8246Z" fill="url(#paint22_linear_9496_1043)"/>
<path d="M4.47053 8.76257C3.45602 8.43298 2.64724 7.66294 2.39405 6.79649L7.60106 6.15849C7.62811 6.22673 7.66401 6.29272 7.70901 6.35487C7.94657 6.68296 8.36417 6.80216 8.72709 6.67517L11.8797 11.0291C11.7405 11.0719 11.5863 11.0743 11.4333 11.0246L4.47053 8.76257Z" fill="url(#paint23_linear_9496_1043)"/>
<path d="M4.12861 21.1422C5.02811 21.1683 6.00791 20.6344 6.63381 19.7682L10.9294 13.8228C11.0238 13.6921 11.0692 13.5442 11.0716 13.3981L5.97064 15.0612C5.97885 15.4467 5.73682 15.8084 5.35243 15.9337C5.27963 15.9575 5.20598 15.9713 5.13294 15.976L4.12861 21.1422Z" fill="url(#paint24_linear_9496_1043)"/>
<path d="M9.07705 6.43216C9.35295 6.12357 9.38685 5.65353 9.13411 5.30465C9.10356 5.26249 9.07005 5.22377 9.03405 5.18858L10.9929 0.299493C11.8266 0.766783 12.3774 1.8409 12.3792 2.98458L12.3908 10.3219C12.3911 10.5 12.3307 10.6601 12.2313 10.7862L9.07705 6.43216Z" fill="url(#paint25_linear_9496_1043)"/>
<path d="M24.0906 6.80307C23.837 7.6704 23.027 8.44121 22.011 8.77114L15.0379 11.0355C14.8846 11.0852 14.7302 11.0828 14.5907 11.0399L17.7481 6.68163C18.1115 6.80874 18.5297 6.68942 18.7677 6.361C18.8127 6.29879 18.8487 6.23273 18.8758 6.16442L24.0906 6.80307Z" fill="url(#paint26_linear_9496_1043)"/>
<path d="M19.5799 19.7879C20.2067 20.655 21.188 21.1894 22.0888 21.1633L21.083 15.9919C21.0098 15.9872 20.9361 15.9733 20.8632 15.9495C20.4782 15.8241 20.2358 15.4621 20.244 15.0761L15.1354 13.4114C15.1379 13.5576 15.1833 13.7057 15.2778 13.8364L19.5799 19.7879Z" fill="url(#paint27_linear_9496_1043)"/>
<path d="M8.16714 20.685C7.53852 21.5508 7.33498 22.6519 7.63817 23.5031L12.2313 20.9457C12.2132 20.8744 12.2036 20.7998 12.2036 20.7229C12.2036 20.3169 12.472 19.9739 12.8405 19.8625L12.8405 14.4753C12.7026 14.5228 12.5763 14.6119 12.4814 14.7425L8.16714 20.685Z" fill="url(#paint28_linear_9496_1043)"/>
<path d="M4.77055 14.2403C5.1795 14.1071 5.61476 14.2847 5.82213 14.6432L10.9258 12.9801C10.8369 12.8463 10.7038 12.7392 10.5347 12.6844L3.57324 10.4281C2.48813 10.0764 1.29934 10.2699 0.598565 10.9207L4.62956 14.2999C4.67406 14.2765 4.72113 14.2564 4.77055 14.2403Z" fill="url(#paint29_linear_9496_1043)"/>
</mask>
<g mask="url(#mask0_9496_1043)">
<g filter="url(#filter0_f_9496_1043)">
<circle cx="18.9653" cy="4.41847" r="1.72414" fill="#FAC7B5" fill-opacity="0.8"/>
</g>
<g filter="url(#filter1_f_9496_1043)">
<ellipse cx="12.2305" cy="5.44225" rx="2.20905" ry="3.3944" fill="#FAC7B5" fill-opacity="0.65"/>
</g>
</g>
<defs>
<filter id="filter0_f_9496_1043" x="15.086" y="0.539164" width="7.75859" height="7.75859" filterUnits="userSpaceOnUse" color-interpolation-filters="sRGB">
<feFlood flood-opacity="0" result="BackgroundImageFix"/>
<feBlend mode="normal" in="SourceGraphic" in2="BackgroundImageFix" result="shape"/>
<feGaussianBlur stdDeviation="1.07759" result="effect1_foregroundBlur_9496_1043"/>
</filter>
<filter id="filter1_f_9496_1043" x="7.86631" y="-0.107321" width="8.72831" height="11.0994" filterUnits="userSpaceOnUse" color-interpolation-filters="sRGB">
<feFlood flood-opacity="0" result="BackgroundImageFix"/>
<feBlend mode="normal" in="SourceGraphic" in2="BackgroundImageFix" result="shape"/>
<feGaussianBlur stdDeviation="1.07759" result="effect1_foregroundBlur_9496_1043"/>
</filter>
<linearGradient id="paint0_linear_9496_1043" x1="20.6899" y1="14.7093" x2="23.4917" y2="18.8041" gradientUnits="userSpaceOnUse">
<stop offset="0.463542" stop-color="#EA302A"/>
<stop offset="1" stop-color="#C5151B"/>
</linearGradient>
<linearGradient id="paint1_linear_9496_1043" x1="20.6899" y1="14.7093" x2="23.4917" y2="18.8041" gradientUnits="userSpaceOnUse">
<stop offset="0.463542" stop-color="#EA302A"/>
<stop offset="1" stop-color="#C5151B"/>
</linearGradient>
<linearGradient id="paint2_linear_9496_1043" x1="20.6899" y1="14.7093" x2="23.4917" y2="18.8041" gradientUnits="userSpaceOnUse">
<stop offset="0.463542" stop-color="#EA302A"/>
<stop offset="1" stop-color="#C5151B"/>
</linearGradient>
<linearGradient id="paint3_linear_9496_1043" x1="13.039" y1="25.0002" x2="13.039" y2="20.9053" gradientUnits="userSpaceOnUse">
<stop stop-color="#9E0B0F"/>
<stop offset="1" stop-color="#DA181F"/>
</linearGradient>
<linearGradient id="paint4_linear_9496_1043" x1="13.039" y1="25.0002" x2="13.039" y2="20.9053" gradientUnits="userSpaceOnUse">
<stop stop-color="#9E0B0F"/>
<stop offset="1" stop-color="#DA181F"/>
</linearGradient>
<linearGradient id="paint5_linear_9496_1043" x1="13.039" y1="25.0002" x2="13.039" y2="20.9053" gradientUnits="userSpaceOnUse">
<stop stop-color="#9E0B0F"/>
<stop offset="1" stop-color="#DA181F"/>
</linearGradient>
<linearGradient id="paint6_linear_9496_1043" x1="-2.99876e-07" y1="18.7499" x2="4.57974" y2="15.7327" gradientUnits="userSpaceOnUse">
<stop stop-color="#9A0A0E"/>
<stop offset="0.86899" stop-color="#DA181F"/>
</linearGradient>
<linearGradient id="paint7_linear_9496_1043" x1="-2.99876e-07" y1="18.7499" x2="4.57974" y2="15.7327" gradientUnits="userSpaceOnUse">
<stop stop-color="#9A0A0E"/>
<stop offset="0.86899" stop-color="#DA181F"/>
</linearGradient>
<linearGradient id="paint8_linear_9496_1043" x1="-2.99876e-07" y1="18.7499" x2="4.57974" y2="15.7327" gradientUnits="userSpaceOnUse">
<stop stop-color="#9A0A0E"/>
<stop offset="0.86899" stop-color="#DA181F"/>
</linearGradient>
<linearGradient id="paint9_linear_9496_1043" x1="19.0732" y1="1.72414" x2="14.1163" y2="9.80604" gradientUnits="userSpaceOnUse">
<stop stop-color="#F9B198"/>
<stop offset="1" stop-color="#EE1C25"/>
</linearGradient>
<linearGradient id="paint10_linear_9496_1043" x1="19.0732" y1="1.72414" x2="14.1163" y2="9.80604" gradientUnits="userSpaceOnUse">
<stop stop-color="#F9B198"/>
<stop offset="1" stop-color="#EE1C25"/>
</linearGradient>
<linearGradient id="paint11_linear_9496_1043" x1="19.0732" y1="1.72414" x2="14.1163" y2="9.80604" gradientUnits="userSpaceOnUse">
<stop stop-color="#F9B198"/>
<stop offset="1" stop-color="#EE1C25"/>
</linearGradient>
<linearGradient id="paint12_linear_9496_1043" x1="5.87318" y1="2.37069" x2="11.746" y2="12.8233" gradientUnits="userSpaceOnUse">
<stop stop-color="#EE2729"/>
<stop offset="1" stop-color="#EE1C25"/>
</linearGradient>
<linearGradient id="paint13_linear_9496_1043" x1="5.87318" y1="2.37069" x2="11.746" y2="12.8233" gradientUnits="userSpaceOnUse">
<stop stop-color="#EE2729"/>
<stop offset="1" stop-color="#EE1C25"/>
</linearGradient>
<linearGradient id="paint14_linear_9496_1043" x1="5.87318" y1="2.37069" x2="11.746" y2="12.8233" gradientUnits="userSpaceOnUse">
<stop stop-color="#EE2729"/>
<stop offset="1" stop-color="#EE1C25"/>
</linearGradient>
<linearGradient id="paint15_linear_9496_1043" x1="13.0927" y1="-1.29762e-07" x2="13.0927" y2="25" gradientUnits="userSpaceOnUse">
<stop stop-color="#EF4934"/>
<stop offset="1" stop-color="#D2171D"/>
</linearGradient>
<linearGradient id="paint16_linear_9496_1043" x1="13.0927" y1="-1.29762e-07" x2="13.0927" y2="25" gradientUnits="userSpaceOnUse">
<stop stop-color="#EF4934"/>
<stop offset="1" stop-color="#D2171D"/>
</linearGradient>
<linearGradient id="paint17_linear_9496_1043" x1="13.0927" y1="-1.29762e-07" x2="13.0927" y2="25" gradientUnits="userSpaceOnUse">
<stop stop-color="#EF4934"/>
<stop offset="1" stop-color="#D2171D"/>
</linearGradient>
<linearGradient id="paint18_linear_9496_1043" x1="13.0927" y1="-1.29762e-07" x2="13.0927" y2="25" gradientUnits="userSpaceOnUse">
<stop stop-color="#EF4934"/>
<stop offset="1" stop-color="#D2171D"/>
</linearGradient>
<linearGradient id="paint19_linear_9496_1043" x1="13.0927" y1="-1.29762e-07" x2="13.0927" y2="25" gradientUnits="userSpaceOnUse">
<stop stop-color="#EF4934"/>
<stop offset="1" stop-color="#D2171D"/>
</linearGradient>
<linearGradient id="paint20_linear_9496_1043" x1="13.0927" y1="-1.29762e-07" x2="13.0927" y2="25" gradientUnits="userSpaceOnUse">
<stop stop-color="#EF4934"/>
<stop offset="1" stop-color="#D2171D"/>
</linearGradient>
<linearGradient id="paint21_linear_9496_1043" x1="13.0927" y1="-1.29762e-07" x2="13.0927" y2="25" gradientUnits="userSpaceOnUse">
<stop stop-color="#EF4934"/>
<stop offset="1" stop-color="#D2171D"/>
</linearGradient>
<linearGradient id="paint22_linear_9496_1043" x1="13.0927" y1="-1.29762e-07" x2="13.0927" y2="25" gradientUnits="userSpaceOnUse">
<stop stop-color="#EF4934"/>
<stop offset="1" stop-color="#D2171D"/>
</linearGradient>
<linearGradient id="paint23_linear_9496_1043" x1="13.0927" y1="-1.29762e-07" x2="13.0927" y2="25" gradientUnits="userSpaceOnUse">
<stop stop-color="#EF4934"/>
<stop offset="1" stop-color="#D2171D"/>
</linearGradient>
<linearGradient id="paint24_linear_9496_1043" x1="13.0927" y1="-1.29762e-07" x2="13.0927" y2="25" gradientUnits="userSpaceOnUse">
<stop stop-color="#EF4934"/>
<stop offset="1" stop-color="#D2171D"/>
</linearGradient>
<linearGradient id="paint25_linear_9496_1043" x1="13.0927" y1="-1.29762e-07" x2="13.0927" y2="25" gradientUnits="userSpaceOnUse">
<stop stop-color="#EF4934"/>
<stop offset="1" stop-color="#D2171D"/>
</linearGradient>
<linearGradient id="paint26_linear_9496_1043" x1="13.0927" y1="-1.29762e-07" x2="13.0927" y2="25" gradientUnits="userSpaceOnUse">
<stop stop-color="#EF4934"/>
<stop offset="1" stop-color="#D2171D"/>
</linearGradient>
<linearGradient id="paint27_linear_9496_1043" x1="13.0927" y1="-1.29762e-07" x2="13.0927" y2="25" gradientUnits="userSpaceOnUse">
<stop stop-color="#EF4934"/>
<stop offset="1" stop-color="#D2171D"/>
</linearGradient>
<linearGradient id="paint28_linear_9496_1043" x1="13.0927" y1="-1.29762e-07" x2="13.0927" y2="25" gradientUnits="userSpaceOnUse">
<stop stop-color="#EF4934"/>
<stop offset="1" stop-color="#D2171D"/>
</linearGradient>
<linearGradient id="paint29_linear_9496_1043" x1="13.0927" y1="-1.29762e-07" x2="13.0927" y2="25" gradientUnits="userSpaceOnUse">
<stop stop-color="#EF4934"/>
<stop offset="1" stop-color="#D2171D"/>
</linearGradient>
</defs>
</svg>
