<?xml version="1.0" encoding="UTF-8"?>
<svg width="880px" height="976px" viewBox="0 0 880 976" version="1.1" xmlns="http://www.w3.org/2000/svg" xmlns:xlink="http://www.w3.org/1999/xlink">
    <title>编组 3</title>
    <defs>
        <path d="M20.7018956,0 C-9.57490555,68.1475588 -5.81951879,147.920608 31.9680559,239.319149 C54.0906295,292.828033 86.89234,333.895639 109.578854,364.201325 C125.643182,385.660789 125.956847,390.565366 147.798816,411.968061 C162.360128,426.236524 178.223527,438.342409 195.389012,448.285714 L291.122016,376.850464 L351.117467,335.180909 C350.242593,321.197157 340.827245,297.31915 322.871423,263.546887 C295.937689,212.888493 228.042406,120.605891 195.389012,86.159418 C181.155021,71.1438033 150.019684,38.0445044 103.248462,19.7354031 C95.4552939,16.6846829 72.957283,8.95208604 57.9361425,5.16795632 C50.649657,3.33234296 38.2382414,1.60969085 20.7018956,0 Z" id="path-1"></path>
        <path d="M0,19.5669434 L68.8174402,56.1435115 C74.3509076,45.1621979 77.8582636,37.1443476 79.3395082,32.0899604 C80.8207528,27.0355732 82.3268142,24.0917258 83.8576926,23.2584182 L38.300752,-2.89219641e-13 L0,19.5669434 Z" id="path-3"></path>
        <path d="M0,19.6310965 L68.5560208,56.3275862 C74.0684679,45.3102688 77.5625004,37.2661308 79.0381181,32.195172 C80.5137358,27.1242133 82.0140762,24.170714 83.5391392,23.3346743 L38.1552574,-2.9016789e-13 L0,19.6310965 Z" id="path-5"></path>
    </defs>
    <g id="页面-1" stroke="none" stroke-width="1" fill="none" fill-rule="evenodd">
        <g id="002-Splash" transform="translate(89.000000, 23.000000)">
            <g id="Group" transform="translate(-87.000000, -21.000000)">
                <g id="编组-3">
                    <g id="线" opacity="0.2" stroke="#F8F8F8">
                        <path d="M822.031377,34.1957847 C758.126958,44.0295292 710.873782,39.255156 680.271848,19.8726651 C634.368948,-9.20107113 576.951388,-3.0531529 530.013136,19.8726651 C498.720968,35.1565438 464.384918,39.930917 427.004987,34.1957847" id="路径-69" stroke-width="4" stroke-linecap="round" stroke-linejoin="round"></path>
                        <path d="M833.943246,114.764879 C773.011727,108.922087 726.937514,112.864592 695.720609,126.592393 C675.807096,135.349467 660.943863,153.061931 610.723019,160.183676 C578.918721,164.693797 529.48427,146.130953 515.197231,139.058593 C490.338448,126.753015 376.874046,142.464917 331.562809,159.851363 C286.251571,177.237808 204.435835,159.851363 204.435835,159.851363" id="路径-70" stroke-width="5" stroke-linecap="round" stroke-linejoin="round"></path>
                        <path d="M0,240.859277 C62.44564,222.361045 102.834015,216.194967 121.165124,222.361045 C148.661788,231.610161 230.755507,272.86453 286.872597,255.259275 C342.989686,237.65402 427.904637,193.292958 484.778787,193.292958 C541.652937,193.292958 622.374484,236.802439 684.867441,222.361045" id="路径-71" stroke-width="4" stroke-linecap="round" stroke-linejoin="round"></path>
                        <path d="M446.563965,615.394126 C432.646427,615.394126 372.048815,567.067688 314.274628,596.10345 C256.500441,625.139213 255.653585,661.752246 204.435835,661.740418 C153.218085,661.728233 133.425951,607.000862 105.000705,615.394126 C86.0505414,620.989635 62.3096057,629.164419 33.7778983,639.918476" id="路径-72" stroke-width="4" stroke-linecap="round" stroke-linejoin="round"></path>
                        <path d="M319.669985,701.156667 C351.307458,668.394431 395.521678,666.64397 452.312645,695.905284 C537.499095,739.797255 604.274743,689.275962 619.782648,678.595717 C635.290554,667.915472 687.14918,641.226687 733.915393,668.565985" id="路径-73" stroke-width="4" stroke-linecap="round" stroke-linejoin="round"></path>
                        <path d="M248.381911,786.857143 C256.720051,776.32051 262.034075,752.124503 318.113015,774.714053 C374.191954,797.303603 384.420845,774.714053 441.324567,774.714053" id="路径-74" stroke-width="4" stroke-linecap="round" stroke-linejoin="round"></path>
                        <path d="M822.338569,366.718606 C796.73027,340.313051 767.693017,327.110273 735.22681,327.110273 C686.527499,327.110273 675.199131,385.494785 624.825374,385.494785 C591.242869,385.494785 556.133322,376.531368 519.496733,358.604535" id="路径-75" stroke-width="4"></path>
                    </g>
                    <text id="Welcome-To-FUSOTAO" font-family="TrendexBlackSSiBold, Trendex Black SSi" font-size="60" font-weight="bold" line-spacing="70" fill="#333333">
                        <tspan x="206.598536" y="891.428571">Welcome To</tspan>
                        <tspan x="206.598536" y="961.428571">FUSOTAO</tspan>
                    </text>
                    <g id="飞船" transform="translate(350.117397, 72.857143)">
                        <path d="M385.258877,635.999739 C389.329526,649.001568 388.8304,660.436425 383.761498,670.30431 C379.420253,678.755629 368.270234,684.255453 357.119553,690.785781 C376.924546,691.507844 389.72793,686.713177 395.529705,676.401778 C401.33148,666.090379 397.907871,652.623033 385.258877,635.999739 Z" id="路径-12" fill="#FFE471" transform="translate(377.692889, 663.428200) rotate(-19.000000) translate(-377.692889, -663.428200) "></path>
                        <path d="M427.692955,437.951951 C442.471493,442.12774 468.884816,451.535146 484.218435,459.394468 C494.440848,464.634016 504.700161,479.26045 514.996376,503.273771 C492.398538,496.785358 478.890569,493.541176 474.47247,493.541227 C467.845323,493.541302 444.813431,487.675506 438.738186,487.675575 C432.66294,487.675644 408.503393,487.061188 414.578468,502.03856 C420.653543,517.015931 476.906692,516.855198 490.160656,566.719689 C503.41462,616.584179 490.875308,645.475505 484.216267,649.713282 C477.557226,653.951059 462.128154,668.992798 462.128103,673.414944 C462.128053,677.837089 462.128371,649.923268 462.128489,639.602517 C462.128606,629.281766 439.918797,597.00053 432.276429,590.621279 C424.634061,584.242029 414.431911,576.024875 381.978369,566.157713 C349.524827,556.290551 351.667222,569.500057 349.304157,578.938303 C346.941093,588.376549 357.318116,629.123616 363.433852,642.522113 C369.549587,655.920609 359.54283,649.797668 349.303433,642.522274 C339.064036,635.246879 276.579774,596.897765 257.676755,541.081957 C238.773736,485.266149 271.317834,450.666896 277.496008,437.953662 C283.674181,425.240428 305.239511,412.027779 317.892234,407.585226 C330.544957,403.142673 348.547301,403.142468 372.72497,415.358705 C396.902639,427.574943 412.914416,433.776161 427.692955,437.951951 Z" id="路径-68" fill="#FEE070" transform="translate(383.419342, 539.378645) rotate(5.000000) translate(-383.419342, -539.378645) "></path>
                        <polygon id="路径-8" stroke="#333333" stroke-width="4" fill="#FBFBFB" points="315.112743 350.571429 329.380085 379.44444 259.098819 433.714286 209.481598 409.285714 315.112743 336.428571"></polygon>
                        <mask id="mask-2" fill="white">
                            <use xlink:href="#path-1"></use>
                        </mask>
                        <path stroke="#333333" stroke-width="4" d="M18.874163,-0.812030504 C-11.5971829,67.7734131 -7.9234438,148.066376 30.11979,240.083291 C50.3165235,288.934057 79.3683565,327.461998 101.595405,356.919684 C103.795264,359.835175 105.927843,362.661491 107.977771,365.399879 C112.7802,371.815184 116.168855,376.744919 119.148544,381.079277 C126.187822,391.318852 130.973211,398.280974 146.39904,413.396567 C161.404899,428.100636 177.782643,440.526317 195.531148,450.675092 L292.290851,378.473727 L353.166919,336.192543 C352.738379,322.234343 343.292117,297.694879 324.637344,262.607993 C297.637223,211.824733 229.574367,119.314854 196.840499,84.783487 L196.496328,84.4203847 C181.996688,69.1224842 150.730309,36.1749045 103.977514,17.8730165 C96.142998,14.8061104 73.5255433,7.03275468 58.424718,3.22855076 C51.0782238,1.37781997 38.566183,-0.368614872 20.8847104,-1.99162716 C20.4077078,-2.03541204 19.9343882,-2.07842367 19.4647517,-2.12066245 C19.2660228,-1.69039801 19.0694445,-1.25157345 18.874163,-0.812030504 Z"></path>
                        <path d="M202.077017,86.5868599 C138.422859,103.576662 68.8453793,150.971085 -6.65542283,228.770129 C-82.1562249,306.569173 -43.4114242,385.169606 109.578979,464.571429 L147.283358,425.065911 C177.801633,394.839239 200.63944,374.177635 215.796781,363.0811 C287.510086,310.58052 341.346619,285.1297 362.745008,275.579144 C390.92755,263.000677 352.526962,194.569534 247.543243,70.2857143 L202.077017,86.5868599 Z" id="路径-66" stroke="#333333" stroke-width="4" fill="#FFFFFF" mask="url(#mask-2)"></path>
                        <path d="M-6.26896141,-19.6304235 C35.6552177,10.7535269 64.4083312,34.6242442 79.990379,51.9817285 C185.687094,169.72165 274.253013,295.392743 345.688135,428.995008 C476.535854,673.714286 382.835915,67.6637661 375.120617,54.8571429 C367.405318,42.0505196 200.669156,-95.6263128 188.238953,-102.857143 C179.952152,-107.677696 115.11618,-79.9354564 -6.26896141,-19.6304235 Z" id="路径-9" fill="#EFEFEF" mask="url(#mask-2)"></path>
                        <ellipse id="椭圆形" fill="#333333" mask="url(#mask-2)" cx="315.112743" cy="282" rx="5.14353201" ry="5.14285714"></ellipse>
                        <ellipse id="椭圆形" fill="#333333" mask="url(#mask-2)" cx="188.238953" cy="107.142857" rx="5.14353201" ry="5.14285714"></ellipse>
                        <path d="M380.50374,637.888994 C390.157213,671.263443 377.830934,697.490921 343.524905,716.571429" id="路径-10" stroke="#979797" mask="url(#mask-2)"></path>
                        <path d="M132.9405,115.341142 C144.769593,108.057462 153.272198,102.929105 158.448315,99.9560697 C172.51785,91.8748724 184.162574,85.9898568 193.382485,82.3010228" id="路径-14" stroke="#333333" stroke-width="4" mask="url(#mask-2)"></path>
                        <path d="M279.596095,319.975011 C300.102358,307.270499 319.165804,297.45055 336.78643,290.515163" id="路径-15" stroke="#333333" stroke-width="4" mask="url(#mask-2)"></path>
                    </g>
                    <path d="M302.387982,409.749355 C297.548632,407.289739 294.324801,405.450222 292.716489,404.230803 C286.496448,402.894848 284.366637,405.565474 286.327054,412.242679 C289.26768,422.258488 304.136615,431.446463 311.169437,434.447306 C318.202258,437.448149 322.669823,438.14615 322.669823,442.295012 C322.669823,446.443873 317.386179,447.686567 321.372558,452.637811 C325.358937,457.589054 322.927174,462.621372 321.372558,464.330194 C319.817942,466.039015 311.234439,473.340674 314.718348,477.355183 C318.202258,481.369692 325.185287,489.136242 321.372558,489.136242 C317.559829,489.136242 315.819917,489.489875 309.6065,484.451907 C303.393083,479.413939 300.624194,473.350007 296.670341,473.350007 C292.716489,473.350007 282.455111,474.250588 286.327054,479.692962 C290.198997,485.135336 298.10699,491.07178 298.10699,495.137617 C298.10699,499.203455 296.540606,503.316504 292.716489,498.798042 C291.544116,497.412801 289.966031,495.160047 288.006723,493.732408 C283.575044,490.503291 277.982748,488.163009 276.33739,485.941173 C273.964595,482.737032 272.160258,478.35161 267.869196,479.692962 C263.578135,481.034314 266.898117,487.51809 259.214203,491.821945 C251.530289,496.125801 245.842353,496.721605 245.842353,502.266636 C245.842353,507.811667 246.426773,517.189442 243.298852,523.926678 C240.170932,530.663915 225.469728,538.285638 222.963431,548.641747 C220.457135,558.997856 225.329565,566.360314 222.963431,571.270738 C220.597298,576.181162 212.356783,567.080585 211.283976,563.169654 C210.21117,559.258722 210.039156,556.561478 210.478804,553.232231 C211.116617,548.402361 212.106799,545.484159 214.337165,541.746377 C215.771612,539.342444 220.19322,535.332014 224.687039,530.663915 C227.180483,528.07377 227.180483,528.07377 229.948804,525.538622 C232.717125,523.003475 234.473388,522.433643 235.811576,517.084187 C237.149764,511.734732 237.055852,508.308151 237.055852,504.387054 C237.055852,497.635027 240.775416,486.753911 246.986012,484.451907 C253.196607,482.149903 261.484671,478.310204 261.484671,473.350007 C261.484671,468.389809 261.086846,455.251555 262.745729,446.443873 C264.404611,437.636191 274.816041,403.309463 283.766265,393.666185 C292.716489,384.022906 309.647008,413.438779 302.387982,409.749355 Z" id="路径-65备份" fill="#333333"></path>
                    <g id="人" transform="translate(203.169514, 146.571429)">
                        <g id="编组-2" transform="translate(513.663720, 503.893874) rotate(12.000000) translate(-513.663720, -503.893874) translate(464.663720, 451.893874)">
                            <g id="路径-11">
                                <mask id="mask-4" fill="white">
                                    <use xlink:href="#path-3"></use>
                                </mask>
                                <path stroke="#333333" stroke-width="4" d="M38.3004482,-2.24572505 L-4.32743839,19.5318485 L69.6798935,58.8668515 C75.8265096,46.7938176 79.6763209,38.0522081 81.2587872,32.6524265 C82.483808,28.4723406 83.5055543,25.7272007 84.8138781,25.0150369 L88.1451215,23.2017312 L38.3004482,-2.24572505 Z"></path>
                                <polygon fill="#FFE59C" mask="url(#mask-4)" transform="translate(44.319445, 27.001767) rotate(-85.000000) translate(-44.319445, -27.001767) " points="5.20798536 9.21279688 78.4214123 54.2099875 83.4309054 43.2302783 9.3346792 -0.206453929"></polygon>
                                <polygon id="路径-11备份" fill="#FFE59C" mask="url(#mask-4)" transform="translate(68.817185, 27.937491) rotate(-85.000000) translate(-68.817185, -27.937491) " points="29.7057252 10.1485295 102.919152 55.1456985 107.928645 44.1659945 33.8324191 0.729283211"></polygon>
                            </g>
                            <path d="M87.4378922,15.7094201 L97.2392393,21.441658 C77.3877449,61.991701 67.4619976,82.2667225 67.4619976,82.2667225 C67.4619976,82.2667225 54.2574184,101.739371 48.7969881,103.152819 C43.3365577,104.566267 40.237856,98.9013194 40.237856,95.8940851 C40.237856,92.8868507 47.8309753,74.6334714 44.5979902,67.4427652 C42.4426667,62.648961 38.2819073,57.1809877 32.1157121,51.0388453 C38.6686571,40.8194949 41.9451297,35.7098197 41.9451297,35.7098197 C41.9451297,35.7098197 44.6655032,32.6085359 50.7174783,40.3905959 C56.7694533,48.1726559 57.4146491,52.8129065 61.6431338,48.9089366 C64.4621237,46.30629 68.8385852,36.0078495 74.7725185,18.013615 L79.3640941,10.6940022 L87.4378922,15.7094201 Z" id="路径-45" stroke="#333333" stroke-width="1.8" fill="#333333"></path>
                        </g>
                        <g id="编组-2备份" transform="translate(297.967636, 480.000000)">
                            <g id="路径-11">
                                <mask id="mask-6" fill="white">
                                    <use xlink:href="#path-5"></use>
                                </mask>
                                <path stroke="#333333" stroke-width="4" d="M38.1549519,-2.24903476 L-4.30345178,19.5960549 L69.420891,59.0590307 C75.5457094,46.9437947 79.3818448,38.1720348 80.9584651,32.7539811 C82.1795872,28.5575963 83.1965198,25.8033081 84.5005523,25.0884374 L87.8029272,23.278075 L38.1549519,-2.24903476 Z"></path>
                                <polygon fill="#FFE59C" mask="url(#mask-6)" transform="translate(44.151400, 27.089842) rotate(-85.000000) translate(-44.151400, -27.089842) " points="4.92426144 9.39125347 78.3461432 54.1749426 83.3785382 43.2332736 9.07005139 0.00474155754"></polygon>
                                <polygon id="路径-11备份" fill="#FFE59C" mask="url(#mask-6)" transform="translate(68.556079, 28.028634) rotate(-85.000000) translate(-68.556079, -28.028634) " points="29.3289407 10.330054 102.750822 55.1137214 107.783217 44.1720578 33.4747307 0.94354665"></polygon>
                            </g>
                            <path d="M87.1057385,15.7609258 L96.8698529,21.5119576 C77.0937691,62.1949499 67.2057271,82.536446 67.2057271,82.536446 C67.2057271,82.536446 54.0513087,102.072939 48.6116211,103.491021 C43.1719335,104.909103 40.0850029,99.2255819 40.0850029,96.2084879 C40.0850029,93.1913939 47.649278,74.8781683 44.428574,67.6638862 C42.2814381,62.8543649 38.1364844,57.368464 31.9937129,51.2061836 C38.521765,40.9533276 41.7857911,35.8268996 41.7857911,35.8268996 C41.7857911,35.8268996 44.4958307,32.7154478 50.5248158,40.5230224 C56.553801,48.330597 57.1965458,52.9860614 61.4089677,49.0692918 C64.2172489,46.458112 68.5770854,36.1259065 74.4884772,18.0726753 L79.0626106,10.729064 L87.1057385,15.7609258 Z" id="路径-45" stroke="#333333" stroke-width="1.8" fill="#333333"></path>
                        </g>
                        <path d="M242.930765,313.24954 C214.711215,344.338385 197.307315,364.37778 190.719063,373.367723 C180.836686,386.852638 165.207511,408.351891 170.414564,424.875644 C175.621618,441.399397 224.301265,472.126437 237.360931,480.063984 C250.420597,488.001532 302.182212,517.261073 310.57765,511.925971 C318.973089,506.590868 335.619346,479.990397 335.619346,471.165554 C335.619346,462.34071 261.201243,426.587569 256.384932,413.266317 C253.174058,404.385482 270.501098,384.842381 308.366053,354.637014 C314.710258,349.824016 321.15636,348.359532 327.70436,350.243562 C337.52636,353.069606 362.526853,381.06965 375.061437,392.223113 C387.596021,403.376577 475.722627,474.921393 478.949552,477.246066 C481.100835,478.795848 484.262269,478.795848 488.433853,477.246066 C506.046775,463.853915 514.853236,453.210153 514.853236,445.31478 C514.853236,433.471721 458.869893,382.341661 447.882237,368.11329 C440.557133,358.62771 417.734249,332.771775 379.413584,290.545484 L361.871726,276.857143 L242.930765,313.24954 Z" id="路径-64" stroke="#333333" stroke-width="4" fill="#333333"></path>
                        <path d="M45.033543,222.191057 C40.9647289,219.828597 42.3495533,219.065109 42.349786,213.304628 C42.3500187,207.544147 38.30366,200.583068 38.30366,200.583068 C38.30366,200.583068 33.860747,199.735745 33.8605327,205.0415 C33.8603183,210.347255 32.1275778,214.805521 29.1023792,214.577037 C26.0771806,214.348552 20.0387639,211.562758 18.3357126,211.562827 C17.744644,211.562851 16.0636404,211.132899 14.4207372,211.515084 C12.3362308,211.999998 11.9303151,213.192625 11.9302667,214.390595 C11.9301925,216.225339 12.4242272,218.381553 10.2347828,219.566079 C8.04533851,220.750605 8.03627502,221.264338 8.41416864,222.913655 C9.11384647,225.967399 10.0224318,225.318549 9.41604473,227.286343 C9.09532896,228.327102 7.62288516,228.402782 7.17853074,230.997183 C6.73417633,233.591585 9.8008464,233.775641 10.1195551,235.166645 C10.4382638,236.557649 9.38011627,237.496268 9.41928677,239.342018 C9.45086128,240.829838 10.8065113,241.735332 13.0271133,243.046852 C15.2477153,244.358373 17.4252289,246.571785 19.7273325,247.134445 C22.0294362,247.697105 25.3075157,248.50292 28.3177452,247.802657 C31.3279746,247.102394 30.1317195,246.3783 33.5617873,245.996988 C35.8484992,245.742781 39.529316,247.617878 44.6042377,251.622279 L53.2315753,248.651649 L58.5693368,228.591078 C52.2580169,225.899371 47.7460856,223.766031 45.033543,222.191057 Z" id="路径-67" stroke="#333333" stroke-width="4" fill="#FFFFFF" transform="translate(32.851976, 226.077846) rotate(19.000000) translate(-32.851976, -226.077846) "></path>
                        <path d="M236.31365,56.3184145 C236.31365,56.3184145 243.955455,52.6815461 245.772868,54.0639871 C247.567639,55.4292051 248.16831,57.4170795 247.256512,61.8774731 C246.344715,66.3378666 244.149707,68.8466049 242.888404,69.4749484 C238.016606,71.9019333 234.560011,70.6742328 232.518619,65.791847 C235.04864,59.4762253 236.31365,56.3184145 236.31365,56.3184145 Z" id="路径-48" stroke="#333333" stroke-width="4" fill="#FFFFFF" transform="translate(240.098277, 62.217082) rotate(-27.000000) translate(-240.098277, -62.217082) "></path>
                        <path d="M240.6476,115.450766 C252.646862,111.940874 262.535565,109.667688 270.313709,108.631207 C277.160116,107.718885 286.895936,106.750877 296.040039,107.492208 C305.184142,108.23354 314.457765,111.606883 319.394318,115.450766 C322.397094,117.788899 330.604434,123.765271 339.310442,136.285714 C347.518675,148.090287 354.30476,167.324234 354.30476,177.860755 C354.30476,199.572766 349.310973,208.285714 345.111446,214.988379 C342.311761,219.456822 347.206381,233.62179 359.795307,257.483282 L369.471136,273.209071 C348.492125,288.943228 328.401166,301.311547 309.198261,310.314028 C289.995355,319.316509 265.523032,322.517901 235.781293,319.918203 C218.1359,273.52391 206.134181,245.756924 199.776134,236.617243 C195.994406,231.181016 191.99012,243.489689 186.573945,250.326764 C178.331169,260.73198 167.940848,270.072252 158.929542,276.329436 C150.486536,282.192009 133.589756,288.537058 119.429975,290.63757 C104.963971,292.783508 91.259441,290.315839 80.7133409,286.488024 C66.8007046,281.43829 51.7787589,270.038401 35.6475038,252.288357 L51.4894676,227.649178 C61.6570264,240.035689 73.2876451,247.594884 86.3813235,250.326764 C106.021841,254.424583 142.912087,235.186087 150.486536,220.302472 C158.060986,205.418856 158.240053,181.699967 161.08365,170.296853 C163.927247,158.893738 167.735476,154.073276 176.248548,146.472341 C181.923929,141.405051 192.021596,135.562209 206.541547,128.943814 C218.226636,130.625909 226.195076,130.625909 230.446868,128.943814 C234.698661,127.261718 238.098904,122.764036 240.6476,115.450766 Z" id="路径-63" stroke="#333333" stroke-width="4" fill="#57B77D"></path>
                        <path d="M202.812294,134.677601 L261.279042,223.820458 L255.707397,109.714286 L240.531529,111.534744 C241.096831,115.334994 240.666653,118.882326 239.240995,122.17674 C237.815337,125.471154 233.391189,130.588207 225.968553,137.527899 L202.812294,134.677601 Z" id="路径-7" fill="#FFFFFF"></path>
                        <polygon id="路径-40" stroke="#333333" stroke-width="4" fill="#FFFFFF" stroke-linejoin="round" transform="translate(263.742276, 167.370086) rotate(-17.000000) translate(-263.742276, -167.370086) " points="273.265038 111.672882 282.46294 142.591108 266.045267 138.266733 278.673105 156.501693 245.021612 223.070445 262.512642 111.669727"></polygon>
                        <polygon id="路径-40" stroke="#333333" stroke-width="4" fill="#FFFFFF" stroke-linejoin="round" transform="translate(224.492110, 181.632298) scale(-1, 1) rotate(22.000000) translate(-224.492110, -181.632298) " points="234.175727 126.812282 243.237867 157.777601 227.02918 153.456535 239.486501 171.71456 205.746354 236.452315 223.558347 126.816152"></polygon>
                        <polygon id="路径-52" stroke="#333333" stroke-width="4" fill="#FFFFFF" transform="translate(44.737724, 243.112858) rotate(82.000000) translate(-44.737724, -243.112858) " points="26.7449956 233.424608 51.7930888 259.816009 62.7304532 250.378461 35.6647994 226.409706"></polygon>
                        <path d="M345.468586,214.01055 C333.518119,226.501283 317.635428,229.945049 297.820515,224.341847 C268.098144,215.937045 251.734297,172.308182 249.198372,153.592138 C247.507755,141.114775 247.507755,132.111364 249.198372,126.581904 C265.835202,123.823234 274.153617,122.443899 274.153617,122.443899 C274.153617,122.443899 274.153617,127.953961 274.153617,136.285714 C274.153617,140.044046 276.024953,154.089921 280.393902,163.831891 C285.597017,175.433901 292.740983,183.116197 297.967636,186.526102 C307.583003,192.799234 313.533629,191.419832 315.180441,186.526102 C316.827254,181.632371 315.882612,178.772329 312.13371,172.134851 C308.384808,165.497374 296.662824,154.660382 291.777181,146.448869 C286.891538,138.237357 285.037399,132.480815 285.037399,125.279665 C285.037399,118.078515 286.439697,116.074296 289.300837,113.142857 C291.208264,111.188565 297.273834,110.045708 307.497549,109.714286" id="路径-2" stroke="#333333" stroke-width="4" fill="#57B77D" stroke-linecap="round" stroke-linejoin="round"></path>
                        <path d="M249.203576,114.519271 C248.614695,109.399259 248.320255,105.691511 248.320255,103.396027 C248.320255,99.9528009 248.60076,98.28856 249.203576,95.2152652 C250.265073,89.8035034 252.492892,88.1092059 253.619138,88.1092059 C255.401546,88.1092059 257.16554,88.8651663 257.16554,91.5867271 C257.16554,94.3082879 258.801024,86.7319879 261.079311,86.2987367 C263.357598,85.8654855 264.921624,88.5895504 264.921624,91.5867271 C264.921624,94.5839038 267.859981,86.2987367 270.343308,86.2987367 C272.826634,86.2987367 273.287545,88.448817 272.369548,91.5867271 C271.451551,94.7246373 275.336464,87.6616896 278.042961,89.404028 C280.749459,91.1463664 276.878489,95.4369627 276.09413,97.254468 C275.309771,99.0719733 281.947636,94.1822317 284.021985,96.6523049 C284.527677,97.254468 284.527677,99.1440748 283.02182,100.764248 C281.02708,102.910419 276.746349,105.818865 275.285166,110.303741 C273.575666,115.550787 273.243091,118.962501 274.28744,120.538884 L250.077564,120.538884 L249.203576,114.519271 Z" id="路径-13" stroke="#333333" stroke-width="4" fill="#FFFFFF"></path>
                        <polygon id="路径-52" stroke="#333333" stroke-width="4" fill="#FFFFFF" transform="translate(259.564620, 119.193270) rotate(134.000000) translate(-259.564620, -119.193270) " points="242.246841 110.677332 264.79423 135.530927 276.882398 124.785071 253.417897 102.855613"></polygon>
                        <line x1="262.820168" y1="225.428571" x2="305.466308" y2="311.357143" id="路径-3" stroke="#333333" stroke-width="4"></line>
                        <path d="M232.138337,90 C235.41175,101.833382 238.312882,110.14729 240.841733,114.941725 C244.63501,122.133377 227.508656,136.285714 226.094284,136.285714 C225.15137,136.285714 219.885391,135.57479 210.296345,134.15294 L206.393343,128.521107 L197.668762,105.79891 L232.138337,90 Z" id="路径-4" stroke="#333333" stroke-width="4" fill="#FFFFFF"></path>
                        <path d="M158.235017,69.408539 C163.21374,84.9167358 168.343588,96.0811154 173.62456,102.901678 C181.546019,113.132522 190.796396,123.428571 209.805578,123.428571 C228.81476,123.428571 237.959763,95.5574674 237.959763,88.2468779 C237.959763,83.3731516 237.144278,77.0628023 235.513309,69.3158302 C232.903013,61.4909594 230.748783,55.9054592 229.050617,52.5593294 C227.127177,48.7693106 224.117872,49.1557907 217.960895,45.2371273 C212.739755,41.9140855 211.289234,40.2857143 203.581545,40.2857143 C195.873856,40.2857143 184.353385,43.2017688 176.912797,48.3594516 C171.952405,51.7979069 165.726478,58.8142693 158.235017,69.408539 Z" id="路径-5" stroke="#333333" stroke-width="4" fill="#FFFFFF"></path>
                        <path d="M158.235017,73.2016065 C158.235017,73.2016065 143.892287,68.0224791 141.291459,57.082598 C138.690632,46.1427168 144.593036,34.5453796 154.805995,31.3499268 C165.018955,28.1544741 162.998849,19.0606098 168.400074,11.1726363 C173.801299,3.28466289 189.035735,-3.71552667 206.077339,4.31117444 C214.385241,8.22424756 213.779723,14.1168867 218.183757,15.2209749 C222.778894,16.3729726 229.50012,16.3729726 234.440298,22.5587853 C239.380477,28.744598 240.492149,33.1042159 239.553035,45.9667613 C238.61392,58.8293066 237.114294,54.95526 236.551473,62.2170126 C235.847163,71.3043086 238.486179,72.8571429 236.551473,72.8571429 C235.252097,72.8571429 228.292876,57.082598 223.991247,57.082598 C216.769734,57.082598 217.960895,45.2371273 211.740916,45.9667613 C207.547622,46.4586552 200.115865,54.5293686 192.185147,62.2170126 C186.898002,67.3421086 181.202778,70.8888187 175.099477,72.8571429 C171.01922,73.9844069 168.263949,74.5480389 166.833662,74.5480389 C160.586395,74.5480389 158.235017,73.2016065 158.235017,73.2016065 Z" id="路径-6" fill="#333333"></path>
                        <path d="M197.876805,105.5697 C196.520113,103.319171 202.119937,106.00985 205.371385,104.155894 C207.830728,102.753591 209.93519,100.784487 211.185851,98.099127 C212.870781,94.4813279 213.569244,99.5379711 212.767399,103.426749 C211.965554,107.315526 210.039361,108.200666 207.320981,109.306092 C204.602602,110.411518 200.129225,109.306092 197.876805,105.5697 Z" id="路径-22" stroke="#333333" stroke-width="3" fill="#FFFFFF"></path>
                        <ellipse id="椭圆形" fill="#333333" cx="208.813081" cy="71.1428571" rx="3.42902134" ry="3.42857143"></ellipse>
                        <ellipse id="椭圆形备份-3" fill="#333333" cx="179.6664" cy="84.8571429" rx="3.42902134" ry="3.42857143"></ellipse>
                        <path d="M195.096996,82.2857143 C196.063012,89.4572196 196.54602,93.5265732 196.54602,94.4937749 C196.54602,95.9445776 202.680433,94.934089 203.669549,91.7552132" id="路径-23" stroke="#333333" stroke-width="4" stroke-linecap="round" stroke-linejoin="round"></path>
                        <polygon id="路径-16" fill="#333333" points="225.458153 137.563419 225.458153 144.670407 230.364524 147.789484 234.433044 145.585828 234.433044 138.564789 229.039912 135.428571"></polygon>
                        <polygon id="路径-17" fill="#333333" points="229.74443 146.710614 238.327502 185.308646 258.944438 221.193105 260.658949 219.682482 255.0251 176.336892 232.983734 144"></polygon>
                        <line x1="226.094284" y1="136.285714" x2="218.208485" y2="152.097943" id="路径-18" stroke="#333333" stroke-width="4"></line>
                        <polyline id="路径-19" stroke="#333333" stroke-width="4" points="229.945598 135.172064 246.407346 137.787052 247.746792 137.787052"></polyline>
                    </g>
                    <g id="猫" transform="translate(281.536970, 340.285714)">
                        <path d="M66.7867334,38.0540366 C70.254585,37.6137355 73.2291166,39.392985 75.7103282,43.3917851 C79.4321455,49.3899854 74.6927467,55.7435177 74.6927467,55.7435177 C74.6927467,55.7435177 69.0804618,59.6210745 69.0804618,55.7435177 C69.0804618,51.8659608 68.3418658,43.3924563 61.9180781,46.8099207 C55.4942904,50.2273851 58.2485347,50.6778752 52.2430731,54.0523851 C46.2376114,57.4268951 47.9463399,58.3416371 47.9463399,62.137051 C47.9463399,65.9324649 47.9463399,65.0308377 47.9463399,68.6373464 C47.9463399,71.4375432 45.8002753,74.8455083 44.3106772,74.4231331 C42.5015426,73.9101534 41.3732958,69.246585 41.3732958,67.1650539 C41.3732958,63.36964 40.4865,61.5837935 36.9255364,59.6210745 C33.3645727,57.6583556 31.2192912,60.2522024 27.9097739,58.5595938 C25.7034289,57.4311881 22.9720252,57.4311881 19.7155626,58.5595938 C14.0528267,60.1327684 9.43065186,60.1327684 5.84903801,58.5595938 C4.27138095,57.8666297 0.607115618,56.9361525 0.114587941,55.7435177 C-0.84650352,53.4162757 4.38482612,49.8255715 10.3075693,43.3917851 C19.265523,33.6608955 23.2227899,23.1418417 23.2227899,19.401629 C23.2227899,16.9081539 23.9160227,11.7726206 25.3024883,3.9950291 C25.9059685,0.882402828 27.120262,-0.411380189 28.9453688,0.113680049 C31.6830291,0.901270405 32.2174918,8.07622316 35.1641519,10.4944922 C38.1108119,12.9127613 41.0130465,11.9697217 43.3919516,11.9697217 C46.8052437,11.9697217 48.9879859,10.4944922 50.0615773,10.4944922 C52.7943287,10.4944922 53.8709293,2.12158451 55.4942904,1.00527821 C57.1176515,-0.111028091 59.4373166,1.31477656 59.4373166,2.83244045 C59.4373166,4.35010433 60.0635036,9.76727895 61.9180781,13.505297 C63.7726526,17.2433151 65.5689961,19.0289827 66.7867334,22.7771011 C68.0044707,26.5252195 68.240308,30.321253 64.3323075,37.3935849 C64.1660523,37.6944579 63.9670168,37.9126623 63.7726526,38.0540366 C62.5362696,38.9533422 63.5409632,38.9533422 66.7867334,38.0540366 Z" id="路径-65" fill="#333333"></path>
                        <path d="M49.3635891,27.1883582 C52.2542891,29.4740725 54.8260551,29.4740725 57.0788871,27.1883582" id="路径-76备份" stroke="#FFFFFF" stroke-width="3" stroke-linecap="round" stroke-linejoin="round"></path>
                        <path d="M31.3612271,26.5714286 C34.2519271,28.8571429 36.8236931,28.8571429 39.0765251,26.5714286" id="路径-76备份-3" stroke="#FFFFFF" stroke-width="3" stroke-linecap="round" stroke-linejoin="round"></path>
                        <path d="M31.3612271,47.1428571 C42.1834813,48.7756093 47.5946083,52.1652039 47.5946083,57.311641" id="路径-76" stroke="#FFFFFF" stroke-width="2" stroke-linecap="round" stroke-linejoin="round"></path>
                    </g>
                </g>
            </g>
        </g>
    </g>
</svg>