<svg width="177" height="36" viewBox="0 0 177 36" fill="none" xmlns="http://www.w3.org/2000/svg">
<path d="M20.1851 29.8111C20.1851 29.1908 19.7493 28.6725 19.1681 28.5473L19.1681 20.8052C19.3901 20.8677 19.5954 21.0027 19.7453 21.2103L25.9177 29.7593C26.8799 31.0919 27.1444 32.809 26.5681 34.0599L20.1665 30.0311C20.1787 29.9596 20.1851 29.8861 20.1851 29.8111Z" fill="#F2383D"/>
<path d="M30.8609 20.4857C30.2726 20.294 29.6465 20.5494 29.3482 21.0652L22.0065 18.6727C22.1343 18.4803 22.3258 18.3262 22.569 18.2474L32.5833 15.0016C34.1442 14.4957 35.8543 14.774 36.8624 15.7103L31.0637 20.5714C30.9997 20.5376 30.932 20.5088 30.8609 20.4857Z" fill="#F2383D"/>
<path d="M24.9644 7.63129C24.6009 8.13317 24.6496 8.80934 25.0465 9.25326L20.5091 15.5167C20.3661 15.3353 20.2791 15.105 20.2795 14.8488L20.2962 4.29377C20.2989 2.64853 21.0912 1.10337 22.2906 0.431152L25.1084 7.46431C25.0566 7.51494 25.0084 7.57064 24.9644 7.63129Z" fill="#F2383D"/>
<path d="M3.44922 9.78683C3.81398 11.0345 4.97918 12.1434 6.44075 12.618L16.4718 15.8753C16.6922 15.9469 16.9144 15.9433 17.1149 15.8817L12.5731 9.61213C12.0502 9.79499 11.4486 9.62334 11.1063 9.15089C11.0415 9.0614 10.9898 8.96638 10.9508 8.86811L3.44922 9.78683Z" fill="#F2383D"/>
<path d="M5.94815 30.4446C7.24404 30.4822 8.65561 29.7135 9.55732 28.466L15.7459 19.9047C15.8819 19.7165 15.9472 19.5035 15.9508 19.2932L8.60192 21.6879C8.61375 22.2432 8.26506 22.764 7.71128 22.9444C7.60639 22.9786 7.5003 22.9986 7.39507 23.0054L5.94815 30.4446Z" fill="#F2383D"/>
<path d="M11.0041 33.8443C10.5673 32.6187 10.8605 31.0331 11.7662 29.7863L17.9817 21.2291C18.1183 21.041 18.3003 20.9128 18.499 20.8443L18.499 28.6018C17.968 28.7623 17.5813 29.2563 17.5813 29.8409C17.5813 29.9516 17.5952 30.0591 17.6213 30.1616L11.0041 33.8443Z" fill="#F2383D"/>
<path d="M31.8228 30.475C30.5249 30.5126 29.1113 29.7431 28.2082 28.4944L22.0103 19.9244C21.8741 19.736 21.8087 19.5228 21.8051 19.3123L29.165 21.7095C29.1532 22.2652 29.5024 22.7866 30.057 22.9672C30.162 23.0014 30.2683 23.0214 30.3737 23.0282L31.8228 30.475Z" fill="#F2383D"/>
<path d="M34.7066 9.7963C34.3413 11.0453 33.1744 12.1552 31.7106 12.6303L21.6646 15.8909C21.4438 15.9626 21.2213 15.959 21.0205 15.8974L25.5691 9.62143C26.0928 9.80447 26.6953 9.63264 27.0381 9.15972C27.103 9.07014 27.1548 8.97502 27.1938 8.87665L34.7066 9.7963Z" fill="#F2383D"/>
<path d="M13.1592 7.63858C13.5234 8.14097 13.4745 8.81782 13.077 9.26219L17.6213 15.532C17.7645 15.3504 17.8516 15.1199 17.8511 14.8633L17.8344 4.29768C17.8318 2.65078 17.0383 1.10405 15.8371 0.431152L13.0151 7.47143C13.067 7.52211 13.1152 7.57786 13.1592 7.63858Z" fill="#F2383D"/>
<path d="M6.87278 20.506C7.46194 20.3141 8.089 20.5698 8.38776 21.0861L15.7404 18.6912C15.6124 18.4985 15.4206 18.3443 15.1771 18.2654L5.14784 15.0164C3.58455 14.5099 1.87189 14.7885 0.862305 15.7257L6.66966 20.5917C6.73376 20.558 6.80158 20.5292 6.87278 20.506Z" fill="#F2383D"/>
<path d="M26.258 34.6577L19.9268 30.6607C19.6907 30.9531 19.3304 31.1399 18.9268 31.1399C18.5575 31.1399 18.2245 30.9835 17.9896 30.7328L11.3582 34.4383C11.7073 34.9933 12.2515 35.4237 13.0065 35.6363C14.4161 36.0332 15.9454 36.1094 17.4112 35.8444C18.3807 35.6691 19.3828 35.6691 20.3523 35.8444C21.8221 36.1101 23.3557 36.0328 24.7684 35.6331C25.4176 35.4494 25.9109 35.1045 26.258 34.6577Z" fill="#F2383D"/>
<path d="M37.2603 16.1438L31.5264 20.9681C31.7298 21.2845 31.795 21.687 31.6703 22.0733C31.5562 22.4268 31.3054 22.6972 30.996 22.8445L32.4486 30.3364C33.0811 30.1737 33.656 29.7859 34.0902 29.129C34.9009 27.9026 35.4455 26.4625 35.648 24.9776C35.7819 23.9955 36.0916 23.0365 36.5568 22.1628C37.2622 20.8381 37.663 19.3465 37.7218 17.8709C37.7488 17.1927 37.5752 16.6141 37.2603 16.1438Z" fill="#F2383D"/>
<path d="M22.8113 0.103473L25.5987 7.08211C25.9606 6.98522 26.3611 7.04715 26.6877 7.28588C26.9865 7.50435 27.1645 7.8279 27.2081 8.16958L34.7373 9.0944C34.7791 8.43883 34.5902 7.7687 34.1036 7.15016C33.195 5.99526 32.0023 5.02903 30.6616 4.37637C29.7749 3.94471 28.9642 3.352 28.2823 2.63672C27.2483 1.5523 25.9625 0.707743 24.5861 0.195451C23.9536 -0.0399674 23.3531 -0.0526386 22.8113 0.103473Z" fill="#F2383D"/>
<path d="M15.2936 0.103473L12.5061 7.08211C12.1443 6.98522 11.7438 7.04715 11.4172 7.28588C11.1184 7.50435 10.9404 7.82791 10.8968 8.16958L3.36757 9.09441C3.32581 8.43883 3.5147 7.7687 4.00131 7.15016C4.90988 5.99526 6.10258 5.02903 7.44331 4.37637C8.33003 3.94471 9.14069 3.352 9.82265 2.63672C10.8565 1.5523 12.1424 0.707743 13.5188 0.195452C14.1513 -0.0399673 14.7518 -0.0526386 15.2936 0.103473Z" fill="#F2383D"/>
<path d="M0.464275 16.1438L6.19818 20.9681C5.99479 21.2845 5.92954 21.687 6.05426 22.0733C6.16839 22.4268 6.41916 22.6972 6.7286 22.8445L5.27596 30.3364C4.64349 30.1737 4.06854 29.7859 3.63435 29.129C2.82365 27.9026 2.27907 26.4625 2.07656 24.9776C1.94263 23.9955 1.63299 23.0365 1.16774 22.1628C0.462384 20.8381 0.0615654 19.3465 0.00274961 17.8709C-0.0242784 17.1927 0.149306 16.6141 0.464275 16.1438Z" fill="#F2383D"/>
<path fill-rule="evenodd" clip-rule="evenodd" d="M111.418 12.8389C110.134 14.1936 110.114 15.5067 110.114 18.8623C110.114 22.2179 110.134 23.531 111.418 24.8857C112.346 25.8653 113.61 26.4072 114.934 26.4072C116.257 26.4072 117.522 25.8653 118.45 24.8857C119.734 23.531 119.754 22.2179 119.754 18.8623C119.754 15.5067 119.734 14.1936 118.45 12.8389C117.522 11.8593 116.257 11.3174 114.934 11.3174C113.61 11.3174 112.346 11.8593 111.418 12.8389ZM118.401 18.8623C118.401 15.3756 118.318 14.6021 117.435 13.6701C116.749 12.9469 115.848 12.5749 114.934 12.5749C114.019 12.5749 113.118 12.9469 112.433 13.6701C111.55 14.6021 111.467 15.3756 111.467 18.8623C111.467 22.349 111.55 23.1225 112.433 24.0545C113.118 24.7777 114.019 25.1497 114.934 25.1497C115.848 25.1497 116.749 24.7777 117.435 24.0545C118.318 23.1225 118.401 22.349 118.401 18.8623Z" fill="#F2383D"/>
<path fill-rule="evenodd" clip-rule="evenodd" d="M128.974 11.915C128.974 11.5849 129.25 11.3174 129.591 11.3174H138.836C139.177 11.3174 139.453 11.5849 139.453 11.915C139.453 12.2451 139.177 12.5126 138.836 12.5126H134.83V25.8096C134.83 26.1397 134.554 26.4072 134.213 26.4072C133.873 26.4072 133.597 26.1397 133.597 25.8096V12.5126H129.591C129.25 12.5126 128.974 12.2451 128.974 11.915Z" fill="#F2383D"/>
<path fill-rule="evenodd" clip-rule="evenodd" d="M151.451 11.8773C151.692 11.1308 152.78 11.1307 153.02 11.8773L157.447 25.6301C157.548 25.9456 157.367 26.2812 157.042 26.3798C156.717 26.4784 156.372 26.3026 156.27 25.9871L155.039 22.1637H149.432L148.201 25.9871C148.1 26.3026 147.754 26.4784 147.429 26.3798C147.104 26.2812 146.923 25.9456 147.025 25.6301L151.451 11.8773ZM149.817 20.9669H154.654L152.236 13.4528L149.817 20.9669Z" fill="#F2383D"/>
<path fill-rule="evenodd" clip-rule="evenodd" d="M48.5029 11.3174H58.3646C58.705 11.3174 58.981 11.596 58.981 11.9396C58.981 12.2833 58.705 12.5619 58.3646 12.5619H49.7356V18.3829H56.995C57.3354 18.3829 57.6113 18.6615 57.6113 19.0052C57.6113 19.3489 57.3354 19.6275 56.995 19.6275H49.7356V25.785C49.7356 26.1286 49.4597 26.4072 49.1193 26.4072C48.7789 26.4072 48.5029 26.1286 48.5029 25.785V11.3174Z" fill="#F2383D"/>
<path fill-rule="evenodd" clip-rule="evenodd" d="M91.7799 12.2727C92.626 11.6175 93.6997 11.3174 94.946 11.3174C96.2203 11.3174 97.3105 11.7045 98.1598 12.5155C99.007 13.3181 99.4273 14.3447 99.4273 15.5468C99.4273 15.8869 99.1513 16.1627 98.8109 16.1627C98.4705 16.1627 98.1946 15.8869 98.1946 15.5468C98.1946 14.6607 97.8978 13.9642 97.3109 13.4087L97.3088 13.4067C96.7235 12.8474 95.9548 12.5492 94.946 12.5492C93.8968 12.5492 93.1114 12.7999 92.5347 13.2466L92.534 13.2472C91.966 13.6856 91.7153 14.1972 91.7153 14.8164C91.7153 15.4829 91.9495 15.9817 92.4171 16.3709C92.9314 16.799 93.8459 17.2254 95.2368 17.6155C96.6816 18.0141 97.8118 18.4956 98.5652 19.0901C99.557 19.8722 100.055 20.9379 100.055 22.2259C100.055 23.0451 99.8374 23.7923 99.3923 24.4463L99.3914 24.4477L99.3904 24.4491C98.9456 25.095 98.3221 25.5802 97.5492 25.9145C96.7801 26.2471 95.9299 26.4072 95.0088 26.4072C93.9908 26.4072 93.0551 26.2274 92.2126 25.8548L92.2106 25.8539L92.2086 25.853C91.3583 25.4697 90.6887 24.9126 90.2333 24.1728L90.2321 24.1709L90.231 24.1691C89.7871 23.4366 89.5769 22.5888 89.5769 21.6493C89.5769 21.3091 89.8529 21.0334 90.1933 21.0334C90.5337 21.0334 90.8096 21.3091 90.8096 21.6493C90.8096 22.4003 90.9757 23.0191 91.2843 23.5291C91.5938 24.0309 92.0591 24.4339 92.7135 24.7292C93.377 25.0223 94.1384 25.1754 95.0088 25.1754C95.7855 25.1754 96.4657 25.0408 97.0596 24.784C97.6491 24.5291 98.0775 24.1819 98.3739 23.7521C98.6695 23.3173 98.8223 22.8156 98.8223 22.2259C98.8223 21.2972 98.4834 20.5947 97.8014 20.057L97.8012 20.0568C97.2396 19.6136 96.2959 19.1855 94.9075 18.8025L94.905 18.8018C93.463 18.3975 92.3452 17.9143 91.6281 17.3174C90.8642 16.6815 90.4826 15.8284 90.4826 14.8164C90.4826 13.7828 90.9372 12.9234 91.7799 12.2727Z" fill="#F2383D"/>
<path fill-rule="evenodd" clip-rule="evenodd" d="M69.6563 11.3174C69.9967 11.3174 70.2726 11.5849 70.2726 11.915V21.2232C70.2726 22.428 70.699 23.4196 71.3924 24.1074C72.0849 24.7942 73.0776 25.212 74.279 25.212C75.4803 25.212 76.473 24.7942 77.1655 24.1074C77.859 23.4196 78.2853 22.428 78.2853 21.2232V11.915C78.2853 11.5849 78.5612 11.3174 78.9016 11.3174C79.242 11.3174 79.518 11.5849 79.518 11.915V21.2232C79.518 22.7084 78.9876 24.01 78.047 24.9429C77.1055 25.8767 75.7868 26.4072 74.279 26.4072C72.7711 26.4072 71.4524 25.8767 70.5109 24.9429C69.5703 24.01 69.0399 22.7084 69.0399 21.2232V11.915C69.0399 11.5849 69.3159 11.3174 69.6563 11.3174Z" fill="#F2383D"/>
<path fill-rule="evenodd" clip-rule="evenodd" d="M167.999 12.8389C166.715 14.1936 166.695 15.5067 166.695 18.8623C166.695 22.2179 166.715 23.531 167.999 24.8857C168.928 25.8653 170.192 26.4072 171.515 26.4072C172.839 26.4072 174.103 25.8653 175.032 24.8857C176.316 23.531 176.335 22.2179 176.335 18.8623C176.335 15.5067 176.316 14.1936 175.032 12.8389C174.103 11.8593 172.839 11.3174 171.515 11.3174C170.192 11.3174 168.928 11.8593 167.999 12.8389ZM174.899 15.3188C174.774 14.6268 174.554 14.1844 174.089 13.6939C173.399 12.9656 172.474 12.5749 171.515 12.5749C170.557 12.5749 169.632 12.9656 168.942 13.6939C168.477 14.1844 168.256 14.6268 168.132 15.3188C167.99 16.1028 167.981 17.1428 167.981 18.8623C167.981 20.5818 167.99 21.6218 168.132 22.4058C168.256 23.0978 168.477 23.5402 168.942 24.0307C169.632 24.759 170.557 25.1497 171.515 25.1497C172.474 25.1497 173.399 24.759 174.089 24.0307C174.554 23.5402 174.774 23.0978 174.899 22.4058C175.041 21.6218 175.05 20.5818 175.05 18.8623C175.05 17.1428 175.041 16.1028 174.899 15.3188Z" fill="#F2383D"/>
</svg>
