<svg width="64" height="64" viewBox="0 0 64 64" fill="none" xmlns="http://www.w3.org/2000/svg">
    <circle cx="32" cy="32" r="32" fill="white"/>
    <path d="M19.629 48.6768C23.0629 45.6909 27.3836 44.0386 31.8121 44.022C31.8369 44.022 31.8646 44.022 31.8894 44.022C35.9007 44.022 39.6855 45.203 42.7713 47.3849L38.6965 40.5509C36.9477 40.0491 35.1189 39.7941 33.2542 39.7941C33.2293 39.7941 33.2044 39.7941 33.1768 39.7941C29.9694 39.8052 26.8532 40.5787 24.1625 42.0286C24.0464 42.0924 23.9111 42.0896 23.7978 42.0314C23.7591 42.012 23.7259 41.987 23.6956 41.9538C23.574 41.8262 23.5519 41.6349 23.6403 41.4825L31.3783 28.2582L29.1572 24.5293L22.1457 36.5199L15.1426 48.6768H19.629Z" fill="#C4C4C4"/>
    <path d="M13.3178 46.6234L14.4421 48.3256L21.4702 36.1271L28.8159 23.5598C28.885 23.4406 29.0148 23.3658 29.1529 23.3658C29.1529 23.3658 29.1529 23.3658 29.1557 23.3658C29.2938 23.3658 29.4209 23.4379 29.4928 23.5571L32.1669 28.0511C32.1669 28.0539 32.1697 28.0539 32.1697 28.0567L36.2998 34.996C36.3164 35.0264 36.3302 35.0569 36.3384 35.0874C36.3412 35.0958 36.344 35.1041 36.344 35.1124C36.3495 35.1401 36.3523 35.1651 36.3523 35.1928C36.3523 35.1983 36.3523 35.2039 36.3523 35.2122C36.3523 35.2455 36.3467 35.276 36.3357 35.3065C36.3329 35.3148 36.3302 35.3203 36.3274 35.3286C36.3191 35.3536 36.3081 35.3785 36.2915 35.4035C36.2887 35.4063 36.2887 35.4118 36.286 35.4174C36.286 35.4201 36.2832 35.4201 36.2804 35.4229C36.2611 35.4506 36.239 35.4756 36.2141 35.4978C36.2114 35.5005 36.2058 35.5033 36.2031 35.5061C36.1893 35.5172 36.1755 35.5283 36.1589 35.5393C36.1506 35.5449 36.1395 35.5477 36.1285 35.5532C36.123 35.556 36.1175 35.5587 36.1092 35.5615C36.0456 35.5892 35.9821 35.5976 35.9158 35.592C35.9103 35.592 35.9075 35.592 35.9047 35.592C34.9627 35.4645 33.993 35.409 33.0261 35.4063C31.1973 35.4146 29.3988 35.653 27.6833 36.1215L24.9704 40.7597C27.4871 39.6286 30.2939 39.027 33.167 39.0159C33.1946 39.0159 33.2195 39.0159 33.2471 39.0159C35.2389 39.0159 37.1921 39.2959 39.0569 39.8476C39.1508 39.8754 39.2309 39.9391 39.2834 40.0223L44.4495 48.686H49.1541L35.8274 26.3655L29.2828 15.4062L12 44.8047L13.3178 46.6234Z" fill="#C4C4C4"/>
    <path d="M29.9746 15.0166L49.8487 48.3019L52.0008 44.6618L34.2262 15L29.9746 15.0166Z" fill="#C4C4C4"/>
</svg>
