<svg width="64" height="64" viewBox="0 0 64 64" fill="none" xmlns="http://www.w3.org/2000/svg">
    <circle cx="32" cy="32" r="32" fill="white" fill-opacity="0.1"/>
    <path d="M17.1551 52.0448C21.2757 48.4618 26.4604 46.479 31.7745 46.4591C31.8043 46.4591 31.8374 46.4591 31.8673 46.4591C36.6807 46.4591 41.2223 47.8763 44.9253 50.4945L40.0356 42.2939C37.9371 41.6918 35.7426 41.3857 33.5049 41.3857C33.4751 41.3857 33.4453 41.3857 33.4121 41.3857C29.5633 41.399 25.824 42.3272 22.5951 44.0671C22.4559 44.1436 22.2935 44.1403 22.1575 44.0704C22.1111 44.0472 22.0713 44.0172 22.0349 43.9773C21.889 43.8243 21.8625 43.5947 21.9686 43.4117L31.254 27.5429L28.5887 23.0684L20.1751 37.4568L11.7715 52.0448H17.1551Z" fill="white" fill-opacity="0.2"/>
    <path d="M9.58128 49.5809L10.9305 51.6235L19.364 36.9856L28.1787 21.9052C28.2616 21.7622 28.4174 21.6723 28.5831 21.6723C28.5831 21.6723 28.5831 21.6723 28.5864 21.6723C28.7522 21.6723 28.9047 21.7588 28.9909 21.9019L32.1998 27.2946C32.1998 27.298 32.2031 27.298 32.2031 27.3013L37.1592 35.6283C37.1791 35.6649 37.1956 35.7014 37.2055 35.738C37.2089 35.748 37.2122 35.758 37.2122 35.768C37.2188 35.8013 37.2221 35.8312 37.2221 35.8645C37.2221 35.8711 37.2221 35.8778 37.2221 35.8877C37.2221 35.9277 37.2155 35.9643 37.2022 36.0009C37.1989 36.0108 37.1956 36.0175 37.1923 36.0275C37.1824 36.0574 37.1691 36.0874 37.1492 36.1173C37.1459 36.1206 37.1459 36.1273 37.1426 36.1339C37.1426 36.1373 37.1393 36.1373 37.1359 36.1406C37.1127 36.1739 37.0862 36.2038 37.0564 36.2304C37.0531 36.2337 37.0464 36.2371 37.0431 36.2404C37.0265 36.2537 37.01 36.267 36.9901 36.2803C36.9801 36.287 36.9669 36.2903 36.9536 36.2969C36.947 36.3003 36.9404 36.3036 36.9304 36.3069C36.8542 36.3402 36.7779 36.3502 36.6984 36.3435C36.6917 36.3435 36.6884 36.3435 36.6851 36.3435C35.5547 36.1905 34.3911 36.124 33.2308 36.1206C31.0362 36.1306 28.8782 36.4167 26.8195 36.9789L23.5642 42.5447C26.5842 41.1873 29.9522 40.4654 33.3999 40.4521C33.433 40.4521 33.4629 40.4521 33.496 40.4521C35.8862 40.4521 38.2299 40.7881 40.4676 41.4502C40.5803 41.4834 40.6764 41.5599 40.7394 41.6597L46.9385 52.056H52.584L36.5923 25.2719L28.7389 12.1211L8 47.3985L9.58128 49.5809Z" fill="white" fill-opacity="0.2"/>
    <path d="M29.5684 11.6528L53.4168 51.5943L55.9992 47.2262L34.6702 11.6328L29.5684 11.6528Z" fill="white" fill-opacity="0.2"/>
</svg>
