<svg width="40" height="34" viewBox="0 0 40 34" fill="none" xmlns="http://www.w3.org/2000/svg">
    <path d="M7.62903 33.6768C11.0629 30.6909 15.3836 29.0386 19.8121 29.022C19.8369 29.022 19.8646 29.022 19.8894 29.022C23.9007 29.022 27.6855 30.203 30.7713 32.3849L26.6965 25.5509C24.9477 25.0491 23.1189 24.7941 21.2542 24.7941C21.2293 24.7941 21.2044 24.7941 21.1768 24.7941C17.9694 24.8052 14.8532 25.5787 12.1625 27.0286C12.0464 27.0924 11.9111 27.0896 11.7978 27.0314C11.7591 27.012 11.7259 26.987 11.6956 26.9538C11.574 26.8262 11.5519 26.6349 11.6403 26.4825L19.3783 13.2582L17.1572 9.5293L10.1457 21.5199L3.14258 33.6768H7.62903Z" fill="#C4C4C4"/>
    <path d="M1.31776 31.6234L2.44212 33.3256L9.47018 21.1271L16.8159 8.55985C16.885 8.44063 17.0148 8.36578 17.1529 8.36578C17.1529 8.36578 17.1529 8.36578 17.1557 8.36578C17.2938 8.36578 17.4209 8.43786 17.4928 8.55707L20.1669 13.0511C20.1669 13.0539 20.1697 13.0539 20.1697 13.0567L24.2998 19.996C24.3164 20.0264 24.3302 20.0569 24.3384 20.0874C24.3412 20.0958 24.344 20.1041 24.344 20.1124C24.3495 20.1401 24.3523 20.1651 24.3523 20.1928C24.3523 20.1983 24.3523 20.2039 24.3523 20.2122C24.3523 20.2455 24.3467 20.276 24.3357 20.3065C24.3329 20.3148 24.3302 20.3203 24.3274 20.3286C24.3191 20.3536 24.3081 20.3785 24.2915 20.4035C24.2887 20.4063 24.2887 20.4118 24.286 20.4174C24.286 20.4201 24.2832 20.4201 24.2804 20.4229C24.2611 20.4506 24.239 20.4756 24.2141 20.4978C24.2114 20.5005 24.2058 20.5033 24.2031 20.5061C24.1893 20.5172 24.1755 20.5283 24.1589 20.5393C24.1506 20.5449 24.1395 20.5477 24.1285 20.5532C24.123 20.556 24.1175 20.5587 24.1092 20.5615C24.0456 20.5892 23.9821 20.5976 23.9158 20.592C23.9103 20.592 23.9075 20.592 23.9047 20.592C22.9627 20.4645 21.993 20.409 21.0261 20.4063C19.1973 20.4146 17.3988 20.653 15.6833 21.1215L12.9704 25.7597C15.4871 24.6286 18.2939 24.027 21.167 24.0159C21.1946 24.0159 21.2195 24.0159 21.2471 24.0159C23.2389 24.0159 25.1921 24.2959 27.0569 24.8476C27.1508 24.8754 27.2309 24.9391 27.2834 25.0223L32.4495 33.686H37.1541L23.8274 11.3655L17.2828 0.40625L0 29.8047L1.31776 31.6234Z" fill="#C4C4C4"/>
    <path d="M17.9746 0.0166343L37.8487 33.3019L40.0008 29.6618L22.2262 0L17.9746 0.0166343Z" fill="#C4C4C4"/>
</svg>
