<svg width="32" height="32" viewBox="0 0 32 32" fill="none" xmlns="http://www.w3.org/2000/svg">
<mask id="mask0_9226_15890" style="mask-type:alpha" maskUnits="userSpaceOnUse" x="0" y="0" width="32" height="32">
<path fill-rule="evenodd" clip-rule="evenodd" d="M0 0H32V32H0V0Z" fill="white"/>
</mask>
<g mask="url(#mask0_9226_15890)">
<path d="M6.66699 15C6.11471 15 5.66699 15.4477 5.66699 16C5.66699 16.5523 6.11471 17 6.66699 17L6.66699 15ZM25.3337 17C25.8859 17 26.3337 16.5523 26.3337 16C26.3337 15.4477 25.8859 15 25.3337 15L25.3337 17ZM6.66699 17L25.3337 17L25.3337 15L6.66699 15L6.66699 17Z" fill="#666666"/>
<path d="M17 6.66699C17 6.11471 16.5523 5.66699 16 5.66699C15.4477 5.66699 15 6.11471 15 6.66699L17 6.66699ZM15 25.3337C15 25.8859 15.4477 26.3337 16 26.3337C16.5523 26.3337 17 25.8859 17 25.3337L15 25.3337ZM15 6.66699L15 25.3337L17 25.3337L17 6.66699L15 6.66699Z" fill="#666666"/>
</g>
</svg>
