<?xml version="1.0" encoding="UTF-8"?>
<svg width="171px" height="53px" viewBox="0 0 171 53" version="1.1" xmlns="http://www.w3.org/2000/svg" xmlns:xlink="http://www.w3.org/1999/xlink">
    <title>2</title>
    <defs>
        <linearGradient x1="34.6149577%" y1="30.7691717%" x2="34.6149577%" y2="100%" id="linearGradient-1">
            <stop stop-color="#094526" offset="0%"></stop>
            <stop stop-color="#1C834F" offset="100%"></stop>
        </linearGradient>
        <linearGradient x1="75.6817666%" y1="0.271791382%" x2="50.4545111%" y2="100.632289%" id="linearGradient-2">
            <stop stop-color="#4BD184" offset="0%"></stop>
            <stop stop-color="#6BEFA2" offset="100%"></stop>
        </linearGradient>
        <linearGradient x1="18.4613046%" y1="83.9055398%" x2="100%" y2="40.2049827%" id="linearGradient-3">
            <stop stop-color="#117043" offset="0%"></stop>
            <stop stop-color="#28A55F" offset="100%"></stop>
        </linearGradient>
        <linearGradient x1="50.1306084%" y1="9.009025%" x2="70.2149264%" y2="28.08325%" id="linearGradient-4">
            <stop stop-color="#28A55F" offset="0%"></stop>
            <stop stop-color="#31C971" offset="100%"></stop>
        </linearGradient>
        <linearGradient x1="0%" y1="33.0785957%" x2="106.0215%" y2="41.2625421%" id="linearGradient-5">
            <stop stop-color="#56E391" offset="0%"></stop>
            <stop stop-color="#137545" offset="100%"></stop>
        </linearGradient>
    </defs>
    <g id="页面-1" stroke="none" stroke-width="1" fill="none" fill-rule="evenodd">
        <g id="002-Splash" transform="translate(-278.000000, -1088.000000)">
            <g id="Group" transform="translate(-87.000000, -21.000000)">
                <g id="编组" transform="translate(129.000000, 1050.000000)">
                    <g id="2" transform="translate(236.624000, 59.850000)">
                        <path d="M82.5924415,23.3613107 C82.1928851,18.8196811 78.8148752,16.245 74.1291332,16.245 C69.1165859,16.245 65.1573333,19.5349122 65.1573333,25.65 C65.1573333,31.7381502 69.007523,35.055 74.1291332,35.055 C79.5776764,35.055 82.3382597,31.3358484 82.5924415,28.2246811 L77.4709592,28.1889321 C77.2166495,29.753453 76.0906036,30.7279901 74.2381961,30.7279901 C71.7771842,30.7279901 70.3515669,29.0114101 70.3515669,25.65 C70.3515669,22.4673347 71.7317946,20.5720099 74.2745078,20.5720099 C76.2176945,20.5720099 77.3255846,21.6984801 77.4709592,23.3613107 L82.5924415,23.3613107 Z M84.8831464,34.8046313 L97.4509541,34.8046313 L97.4509541,30.799488 L89.9321332,30.799488 L89.9321332,16.4952428 L84.8831464,16.4952428 L84.8831464,34.8046313 Z M116.784115,25.65 C116.784115,19.5349122 112.788551,16.245 107.739564,16.245 C102.654266,16.245 98.6951408,19.5349122 98.6951408,25.65 C98.6951408,31.729213 102.654266,35.055 107.739564,35.055 C112.788551,35.055 116.784115,31.7649619 116.784115,25.65 Z M111.589882,25.65 C111.589882,28.9399122 110.245838,30.7279901 107.739564,30.7279901 C105.23329,30.7279901 103.889374,28.9399122 103.889374,25.65 C103.889374,22.3599619 105.23329,20.5720099 107.739564,20.5720099 C110.245838,20.5720099 111.589882,22.3599619 111.589882,25.65 Z M123.031643,16.4952428 L117.328918,16.4952428 L123.467639,34.8046313 L130.369161,34.8046313 L136.507627,16.4952428 L130.805157,16.4952428 L126.990896,29.4047747 L126.845649,29.4047747 L123.031643,16.4952428 Z M138.298918,34.8046313 L151.665199,34.8046313 L151.665199,30.799488 L143.348033,30.799488 L143.348033,27.6525717 L151.011845,27.6525717 L151.011845,23.6474283 L143.348033,23.6474283 L143.348033,20.500512 L151.702278,20.500512 L151.702278,16.4952428 L138.298918,16.4952428 L138.298918,34.8046313 Z M154.205739,34.8046313 L159.254854,34.8046313 L159.254854,28.7611674 L160.998837,28.7611674 L164.268168,34.8046313 L169.752,34.8046313 L165.975073,27.9744383 C167.954316,27.0356502 169.134446,25.2566355 169.134446,22.7175775 C169.134446,18.8196811 166.36504,16.4952428 162.233946,16.4952428 L154.205739,16.4952428 L154.205739,34.8046313 Z M159.254854,24.8990199 L159.254854,20.464763 L161.034638,20.464763 C162.805472,20.464763 163.867972,21.1441193 163.867972,22.7175775 C163.867972,24.2820984 162.805472,24.8990199 161.034638,24.8990199 L159.254854,24.8990199 Z" id="形状" fill="#000000" fill-rule="nonzero"></path>
                        <path d="M24.8626667,41.8292308 C28.3145221,41.8292308 30.9419551,39.0784869 30.9419551,35.91 L40.2946667,35.91 C40.2946667,44.5042842 33.2850642,51.3 24.8626667,51.3 L24.8626667,41.8292308 Z" id="路径" fill="#31C971"></path>
                        <path d="M41.9433846,26.505 C41.9433846,23.2390063 39.282904,20.5857642 36.008,20.5857642 L36.008,11.115 C44.5278365,11.115 51.44,18.008344 51.44,26.505 L41.9433846,26.505 Z" id="路径" fill="url(#linearGradient-1)"></path>
                        <path d="M9.35272452,25.65 C9.35272452,28.9952696 12.0775621,31.712743 15.432,31.712743 L15.432,41.04 C6.91219782,41.04 0,34.1466663 0,25.65 L9.35272452,25.65 Z" id="路径" fill="url(#linearGradient-2)"></path>
                        <path d="M25.72,9.32726998 C22.542877,9.32726998 19.7846357,11.9475392 19.7846357,15.39 L10.288,15.39 C10.288,6.99055086 17.1022911,0 25.72,0 L25.72,9.32726998 Z" id="路径" fill="url(#linearGradient-3)"></path>
                        <path d="M31.1323373,15.1358085 C31.1323373,11.8844273 28.5142747,9.24324682 25.2913397,9.24324682 L25.2913397,0 C33.5744556,0 40.2946667,6.77952585 40.2946667,15.1358085 C40.2946667,23.4920655 33.5744556,30.271617 25.2913397,30.271617 C22.0684047,30.271617 19.450342,32.9127975 19.450342,36.1641915 C19.450342,39.4155855 22.0684047,42.056766 25.2913397,42.056766 L25.2913397,51.3 C17.0082238,51.3 10.288,44.5204485 10.288,36.1641915 C10.288,27.8079345 17.0082238,21.028383 25.2913397,21.028383 C28.5142747,21.028383 31.1323373,18.3872025 31.1323373,15.1358085 Z" id="路径" fill="url(#linearGradient-4)"></path>
                        <path d="M15.1771148,20.2523704 C11.9168605,20.2523704 9.26847206,22.8633121 9.26847206,26.077481 L0,26.077481 C0,17.8168946 6.79802748,11.115 15.1771148,11.115 C23.5561764,11.115 30.3542296,17.8168946 30.3542296,26.077481 C30.3542296,29.2916499 33.002618,31.9025915 36.2628852,31.9025915 C39.5231524,31.9025915 42.1715408,29.2916499 42.1715408,26.077481 L51.44,26.077481 C51.44,34.3381942 44.6419468,41.04 36.2628852,41.04 C27.8838236,41.04 21.0857704,34.3381942 21.0857704,26.077481 C21.0857704,22.8633121 18.437382,20.2523704 15.1771148,20.2523704 Z" id="路径" fill="url(#linearGradient-5)"></path>
                    </g>
                </g>
            </g>
        </g>
    </g>
</svg>