<svg width="80" height="80" viewBox="0 0 80 80" fill="none" xmlns="http://www.w3.org/2000/svg">
    <circle cx="40" cy="40" r="40" fill="white"/>
    <path fill-rule="evenodd" clip-rule="evenodd" d="M40 55.3546C43.192 55.3546 45.6216 52.8427 45.6216 49.9492H54.2703C54.2703 57.7974 47.7883 64.0033 40 64.0033V55.3546Z" fill="#C4C4C4"/>
    <path fill-rule="evenodd" clip-rule="evenodd" d="M55.3546 40.2142C55.3546 37.2317 52.9318 34.8088 49.9492 34.8088V26.1602C57.7083 26.1602 64.0033 32.4551 64.0033 40.2142H55.3546Z" fill="#C4C4C4"/>
    <path fill-rule="evenodd" clip-rule="evenodd" d="M24.6486 40C24.6486 43.1019 27.1684 45.6216 30.2703 45.6216V54.2703C22.3918 54.2703 16 47.8784 16 40H24.6486Z" fill="#C4C4C4"/>
    <path fill-rule="evenodd" clip-rule="evenodd" d="M40.2142 24.6486C37.3208 24.6486 34.8088 27.0783 34.8088 30.2703H26.1602C26.1602 22.4819 32.366 16 40.2142 16V24.6486Z" fill="#C4C4C4"/>
    <path fill-rule="evenodd" clip-rule="evenodd" d="M45.6249 30.1622C45.6249 27.1199 43.1536 24.6486 40.1114 24.6486V16C47.9301 16 54.2735 22.3434 54.2735 30.1622C54.2735 37.9809 47.9301 44.3243 40.1114 44.3243C37.0691 44.3243 34.5979 46.7956 34.5979 49.8378C34.5979 52.88 37.0691 55.3513 40.1114 55.3513V64C32.2926 64 25.9492 57.6566 25.9492 49.8378C25.9492 42.0191 32.2926 35.6757 40.1114 35.6757C43.1536 35.6757 45.6249 33.2044 45.6249 30.1622Z" fill="#C4C4C4"/>
    <path fill-rule="evenodd" clip-rule="evenodd" d="M30.1622 34.5979C27.1199 34.5979 24.6486 37.0691 24.6486 40.1114H16C16 32.2926 22.3434 25.9492 30.1622 25.9492C37.9809 25.9492 44.3243 32.2926 44.3243 40.1114C44.3243 43.1536 46.7956 45.6249 49.8378 45.6249C52.88 45.6249 55.3513 43.1536 55.3513 40.1114H64C64 47.9301 57.6566 54.2735 49.8378 54.2735C42.0191 54.2735 35.6757 47.9301 35.6757 40.1114C35.6757 37.0691 33.2044 34.5979 30.1622 34.5979Z" fill="#C4C4C4"/>
</svg>
