<svg width="200" height="60" viewBox="0 0 200 60" fill="none" xmlns="http://www.w3.org/2000/svg">
<path d="M96.7745 26.8628C96.3057 21.4509 92.3427 18.3828 86.8457 18.3828C80.9651 18.3828 76.3203 22.3032 76.3203 29.59C76.3203 36.8448 80.8373 40.7972 86.8457 40.7972C93.2376 40.7972 96.4762 36.3654 96.7745 32.6581L90.7661 32.6155C90.4678 34.4798 89.1468 35.641 86.9735 35.641C84.0865 35.641 82.4139 33.5956 82.4139 29.59C82.4139 25.7974 84.0332 23.539 87.0161 23.539C89.2959 23.539 90.5956 24.8813 90.7661 26.8628H96.7745Z" fill="black"/>
<path d="M99.4617 40.4989H114.206V35.7262H105.385V18.6811H99.4617V40.4989Z" fill="black"/>
<path d="M136.886 29.59C136.886 22.3032 132.199 18.3828 126.276 18.3828C120.31 18.3828 115.665 22.3032 115.665 29.59C115.665 36.8342 120.31 40.7972 126.276 40.7972C132.199 40.7972 136.886 36.8768 136.886 29.59ZM130.793 29.59C130.793 33.5104 129.216 35.641 126.276 35.641C123.336 35.641 121.759 33.5104 121.759 29.59C121.759 25.6696 123.336 23.539 126.276 23.539C129.216 23.539 130.793 25.6696 130.793 29.59Z" fill="black"/>
<path d="M144.216 18.6811H137.526L144.727 40.4989H152.824L160.025 18.6811H153.335L148.861 34.0643H148.69L144.216 18.6811Z" fill="black"/>
<path d="M162.127 40.4989H177.808V35.7262H168.05V31.9763H177.041V27.2037H168.05V23.4537H177.851V18.6811H162.127V40.4989Z" fill="black"/>
<path d="M180.788 40.4989H186.711V33.2973H188.757L192.592 40.4989H199.027L194.595 32.3598C196.917 31.2412 198.302 29.1212 198.302 26.0957C198.302 21.4509 195.053 18.6811 190.206 18.6811H180.788V40.4989ZM186.711 28.6951V23.4111H188.799C190.877 23.4111 192.123 24.2208 192.123 26.0957C192.123 27.96 190.877 28.6951 188.799 28.6951H186.711Z" fill="black"/>
<path fill-rule="evenodd" clip-rule="evenodd" d="M30 49.1883C33.9899 49.1883 37.0269 46.0484 37.0269 42.4316H47.8375C47.8375 52.2417 39.7352 59.9989 30 59.9989V49.1883Z" fill="#FB822A"/>
<path fill-rule="evenodd" clip-rule="evenodd" d="M49.1883 30.2704C49.1883 26.5422 46.1598 23.5137 42.4316 23.5137V12.7031C52.1303 12.7031 59.9989 20.5717 59.9989 30.2704H49.1883Z" fill="url(#paint0_linear)"/>
<path fill-rule="evenodd" clip-rule="evenodd" d="M10.8106 30C10.8106 33.8773 13.9602 37.0269 17.8375 37.0269V47.8375C7.98966 47.8375 0 39.8478 0 30H10.8106Z" fill="url(#paint1_linear)"/>
<path fill-rule="evenodd" clip-rule="evenodd" d="M30.2704 10.8106C26.6536 10.8106 23.5137 13.8476 23.5137 17.8375H12.7031C12.7031 8.10227 20.4603 0 30.2704 0V10.8106Z" fill="url(#paint2_linear)"/>
<path fill-rule="evenodd" clip-rule="evenodd" d="M37.0258 17.7024C37.0258 13.8996 33.9367 10.8106 30.134 10.8106V0C39.9072 0 47.8364 7.92912 47.8364 17.7024C47.8364 27.4756 39.9072 35.4047 30.134 35.4047C26.3313 35.4047 23.2422 38.4938 23.2422 42.2965C23.2422 46.0992 26.3313 49.1882 30.134 49.1882V59.9988C20.3608 59.9988 12.4316 52.0697 12.4316 42.2965C12.4316 32.5232 20.3608 24.5941 30.134 24.5941C33.9367 24.5941 37.0258 21.5051 37.0258 17.7024Z" fill="url(#paint3_linear)"/>
<path fill-rule="evenodd" clip-rule="evenodd" d="M17.7024 23.2422C13.8996 23.2422 10.8106 26.3313 10.8106 30.134H0C0 20.3608 7.92912 12.4316 17.7024 12.4316C27.4756 12.4316 35.4047 20.3608 35.4047 30.134C35.4047 33.9367 38.4938 37.0258 42.2965 37.0258C46.0992 37.0258 49.1882 33.9367 49.1882 30.134H59.9988C59.9988 39.9072 52.0697 47.8364 42.2965 47.8364C32.5232 47.8364 24.5941 39.9072 24.5941 30.134C24.5941 26.3313 21.5051 23.2422 17.7024 23.2422Z" fill="url(#paint4_linear)"/>
<defs>
<linearGradient id="paint0_linear" x1="48.5126" y1="18.1084" x2="48.5126" y2="30.2704" gradientUnits="userSpaceOnUse">
<stop stop-color="#E11B7B"/>
<stop offset="1" stop-color="#EE4455"/>
</linearGradient>
<linearGradient id="paint1_linear" x1="11.6214" y1="30" x2="11.6214" y2="42.4322" gradientUnits="userSpaceOnUse">
<stop stop-color="#FB822A"/>
<stop offset="1" stop-color="#FB822A"/>
</linearGradient>
<linearGradient id="paint2_linear" x1="15.9463" y1="14.9997" x2="30.2704" y2="7.16202" gradientUnits="userSpaceOnUse">
<stop stop-color="#E11B7B"/>
<stop offset="1" stop-color="#EF4A4E"/>
</linearGradient>
<linearGradient id="paint3_linear" x1="30.2691" y1="5.40531" x2="51.0526" y2="16.8496" gradientUnits="userSpaceOnUse">
<stop stop-color="#ED4454"/>
<stop offset="1" stop-color="#FF8212"/>
</linearGradient>
<linearGradient id="paint4_linear" x1="0" y1="12.4316" x2="63.6117" y2="20.9933" gradientUnits="userSpaceOnUse">
<stop stop-color="#FF8212"/>
<stop offset="1" stop-color="#ED4454"/>
</linearGradient>
</defs>
</svg>