<svg width="49" height="49" viewBox="0 0 49 49" fill="none" xmlns="http://www.w3.org/2000/svg">
    <path fill-rule="evenodd" clip-rule="evenodd" d="M24 39.3546C27.192 39.3546 29.6216 36.8427 29.6216 33.9492H38.2703C38.2703 41.7974 31.7883 48.0033 24 48.0033V39.3546Z" fill="#C4C4C4"/>
    <path fill-rule="evenodd" clip-rule="evenodd" d="M39.3546 24.2142C39.3546 21.2317 36.9318 18.8088 33.9492 18.8088V10.1602C41.7083 10.1602 48.0033 16.4551 48.0033 24.2142H39.3546Z" fill="#C4C4C4"/>
    <path fill-rule="evenodd" clip-rule="evenodd" d="M8.64864 24C8.64864 27.1019 11.1684 29.6216 14.2703 29.6216V38.2703C6.39185 38.2703 0 31.8784 0 24H8.64864Z" fill="#C4C4C4"/>
    <path fill-rule="evenodd" clip-rule="evenodd" d="M24.2142 8.64864C21.3208 8.64864 18.8088 11.0783 18.8088 14.2703H10.1602C10.1602 6.48194 16.366 0 24.2142 0V8.64864Z" fill="#C4C4C4"/>
    <path fill-rule="evenodd" clip-rule="evenodd" d="M29.6249 14.1622C29.6249 11.1199 27.1536 8.64864 24.1114 8.64864V0C31.9301 0 38.2735 6.34341 38.2735 14.1622C38.2735 21.9809 31.9301 28.3243 24.1114 28.3243C21.0691 28.3243 18.5979 30.7956 18.5979 33.8378C18.5979 36.88 21.0691 39.3513 24.1114 39.3513V48C16.2926 48 9.94922 41.6566 9.94922 33.8378C9.94922 26.0191 16.2926 19.6757 24.1114 19.6757C27.1536 19.6757 29.6249 17.2044 29.6249 14.1622Z" fill="#C4C4C4"/>
    <path fill-rule="evenodd" clip-rule="evenodd" d="M14.1622 18.5979C11.1199 18.5979 8.64864 21.0691 8.64864 24.1114H0C0 16.2926 6.34341 9.94922 14.1622 9.94922C21.9809 9.94922 28.3243 16.2926 28.3243 24.1114C28.3243 27.1536 30.7956 29.6249 33.8378 29.6249C36.88 29.6249 39.3513 27.1536 39.3513 24.1114H48C48 31.9301 41.6566 38.2735 33.8378 38.2735C26.0191 38.2735 19.6757 31.9301 19.6757 24.1114C19.6757 21.0691 17.2044 18.5979 14.1622 18.5979Z" fill="#C4C4C4"/>
</svg>
