<?xml version="1.0" encoding="UTF-8"?>
<svg width="244px" height="44px" viewBox="0 0 244 44" version="1.1" xmlns="http://www.w3.org/2000/svg" xmlns:xlink="http://www.w3.org/1999/xlink">
    <title>形状</title>
    <g id="页面-1" stroke="none" stroke-width="1" fill="none" fill-rule="evenodd">
        <g id="001-Launch" transform="translate(-234.000000, -556.000000)" fill="#000000" fill-rule="nonzero">
            <g id="logo/big" transform="translate(234.000000, 372.000000)">
                <g id="LOGO">
                    <path d="M40.6728806,200.646341 C39.7407894,190.022646 31.8605176,184 20.9295486,184 C9.23620352,184 0,191.695701 0,206 C0,220.241287 8.98177991,228 20.9295486,228 C33.6399915,228 40.0799215,219.30023 40.6728806,212.022646 L28.7254102,211.939022 C28.1321528,215.59872 25.5052961,217.878339 21.1839722,217.878339 C15.442887,217.878339 12.1171856,213.862948 12.1171856,206 C12.1171856,198.555169 15.3370014,194.121661 21.2686806,194.121661 C25.8017757,194.121661 28.3862782,196.756679 28.7254102,200.646341 L40.6728806,200.646341 Z M46.0166713,227.414342 L75.3350406,227.414342 L75.3350406,218.045586 L57.7950231,218.045586 L57.7950231,184.585363 L46.0166713,184.585363 L46.0166713,227.414342 Z M120.435727,206 C120.435727,191.695701 111.114815,184 99.3364635,184 C87.4734033,184 78.2374981,191.695701 78.2374981,206 C78.2374981,220.220381 87.4734033,228 99.3364635,228 C111.114815,228 120.435727,220.304004 120.435727,206 Z M108.318542,206 C108.318542,213.695701 105.183136,217.878339 99.3364635,217.878339 C93.489791,217.878339 90.3546836,213.695701 90.3546836,206 C90.3546836,198.304004 93.489791,194.121661 99.3364635,194.121661 C105.183136,194.121661 108.318542,198.304004 108.318542,206 Z M135.010054,184.585363 L121.706652,184.585363 L136.027152,227.414342 L152.127126,227.414342 L166.44703,184.585363 L153.144224,184.585363 L144.246258,214.783099 L143.907424,214.783099 L135.010054,184.585363 Z M170.625781,227.414342 L201.806841,227.414342 L201.806841,218.045586 L182.404431,218.045586 L182.404431,210.684378 L200.282686,210.684378 L200.282686,201.315622 L182.404431,201.315622 L182.404431,193.954414 L201.893339,193.954414 L201.893339,184.585363 L170.625781,184.585363 L170.625781,227.414342 Z M207.73345,227.414342 L219.5121,227.414342 L219.5121,213.277584 L223.580492,213.277584 L231.207235,227.414342 L244,227.414342 L235.189128,211.437283 C239.806335,209.241287 242.55936,205.079849 242.55936,199.140532 C242.55936,190.022646 236.098849,184.585363 226.461772,184.585363 L207.73345,184.585363 L207.73345,227.414342 Z M219.5121,204.243321 L219.5121,193.870791 L223.664007,193.870791 C227.795035,193.870791 230.273652,195.459928 230.273652,199.140532 C230.273652,202.80023 227.795035,204.243321 223.664007,204.243321 L219.5121,204.243321 Z" id="形状"></path>
                </g>
            </g>
        </g>
    </g>
</svg>