<svg width="80" height="80" viewBox="0 0 80 80" fill="none" xmlns="http://www.w3.org/2000/svg">
<path d="M38.324 38.3143C39.417 37.2213 39.417 35.2539 38.324 34.1609C37.2311 33.068 35.2636 33.0679 34.1707 34.1609L30.6731 37.6585L27.6127 34.5981L18.2131 43.9978C13.8411 48.3698 13.1853 55.1463 16.2456 60.1741L13.6225 62.7972C12.5295 63.8902 12.5295 65.8576 13.6225 66.9505C14.7155 68.0434 16.6828 68.0435 17.7758 66.9505L20.399 64.3274C25.4267 67.3878 32.2033 66.9505 36.5752 62.36L45.9749 52.9603L42.9145 49.9L46.4121 46.4024C47.5051 45.3094 47.5051 43.342 46.4121 42.2491C45.3192 41.1561 43.3517 41.156 42.2588 42.2491L38.7612 45.7466L35.0451 41.8119L38.324 38.3143ZM38.7612 53.1789L33.2963 58.6438C30.2359 61.7042 25.4267 61.7042 22.3664 58.6438C19.306 55.5834 19.5246 50.7744 22.3664 47.714L27.8313 42.2491L38.7612 53.1789V53.1789ZM62.8069 13.8314L60.1838 16.4545C55.156 13.3942 48.3795 13.8314 44.0076 18.4219L34.6079 27.8216L53.1887 46.4025L62.5883 37.0028C66.9603 32.6308 67.6161 25.8543 64.5557 20.8265L67.1789 18.2034C68.2719 17.1104 68.2719 15.143 67.1789 14.0501C65.8673 12.7384 64.1185 12.7384 62.8069 13.8314ZM58.6536 33.2866L53.1886 38.7515L42.2588 27.8216L47.7237 22.3567C50.7841 19.2963 55.5932 19.2963 58.6536 22.3567C61.714 25.4171 61.7139 30.2262 58.6536 33.2866V33.2866Z" fill="#191919"/>
<path d="M40 80C18 80 0 62 0 40C0 18 18 0 40 0C62 0 80 18 80 40C80 62 62 80 40 80ZM40 5.71429C21.1429 5.71429 5.71429 21.1429 5.71429 40C5.71429 58.8571 21.1429 74.2857 40 74.2857C58.8571 74.2857 74.2857 58.8571 74.2857 40C74.2857 21.1429 58.8571 5.71429 40 5.71429Z" fill="#191919"/>
</svg>
