<?xml version="1.0" encoding="UTF-8"?>
<svg width="712px" height="738px" viewBox="0 0 712 738" version="1.1" xmlns="http://www.w3.org/2000/svg" xmlns:xlink="http://www.w3.org/1999/xlink">
    <title>Group</title>
    <defs>
        <rect id="path-1" x="0" y="0" width="712" height="738" rx="1"></rect>
        <path d="M0,18.0816861 L63.0566337,51.8818565 C68.1268866,41.7340956 71.3406368,34.3248518 72.6978843,29.6541252 C74.0551317,24.9833986 75.4351187,22.2630083 76.837845,21.4929541 L35.0945411,-2.67266003e-13 L0,18.0816861 Z" id="path-3"></path>
        <path d="M0,23.5316786 L59.708656,61.721519 C67.1868509,53.0164785 71.6012105,46.3536085 72.951735,41.7329089 C74.3022594,37.1122093 75.0019872,30.5954281 75.0509184,22.1825652 L36.2314778,0 L0,23.5316786 Z" id="path-5"></path>
        <polygon id="path-7" points="1.92992536e-13 -6.07417206e-15 33.9309047 0 19.0681928 89.4420302 17.3794968 95.7130802"></polygon>
    </defs>
    <g id="页面-1" stroke="none" stroke-width="1" fill="none" fill-rule="evenodd">
        <g id="003-Have-seed-phrase?" transform="translate(0.000000, 1.000000)">
            <g id="Group" transform="translate(0.000000, -1.000000)">
                <mask id="mask-2" fill="white">
                    <use xlink:href="#path-1"></use>
                </mask>
                <use id="Mask" fill="#D8D8D8" xlink:href="#path-1"></use>
                <g mask="url(#mask-2)">
                    <g transform="translate(0.000000, -124.000000)">
                        <rect id="矩形" stroke="none" fill="#FFFFFF" fill-rule="evenodd" x="35" y="0" width="645" height="1397"></rect>
                        <rect id="矩形" stroke="none" fill="#B7D7E3" fill-rule="evenodd" x="0" y="0" width="712" height="802"></rect>
                        <path d="M147.227659,631.65358 C122.130881,566.374999 83.1017468,566.600882 89.7506554,502.98875 C96.399564,439.376618 182.232766,442.512906 228.096191,422.765092 C273.959616,403.017277 362.988951,358.686526 376.758722,323.134367 C390.528492,287.582208 469.145517,287.582208 502.407877,298.119697 C513.189681,301.535364 523.097976,309.090751 532.220009,314.707814 C545.666943,322.988014 565.232454,351.558315 559.504871,393.178977 C548.281946,474.732677 584.675184,472.16241 619.450925,506.285268 C654.226666,540.408127 668.339124,598.993771 649.820478,637.037499 C631.301832,675.081228 608.756705,675.235308 589.269014,675.235308 C561.448299,675.235308 543.29886,656.378875 542.663021,657.282984 C478.580388,748.403066 347.005648,761 298.873458,761 C266.785331,761 226.249051,750.873018 177.264617,730.619054 C173.971164,708.161125 163.958845,675.172634 147.227659,631.65358 Z" id="路径-60" stroke="none" fill="#CFE9E4" fill-rule="evenodd"></path>
                        <path d="M159.950396,737.637533 C119.479764,705.477983 97.9371939,672.311255 95.322685,638.13735 C91.4009217,586.876493 123.826107,572.888723 159.950396,564.266714 C119.529838,527.974947 105.482441,490.291255 117.808206,451.215636 C136.296854,392.602208 187.399983,374.540834 267.303845,383.845096 C267.303845,363.92664 272.508205,346.704966 282.916926,332.180073 C308.667425,296.246428 331.053338,294.05509 354.289107,288.83085 C409.292846,276.464022 448.456682,287.501789 475.754746,325.86822 C493.953456,351.445841 500.503338,385.354121 495.404393,427.593061 C532.029216,415.252533 563.625306,423.126725 590.192664,451.215636 C608.365036,470.428768 618.250441,509.726158 604.199123,543.7224 C599.871653,554.192431 587.333711,567.244016 566.585298,582.877153 C602.195099,594.070764 620,614.770335 620,644.975868 C620,690.284167 568.056347,731.918059 517.67121,761.487791 C484.081118,781.200946 388.61282,785.170093 231.266315,773.395233 L159.950396,737.637533 Z" id="路径-54" stroke="none" fill="none"></path>
                        <path d="M388.439103,216 C312.551526,224.740741 265.379487,237.044143 246.922986,252.910206 C217.405359,278.284927 199.946919,314.862148 232.676047,356.568784 C264.023739,396.515059 420.828074,400.74884 445.244967,400.74884 C469.661859,400.74884 523.353693,417.061834 539.060711,456.188328 C554.76773,495.314823 539.625155,531.8267 490.001102,556.323218 C468.935568,566.72205 413.004736,579.655162 354.011307,582.084514 C274.033982,585.377985 197.006486,587.287259 177.736434,610.903179 C166.514765,624.65561 161.294734,640.35455 162.076343,658" id="路径-59" stroke="#333333" stroke-width="2" fill="none" stroke-dasharray="6"></path>
                        <g id="人" stroke="none" stroke-width="1" fill="none" fill-rule="evenodd" transform="translate(131.000000, 277.000000)">
                            <path d="M250.238002,50.7485349 C250.238002,50.7485349 257.444272,47.2877999 259.157203,48.601383 C260.848795,49.8986009 261.41432,51.788274 260.552876,56.0292353 C259.691433,60.2701967 257.62094,62.656195 256.431513,63.254084 C251.837333,65.5634382 248.578893,64.397632 246.656193,59.7566656 C249.044065,53.7512451 250.238002,50.7485349 250.238002,50.7485349 Z" id="路径-48" stroke="#333333" stroke-width="2" fill="#FFFFFF"></path>
                            <path d="M193.949813,50.7485349 C193.949813,50.7485349 201.156083,47.2877999 202.869015,48.601383 C204.560606,49.8986009 205.126131,51.788274 204.264688,56.0292353 C203.403244,60.2701967 201.332751,62.656195 200.143324,63.254084 C195.549144,65.5634382 192.290704,64.397632 190.368004,59.7566656 C192.755877,53.7512451 193.949813,50.7485349 193.949813,50.7485349 Z" id="路径-48" stroke="#333333" stroke-width="2" fill="#FFFFFF" transform="translate(197.515711, 56.354430) scale(-1, 1) translate(-197.515711, -56.354430) "></path>
                            <path d="M238.299686,86.0337244 L215.942874,87.3926945 L211.286041,107.236287 L241.050743,107.236287 L238.299686,86.0337244 Z" id="矩形" stroke="#333333" stroke-width="2" fill="#FFFFFF"></path>
                            <g id="路径-11" transform="translate(237.721560, 329.181435)">
                                <mask id="mask-4" fill="white">
                                    <use xlink:href="#path-3"></use>
                                </mask>
                                <path stroke="#333333" stroke-width="2" d="M35.0943882,-1.12484778 L-2.14936173,18.0641706 L63.4901731,53.2488504 C68.865345,42.5520691 72.2501512,34.7785908 73.6581627,29.9331687 C74.8883338,25.6997531 76.0267082,23.0790186 77.3190702,22.3695511 C77.9372295,22.0302004 78.9053955,21.9553214 80.2104403,22.10468 L35.0943882,-1.12484778 Z"></path>
                                <polygon fill="#FFE59C" mask="url(#mask-4)" transform="translate(40.609686, 24.951653) rotate(-85.000000) translate(-40.609686, -24.951653) " points="4.48088363 8.67701187 72.1021055 49.8603796 76.7384892 39.7957757 8.30047314 0.0429255058"></polygon>
                                <polygon id="路径-11备份" fill="#FFE59C" mask="url(#mask-4)" transform="translate(63.056697, 25.816350) rotate(-85.000000) translate(-63.056697, -25.816350) " points="26.9278945 9.54170948 94.5491164 50.7250772 99.1855001 40.6604733 30.747484 0.907623115"></polygon>
                            </g>
                            <g id="路径-11-+-路径-11备份-蒙版" transform="translate(144.801375, 318.447257)">
                                <mask id="mask-6" fill="white">
                                    <use xlink:href="#path-5"></use>
                                </mask>
                                <path stroke="#333333" stroke-width="2" d="M36.1981813,-1.1707781 L-1.84584882,23.5381199 L59.8997329,63.0307842 C67.8590059,53.8468668 72.5038353,46.8299132 73.9115773,42.0134488 C75.3122127,37.221299 76.0336796,30.4194111 76.0532459,21.6035731 L36.1981813,-1.1707781 Z"></path>
                                <polygon id="路径-11" fill="#FFE59C" mask="url(#mask-6)" transform="translate(15.341116, 32.450154) rotate(-154.000000) translate(-15.341116, -32.450154) " points="-20.6229655 16.3544132 46.6618023 57.1381409 51.3051982 47.121881 -16.7967996 7.76216743"></polygon>
                                <polygon id="路径-11备份" fill="#FFE59C" mask="url(#mask-6)" transform="translate(37.770126, 33.307397) rotate(-154.000000) translate(-37.770126, -33.307397) " points="1.80604455 17.2116565 69.0908124 57.9953842 73.7342083 47.9791243 5.63221045 8.61941074"></polygon>
                            </g>
                            <path d="M317.164955,343.6197 L326.174428,348.87555 C307.926783,386.055609 298.802961,404.645639 298.802961,404.645639 C298.802961,404.645639 286.665211,422.499978 281.645942,423.795959 C276.626673,425.09194 273.778322,419.897788 273.778322,417.140475 C273.778322,414.383162 280.757975,397.646763 277.786191,391.053653 C275.805001,386.658246 271.980399,381.644699 266.312386,376.01301 C272.335903,366.642957 275.347661,361.95793 275.347661,361.95793 C275.347661,361.95793 277.848249,359.114384 283.411271,366.249702 C288.974292,373.38502 289.567361,377.639635 293.454217,374.060111 C296.045454,371.673762 300.06833,362.231192 305.522847,345.7324 L309.743458,339.021097 L317.164955,343.6197 Z" id="路径-45" stroke="#333333" stroke-width="1.8" fill="#333333"></path>
                            <path d="M184.483839,338.593361 L193.941857,344.336957 C174.36038,382.687287 164.569641,401.862451 164.569641,401.862451 C164.569641,401.862451 152.51177,419.808711 147.525533,421.111364 C142.539296,422.414017 139.709691,417.193124 139.709691,414.421615 C139.709691,411.650107 146.643411,394.827543 143.691184,388.200489 C141.723032,383.782454 137.923601,378.743095 132.292889,373.082412 C138.276765,363.664119 141.268702,358.954972 141.268702,358.954972 C141.268702,358.954972 143.752834,356.096786 149.279245,363.26884 C154.805656,370.440893 155.394822,374.717411 159.256097,371.119459 C161.830281,368.720824 165.826683,359.22964 171.245303,342.645907 L176.568152,333.654008 L184.483839,338.593361 Z" id="路径-45备份" stroke="#333333" stroke-width="1.8" fill="#333333" transform="translate(163.117373, 377.485232) scale(-1, 1) translate(-163.117373, -377.485232) "></path>
                            <path d="M227.82003,104.372326 C246.678716,103.408405 259.059878,103.589478 264.963516,104.915543 C273.818973,106.904641 281.672568,106.375946 299.3324,129.352732 C316.992232,152.329518 337.599678,154.898216 351.083033,152.493936 C360.071936,150.891082 372.50237,143.177347 388.374335,129.352732 L411.053443,156.563569 C387.787471,178.55018 367.797334,191.707219 351.083033,196.034685 C326.011581,202.525883 281.672568,176.14083 281.672568,167.702452 C287.931632,175.391592 290.849983,182.167729 290.427622,188.030863 C290.00526,193.893997 290.00526,206.565661 290.427622,226.045855 L223.80188,255.831224 L163.08562,226.045855 L163.08562,177.281784 L171.686762,167.702452 C157.504385,184.731966 143.681661,195.210698 130.218589,199.13865 C110.023981,205.030578 74.1427244,187.109462 66.2520803,177.281784 C60.991651,170.729998 53.2231433,162.467382 42.9465573,152.493936 L66.2520803,129.352732 C89.6726327,149.449593 107.906844,157.163327 120.954713,152.493936 C140.526517,145.489848 165.669605,118.996844 174.243277,111.956193 C182.816948,104.915543 194.715685,104.053167 206.625923,104.053167 C214.566081,104.053167 221.630783,104.159554 227.82003,104.372326 Z" id="路径-39" stroke="#333333" stroke-width="2" fill="#57B77D"></path>
                            <g id="编组-16" transform="translate(384.249543, 86.767932)" fill="#FFFFFF" stroke="#333333" stroke-width="2">
                                <path d="M29.5909995,61.4138537 C36.7131514,56.9959208 41.4745038,53.4601462 43.8750567,50.8065299 C47.475886,46.8261054 49.9818826,42.2332422 51.4133555,40.3128244 C52.8448283,38.3924067 61.5799317,30.7741235 63.2668891,29.8105363 C64.9538465,28.8469491 68.4512533,25.5155563 66.821562,23.8723404 C65.1918706,22.2291245 62.3143522,23.7742606 59.2380349,24.6668385 C56.1617176,25.5594164 50.7349824,29.2606198 50.1895877,28.3921986 C49.644193,27.5237775 54.4139405,21.7354678 57.1015188,19.6222303 C59.789097,17.5089927 63.2561184,14.5008607 63.9000684,13.1949293 C64.5440184,11.888998 65.2103068,10.0165343 63.2522429,8.99213485 C61.2941789,7.96773545 53.6703984,11.6192664 51.3948695,14.0365394 C49.1193405,16.4538125 43.9814537,22.4015602 45.5029635,20.2732216 C47.0244733,18.144883 58.2827023,7.25179148 59.224502,5.43093782 C60.1663016,3.61008416 60.0095982,1.92446532 57.0890665,1.92238243 C54.1685348,1.92030023 40.7342251,11.4755404 38.263104,17.3724676 C35.7919829,23.2693948 39.9295602,13.1778367 38.8330696,8.97472229 C37.7365791,4.77160788 33.5508244,3.11586038 28.1550931,3.11201285 C22.7593618,3.10816532 16.0374479,7.02278099 17.3661948,10.092738 C18.6949418,13.1626949 24.0791152,9.33905365 26.7297674,10.787344 C29.3804195,12.2356344 31.5541862,14.0223916 31.0511568,18.426909 C30.5481274,22.8314264 28.1702418,24.644685 25.8600816,24.6430377 C23.5499215,24.6413904 21.2025995,24.6397166 19.9686422,21.2930792 C18.734685,17.9464418 20.0225595,14.6275172 18.6949418,13.1626949 C17.3673241,11.6978727 14.3233981,13.4970507 13.397072,16.2991665 C12.470746,19.1012822 14.0088313,26.0732927 14.012382,31.1203279 C14.0147492,34.4850181 12.9359313,38.4058288 10.7759285,42.8827601 C20.8489597,54.7863067 25.8856794,61.02806 25.8860874,61.6080199 C25.8864954,62.1879798 27.1214661,62.1232577 29.5909995,61.4138537 Z" id="路径-53" transform="translate(39.009822, 31.960852) rotate(3.000000) translate(-39.009822, -31.960852) "></path>
                                <polygon id="路径-52" points="0 44.0178734 26.2047479 71.2212397 37.2201599 60.0048935 7.85710361 36.5154757"></polygon>
                            </g>
                            <g id="编组-16备份" transform="translate(35.250457, 122.767932) scale(-1, 1) translate(-35.250457, -122.767932) translate(0.750457, 86.767932)" fill="#FFFFFF" stroke="#333333" stroke-width="2">
                                <path d="M29.5909995,61.4138537 C36.7131514,56.9959208 41.4745038,53.4601462 43.8750567,50.8065299 C47.475886,46.8261054 49.9818826,42.2332422 51.4133555,40.3128244 C52.8448283,38.3924067 61.5799317,30.7741235 63.2668891,29.8105363 C64.9538465,28.8469491 68.4512533,25.5155563 66.821562,23.8723404 C65.1918706,22.2291245 62.3143522,23.7742606 59.2380349,24.6668385 C56.1617176,25.5594164 50.7349824,29.2606198 50.1895877,28.3921986 C49.644193,27.5237775 54.4139405,21.7354678 57.1015188,19.6222303 C59.789097,17.5089927 63.2561184,14.5008607 63.9000684,13.1949293 C64.5440184,11.888998 65.2103068,10.0165343 63.2522429,8.99213485 C61.2941789,7.96773545 53.6703984,11.6192664 51.3948695,14.0365394 C49.1193405,16.4538125 43.9814537,22.4015602 45.5029635,20.2732216 C47.0244733,18.144883 58.2827023,7.25179148 59.224502,5.43093782 C60.1663016,3.61008416 60.0095982,1.92446532 57.0890665,1.92238243 C54.1685348,1.92030023 40.7342251,11.4755404 38.263104,17.3724676 C35.7919829,23.2693948 39.9295602,13.1778367 38.8330696,8.97472229 C37.7365791,4.77160788 33.5508244,3.11586038 28.1550931,3.11201285 C22.7593618,3.10816532 16.0374479,7.02278099 17.3661948,10.092738 C18.6949418,13.1626949 24.0791152,9.33905365 26.7297674,10.787344 C29.3804195,12.2356344 31.5541862,14.0223916 31.0511568,18.426909 C30.5481274,22.8314264 28.1702418,24.644685 25.8600816,24.6430377 C23.5499215,24.6413904 21.2025995,24.6397166 19.9686422,21.2930792 C18.734685,17.9464418 20.0225595,14.6275172 18.6949418,13.1626949 C17.3673241,11.6978727 14.3233981,13.4970507 13.397072,16.2991665 C12.470746,19.1012822 14.0088313,26.0732927 14.012382,31.1203279 C14.0147492,34.4850181 12.9359313,38.4058288 10.7759285,42.8827601 C20.8489597,54.7863067 25.8856794,61.02806 25.8860874,61.6080199 C25.8864954,62.1879798 27.1214661,62.1232577 29.5909995,61.4138537 Z" id="路径-53" transform="translate(39.009822, 31.960852) rotate(3.000000) translate(-39.009822, -31.960852) "></path>
                                <polygon id="路径-52" points="0 44.0178734 26.2047479 71.2212397 37.2201599 60.0048935 7.85710361 36.5154757"></polygon>
                            </g>
                            <polygon id="路径-40" stroke="#333333" stroke-width="2" fill="#FFFFFF" stroke-linejoin="round" points="253.517951 103.763713 261.845069 132.062056 246.968151 128.108176 258.406932 144.796046 227.893463 205.738397 243.773885 103.763713"></polygon>
                            <polygon id="路径-40" stroke="#333333" stroke-width="2" fill="#FFFFFF" stroke-linejoin="round" transform="translate(210.024197, 153.856540) scale(-1, 1) translate(-210.024197, -153.856540) " points="218.77697 103.763713 227 132.064553 212.309043 128.110324 223.604839 144.799667 193.048394 203.949367 209.154706 103.763713"></polygon>
                            <path d="M201.155628,44.4514661 C200.857519,58.6647131 201.568304,68.2668802 203.287982,73.2579674 C204.321064,76.2563228 208.389974,82.1561866 210.698136,84.6856012 C214.687986,89.0579038 216.175409,92.6132766 222.257896,93.4366681 C228.340382,94.2600595 229.423072,94.0752534 233.798759,92.6132766 C237.406023,91.4080406 240.589114,89.2038029 243.58388,84.6856012 C246.578645,80.1673995 251.19023,77.0710627 252.056374,69.9330971 C252.633804,65.1744534 253.216312,57.5995681 253.803899,47.2084412 L251.19023,26.5271932 L238.99092,23.257384 C231.497702,25.4372568 225.053097,26.5271932 219.657106,26.5271932 C214.261114,26.5271932 208.093955,26.5271932 201.155628,26.5271932 L201.155628,44.4514661 Z" id="路径-41" stroke="#333333" stroke-width="2" fill="#FFFFFF"></path>
                            <path d="M203.017126,38.8184246 C202.184444,49.0680491 201.768103,54.1928613 201.768103,54.1928613 C201.768103,54.1928613 193.029435,50.790263 193.029435,44.6210337 C193.029435,38.4518044 190.024273,24.4517161 195.155636,20.2918196 C198.576544,17.5185552 201.197041,17.5185552 203.017126,20.2918196 C203.796122,14.8168398 207.336615,10.085223 213.638603,6.0969692 C223.091586,0.114588434 237.172266,-1.93796698 242.256968,2.07950111 C247.34167,6.0969692 251.453736,7.32206297 248.842797,12.4764443 C246.231858,17.6308257 249.672961,16.4095464 253.743176,18.2294275 C257.81339,20.0493086 259.547888,34.4606705 257.237629,43.3067735 C254.92737,52.1528766 254.163186,50.9981303 251.502992,54.1928613 C249.729529,56.3226819 247.536585,49.320313 244.92416,33.1857544 C237.238213,37.0684525 230.892568,39.7030277 225.887224,41.0894801 C220.881881,42.4759325 213.258514,41.718914 203.017126,38.8184246 Z" id="路径-42" fill="#333333"></path>
                            <path d="M224.280056,251.087383 C266.894959,231.383478 293.962985,220.61682 305.484134,218.787409 C322.765857,216.043292 352.531655,214.475489 358.709146,221.54712 C364.886636,228.61875 375.269781,236.930363 372.018633,255.15102 C368.767484,273.371677 348.438352,295.835948 320.199755,314.435329 C301.374024,326.834917 267.054688,343.378977 217.241746,364.067511 C199.390983,339.560522 189.657555,326.102014 188.041462,323.691988 C186.425368,321.281963 184.779643,319.424203 183.104288,318.11871 L162.978782,329.162175 C140.923061,318.362262 126.213529,310.60002 118.850188,305.875447 C104.932632,296.945465 97.0105743,287.380377 94.331988,284.434671 C87.1255079,276.50953 72.4874075,256.013916 81.5659546,236.866599 C90.6445018,217.719282 109.834261,216.566097 118.850188,216.566097 C127.866116,216.566097 159.923413,222.774688 179.107209,230.573896 C191.896406,235.773368 206.954022,242.611197 224.280056,251.087383 Z" id="路径-43" stroke="#333333" stroke-width="2" fill="#333333"></path>
                            <path d="M227.275699,57.2489451 C227.275699,60.8143606 227.275699,63.318322 227.275699,64.7608293 C227.275699,66.9245902 228.665668,68.8776371 227.275699,68.8776371 C226.349053,68.8776371 225.36369,68.8776371 224.31961,68.8776371" id="路径-46" stroke="#333333" stroke-width="2"></path>
                            <ellipse id="椭圆形" fill="#333333" cx="215.384977" cy="59.9324895" rx="2.68038994" ry="2.6835443"></ellipse>
                            <ellipse id="椭圆形备份-6" fill="#333333" cx="238.615023" cy="59.9324895" rx="2.68038994" ry="2.6835443"></ellipse>
                            <path d="M219.345646,75.6220581 C226.589263,79.5294204 232.504646,79.5300954 237.091794,75.6240833" id="路径-47" stroke="#333333" stroke-width="2" stroke-linecap="round" stroke-linejoin="round" transform="translate(228.218720, 77.087572) rotate(-10.000000) translate(-228.218720, -77.087572) "></path>
                            <path d="M183.220298,318.447257 C266.188991,278.719427 309.132556,257.440284 312.050992,254.609829 C316.428645,250.364146 317.641758,248.993032 314.846375,241.518987" id="路径-50" stroke="#B7D7E3" stroke-width="2" stroke-linecap="round"></path>
                            <path d="M227,296.978903 C170.235532,270.184825 139.85778,252.30975 135.866742,243.353676 C135.866742,239.148834 138.091437,237.046414 142.540826,237.046414" id="路径-51" stroke="#B7D7E3" stroke-width="2"></path>
                            <g id="路径-13" transform="translate(210.024197, 104.658228)">
                                <mask id="mask-8" fill="white">
                                    <use xlink:href="#path-7"></use>
                                </mask>
                                <path stroke="#333333" stroke-width="2" d="M35.1107886,-1 L-1.19793092,-1 L17.1895497,100.26429 L20.0465961,89.6545166 L35.1107886,-1 Z"></path>
                                <polygon fill="#333333" mask="url(#mask-8)" points="15.865997 11.1095539 8.46720028 61.2899208 17.3794968 102.219383 25.4374223 58.8661006 18.3151187 11.1095539"></polygon>
                            </g>
                            <polygon id="路径-12" fill="#333333" points="226.477193 103.763713 219.852293 109.783142 225.628929 116.28692 228.408808 116.28692 234.147707 109.783142"></polygon>
                            <line x1="227" y1="104.658228" x2="243.975803" y2="116.28692" id="路径-8" stroke="#333333" stroke-width="2"></line>
                            <line x1="210.91766" y1="104.658228" x2="227.893463" y2="116.28692" id="路径-8备份" stroke="#333333" stroke-width="2" transform="translate(219.405562, 110.472574) scale(-1, 1) translate(-219.405562, -110.472574) "></line>
                            <line x1="227.446732" y1="190.531646" x2="227.446732" y2="248.675105" id="路径-49" stroke="#333333" stroke-width="2"></line>
                        </g>
                        <g id="编组-3备份" stroke="none" stroke-width="1" fill="none" fill-rule="evenodd" transform="translate(527.000000, 475.000000)">
                            <polygon id="路径-56" stroke="#333333" stroke-width="2" fill="#FFFFFF" transform="translate(35.423295, 45.319014) rotate(32.000000) translate(-35.423295, -45.319014) " points="7.82765261 24.7777668 9.47830137 54.3412028 35.205642 66.1481476 61.0597634 54.0721451 63.0189379 24.4898796"></polygon>
                            <polygon id="路径-55" stroke="#333333" stroke-width="2" fill="#E5E4F9" transform="translate(46.962517, 26.852399) rotate(32.000000) translate(-46.962517, -26.852399) " points="47.0386566 13.4199749 19.3668739 28.0865853 46.8978083 40.2848239 74.5581591 27.7986981"></polygon>
                            <line x1="32.0717204" y1="35.9525458" x2="31.9187753" y2="65.1246879" id="路径-57" stroke="#333333" stroke-width="2" transform="translate(31.995248, 50.538617) rotate(32.000000) translate(-31.995248, -50.538617) "></line>
                        </g>
                        <g id="编组-2" stroke="none" stroke-width="1" fill="none" fill-rule="evenodd" transform="translate(232.000000, 212.000000)">
                            <polygon id="路径-58" stroke="#333333" stroke-width="2" fill="#FACEE8" points="23.3664477 0 0 42.2104533 23.3664477 56.8888889 47.0943396 42.2104533"></polygon>
                            <polygon id="路径-9" stroke="#333333" stroke-width="2" fill="#FFFFFF" stroke-linejoin="round" points="-5.58992229e-15 46.2222222 23.693903 62.132335 47.0943396 46.2222222 23.693903 80"></polygon>
                            <line x1="24" y1="0" x2="24" y2="56.8888889" id="路径-7" stroke="#333333" stroke-width="2"></line>
                            <polyline id="路径-10" stroke="#333333" stroke-width="2" points="47.0943396 41.7777778 23.5471698 29.3333333 0 41.324164"></polyline>
                        </g>
                        <g id="编组-3" stroke="none" stroke-width="1" fill="none" fill-rule="evenodd" transform="translate(142.000000, 583.000000)">
                            <polygon id="路径-56" stroke="#333333" stroke-width="2" fill="#FFFFFF" transform="translate(38.197052, 42.460829) rotate(-19.000000) translate(-38.197052, -42.460829) " points="10.8850291 21.8072774 12.6603717 51.2552006 38.1804957 63.1362794 63.7116944 51.2347343 65.5090744 21.7853788"></polygon>
                            <polygon id="路径-55" stroke="#333333" stroke-width="2" fill="#D4EBE3" transform="translate(31.115891, 21.895645) rotate(-19.000000) translate(-31.115891, -21.895645) " points="31.1216827 8.51964094 3.80386837 22.9922573 31.1109689 35.2716492 58.4279137 22.9703587"></polygon>
                            <line x1="40.1953025" y1="33.7550237" x2="40.1836685" y2="62.8046338" id="路径-57" stroke="#333333" stroke-width="2" transform="translate(40.189485, 48.279829) rotate(-19.000000) translate(-40.189485, -48.279829) "></line>
                        </g>
                    </g>
                </g>
            </g>
        </g>
    </g>
</svg>