<svg width="1025" height="232" viewBox="0 0 1025 232" fill="none" xmlns="http://www.w3.org/2000/svg">
<path d="M240.01 104.038L203.075 135.128C204.386 137.167 204.806 139.761 204.002 142.251C203.267 144.529 201.652 146.271 199.659 147.22L209.016 195.501C213.09 194.453 216.793 191.954 219.59 187.721C224.812 179.817 228.32 170.536 229.624 160.967C230.487 154.638 232.482 148.458 235.479 142.827C240.022 134.291 242.604 124.678 242.983 115.168C243.157 110.798 242.039 107.069 240.01 104.038Z" fill="url(#paint0_linear_649:74)"/>
<path d="M189.044 135.754C190.965 132.431 194.998 130.784 198.788 132.02C199.246 132.169 199.682 132.355 200.094 132.572L237.446 101.245C230.952 95.2112 219.937 93.4179 209.882 96.6782L145.376 117.595C143.81 118.103 142.576 119.096 141.752 120.337L189.044 135.754Z" fill="url(#paint1_linear_649:74)"/>
<path d="M181.702 183.632C187.519 191.679 196.625 196.638 204.985 196.395L195.651 148.405C194.972 148.361 194.287 148.233 193.611 148.012C190.038 146.848 187.789 143.488 187.865 139.907L140.457 124.458C140.48 125.815 140.901 127.189 141.779 128.403L181.702 183.632Z" fill="url(#paint2_linear_649:74)"/>
<path d="M169.138 223.349L128.356 197.59C126.835 199.475 124.515 200.679 121.915 200.679C119.536 200.679 117.391 199.671 115.878 198.055L73.162 221.935C75.4108 225.512 78.9164 228.286 83.7794 229.656C92.8593 232.213 102.71 232.705 112.152 230.997C118.397 229.867 124.852 229.867 131.097 230.997C140.565 232.709 150.443 232.211 159.543 229.635C163.725 228.451 166.902 226.228 169.138 223.349Z" fill="url(#paint3_linear_649:74)"/>
<path d="M123.468 183.972C127.212 184.778 130.019 188.118 130.019 192.116C130.019 192.599 129.978 193.073 129.899 193.534L171.134 219.497C174.847 211.436 173.143 200.37 166.945 191.782L127.186 136.689C126.22 135.351 124.898 134.481 123.468 134.078L123.468 183.972Z" fill="url(#paint4_linear_649:74)"/>
<path d="M75.7902 191.956C69.9566 199.991 68.0677 210.209 70.8813 218.108L113.506 194.375C113.338 193.714 113.248 193.021 113.248 192.308C113.248 188.541 115.739 185.357 119.159 184.323L119.159 134.33C117.88 134.771 116.707 135.598 115.827 136.81L75.7902 191.956Z" fill="url(#paint5_linear_649:74)"/>
<path d="M39.9251 135.129L2.99059 104.038C0.961745 107.069 -0.156389 110.798 0.0177103 115.168C0.396568 124.678 2.97841 134.291 7.52191 142.827C10.5188 148.458 12.5133 154.639 13.376 160.967C14.6805 170.537 18.1884 179.817 23.4104 187.721C26.2072 191.954 29.9107 194.454 33.9847 195.502L43.3418 147.221C41.3485 146.271 39.7332 144.529 38.9981 142.251C38.1947 139.761 38.615 137.167 39.9251 135.129Z" fill="url(#paint6_linear_649:74)"/>
<path d="M38.3135 196.2C46.6608 196.442 55.7534 191.488 61.5617 183.449L101.425 128.276C102.301 127.063 102.722 125.691 102.745 124.335L55.4075 139.768C55.4837 143.346 53.2377 146.703 49.6706 147.866C48.9949 148.086 48.3115 148.215 47.6337 148.258L38.3135 196.2Z" fill="url(#paint7_linear_649:74)"/>
<path d="M44.2707 132.151C48.0657 130.914 52.1049 132.562 54.0294 135.889L101.391 120.456C100.566 119.214 99.331 118.22 97.7624 117.712L33.1597 96.7736C23.0898 93.5099 12.0579 95.3051 5.55469 101.345L42.9623 132.704C43.3752 132.486 43.8121 132.3 44.2707 132.151Z" fill="url(#paint8_linear_649:74)"/>
<path d="M164.892 45.6403L146.937 0.66683C150.427 -0.339225 154.295 -0.257566 158.369 1.25958C167.235 4.56101 175.518 10.0037 182.178 16.9922C186.571 21.6017 191.792 25.4215 197.504 28.2032C206.14 32.4093 213.823 38.6361 219.676 46.0788C222.81 50.065 224.027 54.3836 223.758 58.6084L175.259 52.6484C174.978 50.4465 173.831 48.3613 171.906 46.9535C169.803 45.415 167.223 45.0158 164.892 45.6403Z" fill="url(#paint9_linear_649:74)"/>
<path d="M160.805 49.1802C158.463 52.4145 158.778 56.7721 161.334 59.6329L132.107 99.9976C131.185 98.8285 130.625 97.3444 130.628 95.6927L130.736 27.6717C130.752 17.0691 135.856 7.11136 143.582 2.7793L161.733 48.1041C161.399 48.4304 161.088 48.7893 160.805 49.1802Z" fill="url(#paint10_linear_649:74)"/>
<path d="M223.56 63.1325C221.207 71.1813 213.69 78.3344 204.262 81.3961L139.551 102.409C138.129 102.871 136.696 102.848 135.402 102.451L164.702 62.0055C168.075 63.1851 171.956 62.0778 174.164 59.0301C174.582 58.4528 174.916 57.8398 175.167 57.2059L223.56 63.1325Z" fill="url(#paint11_linear_649:74)"/>
<path d="M98.5133 0.66683L80.5579 45.6403C78.2272 45.0158 75.647 45.415 73.5437 46.9535C71.6191 48.3613 70.4723 50.4465 70.1915 52.6484L21.6925 58.6084C21.4235 54.3836 22.6401 50.065 25.7746 46.0788C31.6271 38.6361 39.3098 32.4093 47.946 28.2032C53.6577 25.4215 58.8796 21.6017 63.2723 16.9922C69.9321 10.0037 78.2148 4.56101 87.0809 1.25958C91.1552 -0.257566 95.0232 -0.339225 98.5133 0.66683Z" fill="url(#paint12_linear_649:74)"/>
<path d="M41.487 81.3166C32.0724 78.258 24.5668 71.1121 22.2173 63.0714L70.5383 57.1508C70.7894 57.7841 71.1225 58.3965 71.5401 58.9732C73.7447 62.0178 77.62 63.124 80.9879 61.9456L110.244 102.35C108.952 102.747 107.521 102.77 106.101 102.308L41.487 81.3166Z" fill="url(#paint13_linear_649:74)"/>
<path d="M84.2355 59.6904C86.7959 56.8267 87.1104 52.4648 84.765 49.2272C84.4816 48.8359 84.1705 48.4766 83.8365 48.15L102.014 2.7793C109.752 7.11575 114.863 17.0836 114.88 27.6969L114.988 95.7868C114.99 97.4401 114.429 98.9257 113.507 100.096L84.2355 59.6904Z" fill="url(#paint14_linear_649:74)"/>
<mask id="mask0_649:74" style="mask-type:alpha" maskUnits="userSpaceOnUse" x="0" y="0" width="243" height="232">
<path d="M164.892 45.6403L146.937 0.66683C150.427 -0.339225 154.295 -0.257566 158.37 1.25958C167.236 4.56101 175.518 10.0037 182.178 16.9922C186.571 21.6017 191.793 25.4215 197.504 28.2032C206.141 32.4093 213.823 38.6361 219.676 46.0788C222.81 50.065 224.027 54.3836 223.758 58.6084L175.259 52.6484C174.978 50.4465 173.831 48.3613 171.907 46.9535C169.803 45.415 167.223 45.0158 164.892 45.6403Z" fill="url(#paint15_linear_649:74)"/>
<path d="M240.009 104.038L203.075 135.128C204.385 137.167 204.805 139.761 204.002 142.25C203.267 144.528 201.651 146.271 199.658 147.22L209.015 195.501C213.089 194.453 216.793 191.953 219.59 187.72C224.812 179.816 228.32 170.536 229.624 160.967C230.487 154.638 232.481 148.457 235.478 142.827C240.022 134.29 242.603 124.677 242.982 115.168C243.156 110.798 242.038 107.069 240.009 104.038Z" fill="url(#paint16_linear_649:74)"/>
<path d="M169.139 223.35L128.357 197.591C126.836 199.475 124.515 200.679 121.916 200.679C119.537 200.679 117.392 199.671 115.879 198.056L73.1629 221.935C75.4117 225.513 78.9173 228.286 83.7803 229.656C92.8602 232.214 102.711 232.705 112.153 230.997C118.398 229.868 124.853 229.868 131.098 230.997C140.565 232.71 150.444 232.211 159.544 229.636C163.726 228.452 166.903 226.229 169.139 223.35Z" fill="url(#paint17_linear_649:74)"/>
<path d="M98.5128 0.666831L80.5575 45.6403C78.2268 45.0158 75.6465 45.415 73.5433 46.9535C71.6186 48.3613 70.4718 50.4465 70.191 52.6484L21.692 58.6084C21.423 54.3836 22.6397 50.065 25.7741 46.0788C31.6266 38.6361 39.3093 32.4093 47.9456 28.2032C53.6573 25.4215 58.8791 21.6017 63.2719 16.9922C69.9317 10.0037 78.2143 4.56101 87.0804 1.25958C91.1547 -0.257565 95.0227 -0.339225 98.5128 0.666831Z" fill="url(#paint18_linear_649:74)"/>
<path d="M39.9251 135.128L2.99059 104.038C0.961745 107.069 -0.156389 110.798 0.0177103 115.168C0.396568 124.677 2.97841 134.29 7.52191 142.827C10.5188 148.457 12.5133 154.638 13.376 160.967C14.6805 170.536 18.1884 179.816 23.4104 187.72C26.2072 191.953 29.9107 194.453 33.9847 195.501L43.3418 147.22C41.3485 146.271 39.7332 144.528 38.9981 142.25C38.1947 139.761 38.615 137.167 39.9251 135.128Z" fill="url(#paint19_linear_649:74)"/>
<path d="M160.806 49.1802C158.464 52.4145 158.778 56.7721 161.334 59.6329L132.107 99.9976C131.186 98.8285 130.626 97.3444 130.628 95.6927L130.736 27.6717C130.752 17.0691 135.856 7.11136 143.582 2.7793L161.733 48.1041C161.399 48.4304 161.089 48.7893 160.806 49.1802Z" fill="url(#paint20_linear_649:74)"/>
<path d="M189.043 135.754C190.965 132.43 194.998 130.784 198.787 132.02C199.245 132.169 199.681 132.354 200.094 132.572L237.445 101.245C230.952 95.2108 219.936 93.4175 209.882 96.6779L145.375 117.595C143.809 118.103 142.575 119.096 141.752 120.336L189.043 135.754Z" fill="url(#paint21_linear_649:74)"/>
<path d="M123.469 183.972C127.213 184.779 130.019 188.119 130.019 192.117C130.019 192.6 129.978 193.074 129.9 193.534L171.135 219.498C174.848 211.437 173.144 200.371 166.946 191.783L127.187 136.689C126.221 135.352 124.899 134.481 123.469 134.079L123.469 183.972Z" fill="url(#paint22_linear_649:74)"/>
<path d="M41.4865 81.3166C32.0719 78.258 24.5664 71.1121 22.2168 63.0714L70.5378 57.1508C70.7889 57.7841 71.122 58.3965 71.5396 58.9732C73.7442 62.0178 77.6195 63.124 80.9874 61.9456L110.244 102.35C108.952 102.747 107.521 102.77 106.101 102.308L41.4865 81.3166Z" fill="url(#paint23_linear_649:74)"/>
<path d="M38.3135 196.199C46.6608 196.442 55.7534 191.488 61.5617 183.449L101.425 128.275C102.301 127.063 102.722 125.69 102.745 124.334L55.4075 139.768C55.4837 143.346 53.2377 146.702 49.6706 147.865C48.9949 148.085 48.3115 148.214 47.6337 148.258L38.3135 196.199Z" fill="url(#paint24_linear_649:74)"/>
<path d="M84.235 59.6904C86.7954 56.8267 87.11 52.4648 84.7645 49.2272C84.4811 48.8359 84.17 48.4766 83.836 48.15L102.014 2.7793C109.751 7.11575 114.863 17.0836 114.879 27.6969L114.987 95.7868C114.99 97.4401 114.429 98.9257 113.506 100.096L84.235 59.6904Z" fill="url(#paint25_linear_649:74)"/>
<path d="M223.56 63.1325C221.207 71.1813 213.691 78.3344 204.262 81.3961L139.551 102.409C138.129 102.871 136.696 102.848 135.402 102.451L164.702 62.0055C168.075 63.1851 171.956 62.0778 174.164 59.0301C174.582 58.4528 174.916 57.8398 175.167 57.2059L223.56 63.1325Z" fill="url(#paint26_linear_649:74)"/>
<path d="M181.701 183.631C187.518 191.679 196.624 196.638 204.984 196.395L195.65 148.405C194.971 148.361 194.287 148.232 193.61 148.012C190.038 146.848 187.788 143.488 187.865 139.906L140.456 124.458C140.479 125.814 140.901 127.189 141.778 128.402L181.701 183.631Z" fill="url(#paint27_linear_649:74)"/>
<path d="M75.7911 191.957C69.9575 199.992 68.0686 210.21 70.8822 218.109L113.507 194.376C113.339 193.715 113.249 193.022 113.249 192.309C113.249 188.541 115.74 185.358 119.16 184.324L119.16 134.331C117.881 134.772 116.708 135.598 115.828 136.81L75.7911 191.957Z" fill="url(#paint28_linear_649:74)"/>
<path d="M44.2707 132.15C48.0657 130.914 52.1049 132.562 54.0294 135.889L101.391 120.455C100.566 119.214 99.331 118.219 97.7624 117.711L33.1597 96.7729C23.0898 93.5092 12.0579 95.3044 5.55469 101.344L42.9623 132.703C43.3752 132.485 43.8121 132.3 44.2707 132.15Z" fill="url(#paint29_linear_649:74)"/>
</mask>
<g mask="url(#mask0_649:74)">
<g filter="url(#filter0_f_649:74)">
<circle cx="176" cy="41" r="16" fill="#FAC7B5" fill-opacity="0.8"/>
</g>
<g filter="url(#filter1_f_649:74)">
<ellipse cx="113.5" cy="50.5" rx="20.5" ry="31.5" fill="#FAC7B5" fill-opacity="0.65"/>
</g>
</g>
<path d="M293 59.5625H361.594V82.2969H316.672V105.656H356.672V128.391H316.672V171.594H293V59.5625Z" fill="#242729"/>
<path d="M426.86 173C418.422 173 410.818 171.073 404.047 167.219C397.277 163.365 391.964 158.026 388.11 151.203C384.308 144.38 382.407 136.724 382.407 128.234V59.5625H406.079V128.234C406.079 134.484 408.058 139.693 412.016 143.859C415.974 147.974 420.922 150.031 426.86 150.031C432.797 150.031 437.719 147.974 441.625 143.859C445.532 139.693 447.485 134.484 447.485 128.234V59.5625H471.157V128.234C471.157 136.724 469.23 144.38 465.375 151.203C461.573 158.026 456.287 163.365 449.516 167.219C442.797 171.073 435.245 173 426.86 173Z" fill="#242729"/>
<path d="M532.829 58C540.016 58 547.438 59.6406 555.094 62.9219C562.75 66.151 568.714 70.2135 572.985 75.1094L559.235 93.8594C555.12 89.849 550.511 86.6979 545.407 84.4062C540.355 82.0625 535.537 80.8906 530.954 80.8906C526.943 80.8906 523.688 81.75 521.188 83.4688C518.74 85.1354 517.516 87.3229 517.516 90.0312C517.516 92.0625 518.167 93.8333 519.469 95.3438C520.771 96.8542 522.516 98.1302 524.704 99.1719C526.943 100.161 529.495 101.099 532.36 101.984C535.224 102.818 538.219 103.703 541.344 104.641C544.521 105.526 547.698 106.542 550.875 107.688C554.053 108.781 557.073 110.214 559.938 111.984C562.803 113.703 565.329 115.708 567.516 118C569.756 120.24 571.527 123.104 572.829 126.594C574.131 130.031 574.782 133.938 574.782 138.312C574.782 142.792 573.844 147.115 571.969 151.281C570.094 155.396 567.438 159.094 564 162.375C560.615 165.656 556.266 168.286 550.954 170.266C545.693 172.193 539.886 173.156 533.532 173.156C524.938 173.156 516.266 171.151 507.516 167.141C498.766 163.078 491.969 158 487.125 151.906L502.282 134.641C507.073 139.589 511.943 143.417 516.891 146.125C521.839 148.833 527.386 150.188 533.532 150.188C538.584 150.188 542.672 149.12 545.797 146.984C548.922 144.849 550.485 142.01 550.485 138.469C550.485 136.49 549.834 134.745 548.532 133.234C547.23 131.724 545.485 130.5 543.297 129.562C541.11 128.625 538.584 127.766 535.719 126.984C532.907 126.151 529.912 125.318 526.735 124.484C523.61 123.599 520.485 122.635 517.36 121.594C514.235 120.552 511.24 119.198 508.375 117.531C505.563 115.865 503.063 113.938 500.875 111.75C498.688 109.562 496.943 106.776 495.641 103.391C494.339 99.9531 493.688 96.0729 493.688 91.75C493.688 82.1146 497.36 74.0938 504.704 67.6875C512.047 61.2292 521.422 58 532.829 58Z" fill="#242729"/>
<path d="M620.907 65.5C629.657 60.5 639.396 58 650.125 58C660.855 58 670.594 60.5 679.344 65.5C688.094 70.5 694.943 77.401 699.891 86.2031C704.891 95.0052 707.391 104.797 707.391 115.578C707.391 126.359 704.891 136.151 699.891 144.953C694.943 153.755 688.094 160.656 679.344 165.656C670.594 170.656 660.855 173.156 650.125 173.156C639.396 173.156 629.657 170.656 620.907 165.656C612.209 160.656 605.386 153.755 600.438 144.953C595.49 136.151 593.016 126.359 593.016 115.578C593.016 104.797 595.49 95.0052 600.438 86.2031C605.386 77.401 612.209 70.5 620.907 65.5ZM673.563 90.9688C667.313 84.3542 659.5 81.0469 650.125 81.0469C640.75 81.0469 632.938 84.3542 626.688 90.9688C620.438 97.5312 617.313 105.734 617.313 115.578C617.313 125.422 620.438 133.651 626.688 140.266C632.938 146.88 640.75 150.188 650.125 150.188C659.5 150.188 667.313 146.88 673.563 140.266C679.813 133.651 682.938 125.422 682.938 115.578C682.938 105.734 679.813 97.5312 673.563 90.9688Z" fill="#242729"/>
<path d="M806.172 59.5625V82.2969H773.36V171.594H749.688V82.2969H717.032V59.5625H806.172Z" fill="#242729"/>
<path d="M879.157 171.594L872.125 152.844H828.922L821.735 171.594H796.579L841.11 59.5625H860.25L904.938 171.594H879.157ZM836.735 132.531H864.313L850.719 96.75L836.735 132.531Z" fill="#242729"/>
<path d="M938.313 65.5C947.063 60.5 956.803 58 967.532 58C978.261 58 988 60.5 996.75 65.5C1005.5 70.5 1012.35 77.401 1017.3 86.2031C1022.3 95.0052 1024.8 104.797 1024.8 115.578C1024.8 126.359 1022.3 136.151 1017.3 144.953C1012.35 153.755 1005.5 160.656 996.75 165.656C988 170.656 978.261 173.156 967.532 173.156C956.803 173.156 947.063 170.656 938.313 165.656C929.615 160.656 922.792 153.755 917.844 144.953C912.896 136.151 910.422 126.359 910.422 115.578C910.422 104.797 912.896 95.0052 917.844 86.2031C922.792 77.401 929.615 70.5 938.313 65.5ZM990.969 90.9688C984.719 84.3542 976.907 81.0469 967.532 81.0469C958.157 81.0469 950.344 84.3542 944.094 90.9688C937.844 97.5312 934.719 105.734 934.719 115.578C934.719 125.422 937.844 133.651 944.094 140.266C950.344 146.88 958.157 150.188 967.532 150.188C976.907 150.188 984.719 146.88 990.969 140.266C997.219 133.651 1000.34 125.422 1000.34 115.578C1000.34 105.734 997.219 97.5312 990.969 90.9688Z" fill="#242729"/>
<defs>
<filter id="filter0_f_649:74" x="140" y="5" width="72" height="72" filterUnits="userSpaceOnUse" color-interpolation-filters="sRGB">
<feFlood flood-opacity="0" result="BackgroundImageFix"/>
<feBlend mode="normal" in="SourceGraphic" in2="BackgroundImageFix" result="shape"/>
<feGaussianBlur stdDeviation="10" result="effect1_foregroundBlur_649:74"/>
</filter>
<filter id="filter1_f_649:74" x="73" y="-1" width="81" height="103" filterUnits="userSpaceOnUse" color-interpolation-filters="sRGB">
<feFlood flood-opacity="0" result="BackgroundImageFix"/>
<feBlend mode="normal" in="SourceGraphic" in2="BackgroundImageFix" result="shape"/>
<feGaussianBlur stdDeviation="10" result="effect1_foregroundBlur_649:74"/>
</filter>
<linearGradient id="paint0_linear_649:74" x1="192" y1="136.5" x2="218" y2="174.5" gradientUnits="userSpaceOnUse">
<stop offset="0.463542" stop-color="#EA302A"/>
<stop offset="1" stop-color="#C5151B"/>
</linearGradient>
<linearGradient id="paint1_linear_649:74" x1="192" y1="136.5" x2="218" y2="174.5" gradientUnits="userSpaceOnUse">
<stop offset="0.463542" stop-color="#EA302A"/>
<stop offset="1" stop-color="#C5151B"/>
</linearGradient>
<linearGradient id="paint2_linear_649:74" x1="192" y1="136.5" x2="218" y2="174.5" gradientUnits="userSpaceOnUse">
<stop offset="0.463542" stop-color="#EA302A"/>
<stop offset="1" stop-color="#C5151B"/>
</linearGradient>
<linearGradient id="paint3_linear_649:74" x1="121" y1="232" x2="121" y2="194" gradientUnits="userSpaceOnUse">
<stop stop-color="#9E0B0F"/>
<stop offset="1" stop-color="#DA181F"/>
</linearGradient>
<linearGradient id="paint4_linear_649:74" x1="121" y1="232" x2="121" y2="194" gradientUnits="userSpaceOnUse">
<stop stop-color="#9E0B0F"/>
<stop offset="1" stop-color="#DA181F"/>
</linearGradient>
<linearGradient id="paint5_linear_649:74" x1="121" y1="232" x2="121" y2="194" gradientUnits="userSpaceOnUse">
<stop stop-color="#9E0B0F"/>
<stop offset="1" stop-color="#DA181F"/>
</linearGradient>
<linearGradient id="paint6_linear_649:74" x1="-2.78285e-06" y1="174" x2="42.5" y2="146" gradientUnits="userSpaceOnUse">
<stop stop-color="#9A0A0E"/>
<stop offset="0.86899" stop-color="#DA181F"/>
</linearGradient>
<linearGradient id="paint7_linear_649:74" x1="-2.78285e-06" y1="174" x2="42.5" y2="146" gradientUnits="userSpaceOnUse">
<stop stop-color="#9A0A0E"/>
<stop offset="0.86899" stop-color="#DA181F"/>
</linearGradient>
<linearGradient id="paint8_linear_649:74" x1="-2.78285e-06" y1="174" x2="42.5" y2="146" gradientUnits="userSpaceOnUse">
<stop stop-color="#9A0A0E"/>
<stop offset="0.86899" stop-color="#DA181F"/>
</linearGradient>
<linearGradient id="paint9_linear_649:74" x1="177" y1="16" x2="131" y2="91" gradientUnits="userSpaceOnUse">
<stop stop-color="#F9B198"/>
<stop offset="1" stop-color="#EE1C25"/>
</linearGradient>
<linearGradient id="paint10_linear_649:74" x1="177" y1="16" x2="131" y2="91" gradientUnits="userSpaceOnUse">
<stop stop-color="#F9B198"/>
<stop offset="1" stop-color="#EE1C25"/>
</linearGradient>
<linearGradient id="paint11_linear_649:74" x1="177" y1="16" x2="131" y2="91" gradientUnits="userSpaceOnUse">
<stop stop-color="#F9B198"/>
<stop offset="1" stop-color="#EE1C25"/>
</linearGradient>
<linearGradient id="paint12_linear_649:74" x1="54.5" y1="22" x2="109" y2="119" gradientUnits="userSpaceOnUse">
<stop stop-color="#EE2729"/>
<stop offset="1" stop-color="#EE1C25"/>
</linearGradient>
<linearGradient id="paint13_linear_649:74" x1="54.5" y1="22" x2="109" y2="119" gradientUnits="userSpaceOnUse">
<stop stop-color="#EE2729"/>
<stop offset="1" stop-color="#EE1C25"/>
</linearGradient>
<linearGradient id="paint14_linear_649:74" x1="54.5" y1="22" x2="109" y2="119" gradientUnits="userSpaceOnUse">
<stop stop-color="#EE2729"/>
<stop offset="1" stop-color="#EE1C25"/>
</linearGradient>
<linearGradient id="paint15_linear_649:74" x1="121.5" y1="-1.20419e-06" x2="121.5" y2="232" gradientUnits="userSpaceOnUse">
<stop stop-color="#EF4934"/>
<stop offset="1" stop-color="#D2171D"/>
</linearGradient>
<linearGradient id="paint16_linear_649:74" x1="121.5" y1="-1.20419e-06" x2="121.5" y2="232" gradientUnits="userSpaceOnUse">
<stop stop-color="#EF4934"/>
<stop offset="1" stop-color="#D2171D"/>
</linearGradient>
<linearGradient id="paint17_linear_649:74" x1="121.5" y1="-1.20419e-06" x2="121.5" y2="232" gradientUnits="userSpaceOnUse">
<stop stop-color="#EF4934"/>
<stop offset="1" stop-color="#D2171D"/>
</linearGradient>
<linearGradient id="paint18_linear_649:74" x1="121.5" y1="-1.20419e-06" x2="121.5" y2="232" gradientUnits="userSpaceOnUse">
<stop stop-color="#EF4934"/>
<stop offset="1" stop-color="#D2171D"/>
</linearGradient>
<linearGradient id="paint19_linear_649:74" x1="121.5" y1="-1.20419e-06" x2="121.5" y2="232" gradientUnits="userSpaceOnUse">
<stop stop-color="#EF4934"/>
<stop offset="1" stop-color="#D2171D"/>
</linearGradient>
<linearGradient id="paint20_linear_649:74" x1="121.5" y1="-1.20419e-06" x2="121.5" y2="232" gradientUnits="userSpaceOnUse">
<stop stop-color="#EF4934"/>
<stop offset="1" stop-color="#D2171D"/>
</linearGradient>
<linearGradient id="paint21_linear_649:74" x1="121.5" y1="-1.20419e-06" x2="121.5" y2="232" gradientUnits="userSpaceOnUse">
<stop stop-color="#EF4934"/>
<stop offset="1" stop-color="#D2171D"/>
</linearGradient>
<linearGradient id="paint22_linear_649:74" x1="121.5" y1="-1.20419e-06" x2="121.5" y2="232" gradientUnits="userSpaceOnUse">
<stop stop-color="#EF4934"/>
<stop offset="1" stop-color="#D2171D"/>
</linearGradient>
<linearGradient id="paint23_linear_649:74" x1="121.5" y1="-1.20419e-06" x2="121.5" y2="232" gradientUnits="userSpaceOnUse">
<stop stop-color="#EF4934"/>
<stop offset="1" stop-color="#D2171D"/>
</linearGradient>
<linearGradient id="paint24_linear_649:74" x1="121.5" y1="-1.20419e-06" x2="121.5" y2="232" gradientUnits="userSpaceOnUse">
<stop stop-color="#EF4934"/>
<stop offset="1" stop-color="#D2171D"/>
</linearGradient>
<linearGradient id="paint25_linear_649:74" x1="121.5" y1="-1.20419e-06" x2="121.5" y2="232" gradientUnits="userSpaceOnUse">
<stop stop-color="#EF4934"/>
<stop offset="1" stop-color="#D2171D"/>
</linearGradient>
<linearGradient id="paint26_linear_649:74" x1="121.5" y1="-1.20419e-06" x2="121.5" y2="232" gradientUnits="userSpaceOnUse">
<stop stop-color="#EF4934"/>
<stop offset="1" stop-color="#D2171D"/>
</linearGradient>
<linearGradient id="paint27_linear_649:74" x1="121.5" y1="-1.20419e-06" x2="121.5" y2="232" gradientUnits="userSpaceOnUse">
<stop stop-color="#EF4934"/>
<stop offset="1" stop-color="#D2171D"/>
</linearGradient>
<linearGradient id="paint28_linear_649:74" x1="121.5" y1="-1.20419e-06" x2="121.5" y2="232" gradientUnits="userSpaceOnUse">
<stop stop-color="#EF4934"/>
<stop offset="1" stop-color="#D2171D"/>
</linearGradient>
<linearGradient id="paint29_linear_649:74" x1="121.5" y1="-1.20419e-06" x2="121.5" y2="232" gradientUnits="userSpaceOnUse">
<stop stop-color="#EF4934"/>
<stop offset="1" stop-color="#D2171D"/>
</linearGradient>
</defs>
</svg>
