<svg width="64" height="64" viewBox="0 0 64 64" fill="none" xmlns="http://www.w3.org/2000/svg">
    <circle cx="32" cy="32" r="32" fill="white" fill-opacity="0.1"/>
    <path d="M42.8882 47C40.9692 46.4485 39.0838 46.4212 37.2016 46.997C37.1893 46.9848 37.174 46.9758 37.1618 46.9636C37.2138 46.8606 37.2475 46.7485 37.3179 46.6576C37.5199 46.3909 37.8045 46.2303 38.1014 46.097C38.2299 46.0394 38.2361 45.9758 38.184 45.8667C38.0218 45.5334 37.7892 45.2485 37.5076 45.0152C37.0393 44.6334 36.5588 44.2667 36.0661 43.9183C34.952 43.1274 34.2756 42.0759 34.0552 40.7365C34.046 40.6881 34.0369 40.6365 34.0216 40.5729C32.8738 40.5002 31.7261 40.4275 30.5783 40.3547C30.5753 40.3487 30.5753 40.3396 30.5722 40.3335C31.2272 40.1426 31.8822 39.9517 32.5677 39.7517C32.2005 39.5729 31.8393 39.5123 31.4751 39.482C30.4131 39.3972 29.3663 39.5335 28.3257 39.7123C25.8405 40.1366 23.4226 40.8184 21.0169 41.5547C17.8736 42.5183 14.7732 43.6062 11.7034 44.7758C11.633 44.8031 11.5626 44.8273 11.4738 44.8607C11.4738 44.7092 11.4738 44.5758 11.4738 44.4152C10.9413 44.7334 10.3873 44.9182 9.79353 44.991C9.20283 45.0637 8.61519 45.0425 8 44.9092C8.71619 44.3698 9.40483 43.8516 10.1302 43.3062C9.63132 43.3062 9.17529 43.3062 8.71925 43.3062C8.71619 43.294 8.71313 43.285 8.71007 43.2728C13.6224 40.7699 18.5347 38.2639 23.444 35.7609C23.4409 35.7458 23.4379 35.7306 23.4348 35.7155C22.3666 35.7155 21.2985 35.7155 20.2334 35.7155C20.2303 35.7003 20.2273 35.6882 20.2211 35.6731C20.2487 35.6518 20.2732 35.6246 20.3038 35.6064C25.3691 32.4247 30.4314 29.2399 35.4968 26.0582C37.3607 24.8885 39.3318 23.9219 41.361 23.0704C42.0312 22.7886 42.5883 22.3613 43.1239 21.8886C43.9197 21.1856 44.7062 20.4735 45.5357 19.8099C46.2886 19.2038 47.1303 18.7251 48.024 18.3432C49.2911 17.7978 50.5184 17.9311 51.7212 18.5402C52.3334 18.8523 52.8598 19.2856 53.3832 19.722C54.2279 20.425 55.0604 21.1371 55.899 21.8431C55.9174 21.8583 55.9449 21.8644 56 21.8916C55.6082 22.0431 55.2654 22.1704 54.9288 22.3098C54.4268 22.5159 53.9279 22.7371 53.426 22.9431C52.5048 23.3189 51.8314 23.9734 51.2897 24.7825C50.8214 25.4824 50.5245 26.2612 50.2185 27.0369C49.7991 28.1036 49.3676 29.1641 48.9636 30.2368C48.3576 31.8338 47.317 33.0852 45.9274 34.0761C44.7858 34.8882 43.5554 35.5518 42.3098 36.1852C41.2416 36.7276 40.1765 37.2851 39.1206 37.8518C38.79 38.0306 38.487 38.2548 38.184 38.479C37.474 38.9972 37.1648 39.7305 37.0914 40.5759C36.9934 41.685 37.327 42.6547 38.0555 43.5001C38.7043 44.2516 39.3991 44.9546 40.2346 45.5031C40.6142 45.7516 41.0274 45.9273 41.462 46.0728C41.8048 46.1879 42.1384 46.3485 42.4597 46.5152C42.6403 46.603 42.7872 46.7606 42.8882 47Z" fill="white" fill-opacity="0.2"/>
</svg>
