<svg width="80" height="80" viewBox="0 0 80 80" fill="none" xmlns="http://www.w3.org/2000/svg">
    <circle cx="40" cy="40" r="40" fill="white"/>
    <circle cx="40" cy="40" r="32" fill="white"/>
    <path d="M51.3419 55.5116C49.3429 54.9314 47.379 54.9027 45.4183 55.5084C45.4055 55.4957 45.3896 55.4861 45.3768 55.4734C45.431 55.365 45.4661 55.247 45.5394 55.1514C45.7499 54.8708 46.0464 54.7018 46.3556 54.5615C46.4895 54.501 46.4959 54.434 46.4417 54.3192C46.2727 53.9685 46.0304 53.6689 45.7371 53.4234C45.2493 53.0217 44.7488 52.6359 44.2355 52.2693C43.075 51.4371 42.3704 50.3309 42.1409 48.9217C42.1313 48.8707 42.1217 48.8165 42.1058 48.7495C40.9102 48.673 39.7147 48.5965 38.5191 48.52C38.5159 48.5136 38.5159 48.504 38.5127 48.4977C39.195 48.2968 39.8773 48.0959 40.5914 47.8855C40.2088 47.6974 39.8326 47.6337 39.4532 47.6018C38.3469 47.5125 37.2566 47.656 36.1726 47.8441C33.5838 48.2904 31.0652 49.0078 28.5593 49.7825C25.285 50.7963 22.0554 51.9409 18.8577 53.1715C18.7844 53.2002 18.711 53.2257 18.6186 53.2608C18.6186 53.1014 18.6186 52.9611 18.6186 52.7921C18.0638 53.1269 17.4868 53.3214 16.8683 53.3979C16.2529 53.4744 15.6408 53.4521 15 53.3118C15.746 52.7443 16.4634 52.1991 17.219 51.6252C16.6993 51.6252 16.2243 51.6252 15.7492 51.6252C15.746 51.6125 15.7428 51.6029 15.7397 51.5902C20.8567 48.9568 25.9737 46.3201 31.0875 43.6867C31.0843 43.6708 31.0811 43.6548 31.0779 43.6389C29.9653 43.6389 28.8526 43.6389 27.7431 43.6389C27.7399 43.6229 27.7367 43.6102 27.7303 43.5943C27.759 43.5719 27.7845 43.5432 27.8164 43.5241C33.0928 40.1765 38.3661 36.8258 43.6425 33.4782C45.5841 32.2476 47.6373 31.2306 49.751 30.3347C50.4492 30.0382 51.0295 29.5886 51.5874 29.0913C52.4163 28.3516 53.2357 27.6024 54.0997 26.9042C54.884 26.2666 55.7607 25.7628 56.6916 25.3611C58.0115 24.7873 59.29 24.9275 60.5429 25.5684C61.1806 25.8967 61.7289 26.3527 62.2741 26.8118C63.1541 27.5514 64.0212 28.3006 64.8948 29.0435C64.9139 29.0594 64.9426 29.0658 65 29.0945C64.5919 29.2539 64.2348 29.3878 63.8841 29.5344C63.3613 29.7512 62.8416 29.984 62.3188 30.2008C61.3591 30.5961 60.6577 31.2847 60.0934 32.136C59.6056 32.8725 59.2964 33.6918 58.9776 34.508C58.5408 35.6302 58.0912 36.7461 57.6704 37.8747C57.0392 39.5549 55.9552 40.8716 54.5077 41.9141C53.3186 42.7685 52.0369 43.4667 50.7393 44.1331C49.6267 44.7037 48.5172 45.2904 47.4173 45.8865C47.0729 46.0746 46.7573 46.3106 46.4417 46.5465C45.702 47.0917 45.38 47.8632 45.3035 48.7527C45.2015 49.9196 45.549 50.9398 46.3078 51.8293C46.9837 52.62 47.7074 53.3596 48.5778 53.9367C48.9731 54.1981 49.4035 54.383 49.8562 54.536C50.2133 54.6572 50.5608 54.8262 50.8956 55.0015C51.0837 55.094 51.2367 55.2598 51.3419 55.5116Z" fill="#C4C4C4"/>
</svg>
