<svg width="64" height="64" viewBox="0 0 64 64" fill="none" xmlns="http://www.w3.org/2000/svg">
    <circle cx="32" cy="32" r="32" fill="white"/>
    <path d="M43.3419 47.5116C41.3429 46.9314 39.379 46.9027 37.4183 47.5084C37.4055 47.4957 37.3896 47.4861 37.3768 47.4734C37.431 47.365 37.4661 47.247 37.5394 47.1514C37.7499 46.8708 38.0464 46.7018 38.3556 46.5615C38.4895 46.501 38.4959 46.434 38.4417 46.3192C38.2727 45.9685 38.0304 45.6689 37.7371 45.4234C37.2493 45.0217 36.7488 44.6359 36.2355 44.2693C35.075 43.4371 34.3704 42.3309 34.1409 40.9217C34.1313 40.8707 34.1217 40.8165 34.1058 40.7495C32.9102 40.673 31.7147 40.5965 30.5191 40.52C30.5159 40.5136 30.5159 40.504 30.5127 40.4977C31.195 40.2968 31.8773 40.0959 32.5914 39.8855C32.2088 39.6974 31.8326 39.6337 31.4532 39.6018C30.3469 39.5125 29.2566 39.656 28.1726 39.8441C25.5838 40.2904 23.0652 41.0078 20.5593 41.7825C17.285 42.7963 14.0554 43.9409 10.8577 45.1715C10.7844 45.2002 10.711 45.2257 10.6186 45.2608C10.6186 45.1014 10.6186 44.9611 10.6186 44.7921C10.0638 45.1269 9.48677 45.3214 8.86827 45.3979C8.25295 45.4744 7.64082 45.4521 7 45.3118C7.74603 44.7443 8.46337 44.1991 9.21896 43.6252C8.69929 43.6252 8.22426 43.6252 7.74922 43.6252C7.74603 43.6125 7.74284 43.6029 7.73965 43.5902C12.8567 40.9568 17.9737 38.3201 23.0875 35.6867C23.0843 35.6708 23.0811 35.6548 23.0779 35.6389C21.9653 35.6389 20.8526 35.6389 19.7431 35.6389C19.7399 35.623 19.7367 35.6102 19.7303 35.5943C19.759 35.5719 19.7845 35.5432 19.8164 35.5241C25.0928 32.1765 30.3661 28.8258 35.6425 25.4782C37.5841 24.2476 39.6373 23.2306 41.751 22.3347C42.4492 22.0382 43.0295 21.5886 43.5874 21.0913C44.4163 20.3516 45.2357 19.6024 46.0997 18.9042C46.884 18.2666 47.7607 17.7628 48.6916 17.3611C50.0115 16.7873 51.29 16.9275 52.5429 17.5684C53.1806 17.8967 53.7289 18.3527 54.2741 18.8118C55.1541 19.5514 56.0212 20.3006 56.8948 21.0435C56.9139 21.0594 56.9426 21.0658 57 21.0945C56.5919 21.2539 56.2348 21.3878 55.8841 21.5344C55.3613 21.7512 54.8416 21.984 54.3188 22.2008C53.3591 22.5961 52.6577 23.2847 52.0934 24.136C51.6056 24.8725 51.2964 25.6918 50.9776 26.508C50.5408 27.6302 50.0912 28.7461 49.6704 29.8747C49.0392 31.5549 47.9552 32.8716 46.5077 33.9141C45.3186 34.7685 44.0369 35.4667 42.7393 36.1331C41.6267 36.7037 40.5172 37.2904 39.4173 37.8865C39.0729 38.0746 38.7573 38.3106 38.4417 38.5465C37.702 39.0917 37.38 39.8632 37.3035 40.7527C37.2015 41.9196 37.549 42.9398 38.3078 43.8293C38.9837 44.62 39.7074 45.3596 40.5778 45.9367C40.9731 46.1981 41.4035 46.383 41.8562 46.536C42.2133 46.6572 42.5608 46.8262 42.8956 47.0015C43.0837 47.094 43.2367 47.2598 43.3419 47.5116Z" fill="url(#paint0_linear)"/>
    <defs>
        <linearGradient id="paint0_linear" x1="7" y1="17" x2="60.0721" y2="23.9073" gradientUnits="userSpaceOnUse">
            <stop stop-color="#FF8212"/>
            <stop offset="1" stop-color="#ED4454"/>
        </linearGradient>
    </defs>
</svg>
