<svg width="50" height="31" viewBox="0 0 50 31" fill="none" xmlns="http://www.w3.org/2000/svg">
    <path d="M36.3419 30.5116C34.3429 29.9314 32.379 29.9027 30.4183 30.5084C30.4055 30.4957 30.3896 30.4861 30.3768 30.4734C30.431 30.365 30.4661 30.247 30.5394 30.1514C30.7499 29.8708 31.0464 29.7018 31.3556 29.5615C31.4895 29.501 31.4959 29.434 31.4417 29.3192C31.2727 28.9685 31.0304 28.6689 30.7371 28.4234C30.2493 28.0217 29.7488 27.6359 29.2355 27.2693C28.075 26.4371 27.3704 25.3309 27.1409 23.9217C27.1313 23.8707 27.1217 23.8165 27.1058 23.7495C25.9102 23.673 24.7147 23.5965 23.5191 23.52C23.5159 23.5136 23.5159 23.504 23.5127 23.4977C24.195 23.2968 24.8773 23.0959 25.5914 22.8855C25.2088 22.6974 24.8326 22.6337 24.4532 22.6018C23.3469 22.5125 22.2566 22.656 21.1726 22.8441C18.5838 23.2904 16.0652 24.0078 13.5593 24.7825C10.285 25.7963 7.05541 26.9409 3.85768 28.1715C3.78435 28.2002 3.71102 28.2257 3.61857 28.2608C3.61857 28.1014 3.61857 27.9611 3.61857 27.7921C3.06383 28.1269 2.48677 28.3214 1.86827 28.3979C1.25295 28.4744 0.640821 28.4521 0 28.3118C0.746031 27.7443 1.46337 27.1991 2.21896 26.6252C1.69929 26.6252 1.22426 26.6252 0.749219 26.6252C0.746031 26.6125 0.742843 26.6029 0.739654 26.5902C5.85666 23.9568 10.9737 21.3201 16.0875 18.6867C16.0843 18.6708 16.0811 18.6548 16.0779 18.6389C14.9653 18.6389 13.8526 18.6389 12.7431 18.6389C12.7399 18.623 12.7367 18.6102 12.7303 18.5943C12.759 18.5719 12.7845 18.5432 12.8164 18.5241C18.0928 15.1765 23.3661 11.8258 28.6425 8.47821C30.5841 7.24758 32.6373 6.23055 34.751 5.33468C35.4492 5.03818 36.0295 4.58865 36.5874 4.09129C37.4163 3.35164 38.2357 2.60242 39.0997 1.90421C39.884 1.26658 40.7607 0.762846 41.6916 0.361138C43.0115 -0.212732 44.29 -0.0724529 45.5429 0.568368C46.1806 0.896749 46.7289 1.35266 47.2741 1.81175C48.1541 2.55141 49.0212 3.30063 49.8948 4.04347C49.9139 4.05941 49.9426 4.06579 50 4.09448C49.5919 4.25389 49.2348 4.38779 48.8841 4.53445C48.3613 4.75124 47.8416 4.98398 47.3188 5.20077C46.3591 5.59611 45.6577 6.28475 45.0934 7.13599C44.6056 7.87246 44.2964 8.69181 43.9776 9.50799C43.5408 10.6302 43.0912 11.7461 42.6704 12.8747C42.0392 14.5549 40.9552 15.8716 39.5077 16.9141C38.3186 17.7685 37.0369 18.4667 35.7393 19.1331C34.6267 19.7037 33.5172 20.2904 32.4173 20.8865C32.0729 21.0746 31.7573 21.3106 31.4417 21.5465C30.702 22.0917 30.38 22.8632 30.3035 23.7527C30.2015 24.9196 30.549 25.9398 31.3078 26.8293C31.9837 27.62 32.7074 28.3596 33.5778 28.9367C33.9731 29.1981 34.4035 29.383 34.8562 29.536C35.2133 29.6572 35.5608 29.8262 35.8956 30.0015C36.0837 30.094 36.2367 30.2598 36.3419 30.5116Z" fill="url(#paint0_linear)"/>
    <defs>
        <linearGradient id="paint0_linear" x1="0" y1="0" x2="53.0721" y2="6.90731" gradientUnits="userSpaceOnUse">
            <stop stop-color="#FF8212"/>
            <stop offset="1" stop-color="#ED4454"/>
        </linearGradient>
    </defs>
</svg>
