<svg width="370" height="354" viewBox="0 0 370 354" fill="none" xmlns="http://www.w3.org/2000/svg">
<path d="M365.447 158.411L309.209 205.75C311.204 208.855 311.844 212.804 310.621 216.595C309.501 220.063 307.042 222.716 304.007 224.162L318.254 297.676C324.457 296.08 330.096 292.275 334.355 285.829C342.306 273.794 347.647 259.663 349.634 245.093C350.947 235.457 353.984 226.046 358.547 217.473C365.465 204.475 369.397 189.838 369.973 175.358C370.238 168.704 368.536 163.026 365.447 158.411Z" fill="url(#paint0_linear_1895:66)"/>
<path d="M287.844 206.704C290.77 201.643 296.911 199.136 302.68 201.017C303.378 201.245 304.042 201.527 304.67 201.858L361.543 154.159C351.656 144.971 334.883 142.241 319.573 147.205L221.354 179.054C218.969 179.827 217.091 181.339 215.837 183.228L287.844 206.704Z" fill="url(#paint1_linear_1895:66)"/>
<path d="M276.665 279.603C285.522 291.856 299.387 299.407 312.116 299.037L297.904 225.966C296.87 225.899 295.828 225.703 294.798 225.368C289.358 223.595 285.933 218.479 286.049 213.026L213.865 189.503C213.899 191.569 214.541 193.662 215.877 195.51L276.665 279.603Z" fill="url(#paint2_linear_1895:66)"/>
<path d="M257.535 340.078L195.439 300.857C193.123 303.726 189.59 305.56 185.631 305.56C182.009 305.56 178.743 304.024 176.439 301.565L111.399 337.925C114.823 343.371 120.16 347.595 127.565 349.681C141.39 353.575 156.389 354.323 170.767 351.722C180.275 350.002 190.103 350.002 199.612 351.722C214.028 354.33 229.069 353.571 242.925 349.649C249.293 347.847 254.13 344.462 257.535 340.078Z" fill="url(#paint3_linear_1895:66)"/>
<path d="M187.996 280.121C193.696 281.349 197.97 286.435 197.97 292.522C197.97 293.258 197.908 293.979 197.788 294.68L260.574 334.213C266.227 321.939 263.632 305.089 254.196 292.014L193.657 208.126C192.187 206.09 190.173 204.764 187.996 204.151L187.996 280.121Z" fill="url(#paint4_linear_1895:66)"/>
<path d="M115.4 292.278C106.518 304.512 103.642 320.071 107.926 332.098L172.827 295.961C172.571 294.955 172.435 293.9 172.435 292.814C172.435 287.078 176.228 282.23 181.435 280.656L181.435 204.535C179.487 205.207 177.701 206.465 176.361 208.31L115.4 292.278Z" fill="url(#paint5_linear_1895:66)"/>
<path d="M60.7912 205.751L4.55357 158.412C1.46438 163.027 -0.238122 168.705 0.0269662 175.359C0.603826 189.839 4.53502 204.476 11.4531 217.474C16.0162 226.047 19.0532 235.458 20.3668 245.094C22.3529 259.664 27.6941 273.795 35.6454 285.83C39.9039 292.275 45.543 296.081 51.7461 297.677L65.9935 224.163C62.9585 222.717 60.499 220.064 59.3797 216.596C58.1564 212.805 58.7964 208.855 60.7912 205.751Z" fill="url(#paint6_linear_1895:66)"/>
<path d="M58.3373 298.74C71.0472 299.109 84.8918 291.566 93.7357 279.325L154.433 195.317C155.767 193.471 156.408 191.381 156.442 189.317L84.3652 212.815C84.4812 218.264 81.0613 223.374 75.6299 225.145C74.6012 225.48 73.5606 225.676 72.5285 225.743L58.3373 298.74Z" fill="url(#paint7_linear_1895:66)"/>
<path d="M67.408 201.217C73.1863 199.334 79.3366 201.844 82.2668 206.909L154.381 183.41C153.126 181.519 151.244 180.006 148.856 179.232L50.4899 147.351C35.1573 142.381 18.3597 145.115 8.45774 154.311L65.4157 202.059C66.0445 201.728 66.7096 201.445 67.408 201.217Z" fill="url(#paint8_linear_1895:66)"/>
<path d="M251.07 69.4933L223.731 1.01534C229.045 -0.516515 234.934 -0.392178 241.138 1.91787C254.638 6.94474 267.249 15.232 277.389 25.8729C284.078 32.8915 292.029 38.7075 300.726 42.9431C313.876 49.3474 325.573 58.8285 334.485 70.161C339.257 76.2304 341.11 82.8061 340.7 89.2389L266.854 80.1641C266.427 76.8114 264.68 73.6365 261.75 71.4928C258.547 69.1502 254.619 68.5425 251.07 69.4933Z" fill="url(#paint9_linear_1895:66)"/>
<path d="M244.847 74.8833C241.281 79.8079 241.759 86.4429 245.652 90.7988L201.149 152.259C199.747 150.479 198.894 148.219 198.898 145.705L199.062 42.1338C199.087 25.9899 206.859 10.828 218.622 4.23184L246.259 73.2448C245.751 73.7415 245.278 74.2881 244.847 74.8833Z" fill="url(#paint10_linear_1895:66)"/>
<path d="M340.399 96.1274C336.817 108.383 325.371 119.274 311.015 123.936L212.485 155.931C210.319 156.634 208.137 156.599 206.167 155.994L250.78 94.4115C255.916 96.2076 261.825 94.5215 265.187 89.881C265.824 89.002 266.332 88.0686 266.714 87.1034L340.399 96.1274Z" fill="url(#paint11_linear_1895:66)"/>
<path d="M149.999 1.01534L122.66 69.4933C119.111 68.5425 115.182 69.1502 111.98 71.4928C109.049 73.6365 107.303 76.8114 106.875 80.1641L33.0293 89.2389C32.6197 82.8061 34.4722 76.2304 39.2448 70.161C48.156 58.8285 59.854 49.3474 73.0038 42.9431C81.7006 38.7075 89.6515 32.8915 96.34 25.8729C106.48 15.232 119.092 6.94474 132.592 1.91787C138.795 -0.392177 144.685 -0.516515 149.999 1.01534Z" fill="url(#paint12_linear_1895:66)"/>
<path d="M63.1691 123.815C48.8341 119.158 37.4059 108.277 33.8284 96.0345L107.403 87.0196C107.786 87.9838 108.293 88.9162 108.929 89.7943C112.286 94.4302 118.186 96.1146 123.314 94.3203L167.861 155.841C165.893 156.445 163.714 156.48 161.552 155.778L63.1691 123.815Z" fill="url(#paint13_linear_1895:66)"/>
<path d="M128.259 90.8864C132.158 86.5261 132.637 79.8845 129.065 74.9548C128.634 74.359 128.16 73.8119 127.652 73.3146L155.33 4.23184C167.111 10.8347 174.894 26.0119 174.919 42.1722L175.083 145.848C175.087 148.365 174.233 150.627 172.828 152.409L128.259 90.8864Z" fill="url(#paint14_linear_1895:66)"/>
<mask id="mask0_1895:66" style="mask-type:alpha" maskUnits="userSpaceOnUse" x="0" y="0" width="370" height="354">
<path d="M251.07 69.4933L223.731 1.01534C229.045 -0.516515 234.935 -0.392178 241.138 1.91787C254.638 6.94474 267.249 15.232 277.39 25.8729C284.078 32.8915 292.029 38.7075 300.726 42.9431C313.876 49.3474 325.574 58.8285 334.485 70.161C339.258 76.2304 341.11 82.8061 340.701 89.2389L266.855 80.1641C266.427 76.8114 264.681 73.6364 261.75 71.4928C258.548 69.1502 254.619 68.5425 251.07 69.4933Z" fill="url(#paint15_linear_1895:66)"/>
<path d="M365.446 158.411L309.208 205.75C311.203 208.854 311.843 212.804 310.619 216.594C309.5 220.063 307.041 222.716 304.006 224.161L318.253 297.676C324.456 296.08 330.095 292.274 334.354 285.829C342.305 273.794 347.646 259.663 349.632 245.093C350.946 235.456 353.983 226.046 358.546 217.472C365.464 204.474 369.395 189.838 369.972 175.358C370.237 168.704 368.535 163.026 365.446 158.411Z" fill="url(#paint16_linear_1895:66)"/>
<path d="M257.536 340.079L195.44 300.858C193.124 303.727 189.591 305.561 185.633 305.561C182.01 305.561 178.744 304.025 176.441 301.566L111.4 337.926C114.824 343.372 120.162 347.596 127.566 349.682C141.392 353.576 156.391 354.324 170.768 351.723C180.277 350.003 190.105 350.003 199.613 351.723C214.029 354.331 229.07 353.572 242.927 349.65C249.294 347.848 254.131 344.463 257.536 340.079Z" fill="url(#paint17_linear_1895:66)"/>
<path d="M149.999 1.01534L122.659 69.4933C119.11 68.5425 115.182 69.1502 111.979 71.4928C109.049 73.6364 107.302 76.8114 106.875 80.1641L33.0289 89.2389C32.6193 82.8061 34.4718 76.2304 39.2445 70.161C48.1557 58.8285 59.8536 49.3474 73.0034 42.9431C81.7002 38.7075 89.6511 32.8915 96.3396 25.8729C106.48 15.232 119.092 6.94474 132.591 1.91787C138.795 -0.392177 144.684 -0.516514 149.999 1.01534Z" fill="url(#paint18_linear_1895:66)"/>
<path d="M60.7912 205.75L4.55357 158.411C1.46438 163.026 -0.238122 168.704 0.0269662 175.358C0.603826 189.838 4.53502 204.474 11.4531 217.472C16.0162 226.046 19.0532 235.456 20.3668 245.093C22.3529 259.663 27.6941 273.794 35.6454 285.829C39.9039 292.274 45.5429 296.08 51.7461 297.676L65.9935 224.161C62.9585 222.716 60.499 220.063 59.3797 216.594C58.1564 212.804 58.7964 208.854 60.7912 205.75Z" fill="url(#paint19_linear_1895:66)"/>
<path d="M244.847 74.8833C241.282 79.8079 241.76 86.4428 245.652 90.7988L201.15 152.259C199.747 150.479 198.894 148.219 198.898 145.705L199.062 42.1338C199.088 25.9899 206.859 10.828 218.622 4.23184L246.259 73.2447C245.751 73.7415 245.278 74.2881 244.847 74.8833Z" fill="url(#paint20_linear_1895:66)"/>
<path d="M287.843 206.703C290.768 201.642 296.909 199.136 302.679 201.017C303.377 201.244 304.041 201.527 304.668 201.858L361.542 154.158C351.654 144.971 334.882 142.24 319.572 147.205L221.353 179.053C218.968 179.827 217.09 181.339 215.836 183.227L287.843 206.703Z" fill="url(#paint21_linear_1895:66)"/>
<path d="M187.997 280.122C193.698 281.35 197.972 286.436 197.972 292.523C197.972 293.259 197.909 293.98 197.789 294.681L260.576 334.214C266.228 321.94 263.634 305.09 254.197 292.015L193.658 208.127C192.188 206.091 190.174 204.765 187.997 204.152L187.997 280.122Z" fill="url(#paint22_linear_1895:66)"/>
<path d="M63.1687 123.815C48.8337 119.158 37.4055 108.277 33.828 96.0345L107.403 87.0195C107.785 87.9838 108.293 88.9162 108.928 89.7943C112.285 94.4302 118.186 96.1145 123.314 94.3203L167.86 155.841C165.893 156.445 163.714 156.48 161.552 155.778L63.1687 123.815Z" fill="url(#paint23_linear_1895:66)"/>
<path d="M58.3373 298.739C71.0472 299.108 84.8918 291.565 93.7357 279.324L154.433 195.316C155.767 193.469 156.408 191.379 156.442 189.315L84.3652 212.814C84.4812 218.262 81.0613 223.373 75.6299 225.144C74.6012 225.479 73.5606 225.675 72.5285 225.742L58.3373 298.739Z" fill="url(#paint24_linear_1895:66)"/>
<path d="M128.259 90.8864C132.157 86.5261 132.636 79.8845 129.065 74.9548C128.633 74.359 128.16 73.8119 127.651 73.3146L155.329 4.23184C167.11 10.8347 174.893 26.0119 174.919 42.1722L175.083 145.848C175.087 148.365 174.233 150.627 172.828 152.409L128.259 90.8864Z" fill="url(#paint25_linear_1895:66)"/>
<path d="M340.4 96.1274C336.817 108.383 325.372 119.274 311.015 123.936L212.485 155.931C210.32 156.634 208.137 156.599 206.167 155.994L250.78 94.4115C255.916 96.2076 261.825 94.5215 265.187 89.881C265.824 89.002 266.332 88.0686 266.715 87.1034L340.4 96.1274Z" fill="url(#paint26_linear_1895:66)"/>
<path d="M276.664 279.603C285.521 291.856 299.386 299.407 312.115 299.037L297.903 225.966C296.869 225.899 295.827 225.703 294.797 225.367C289.357 223.595 285.932 218.479 286.048 213.025L213.863 189.503C213.898 191.569 214.54 193.661 215.876 195.509L276.664 279.603Z" fill="url(#paint27_linear_1895:66)"/>
<path d="M115.402 292.279C106.519 304.513 103.643 320.072 107.927 332.099L172.829 295.962C172.573 294.956 172.437 293.901 172.437 292.815C172.437 287.079 176.229 282.231 181.437 280.657L181.437 204.536C179.489 205.208 177.703 206.466 176.363 208.311L115.402 292.279Z" fill="url(#paint28_linear_1895:66)"/>
<path d="M67.408 201.216C73.1863 199.333 79.3366 201.842 82.2668 206.908L154.381 183.409C153.126 181.518 151.244 180.005 148.856 179.23L50.4899 147.349C35.1573 142.38 18.3597 145.113 8.45774 154.31L65.4157 202.058C66.0445 201.726 66.7096 201.444 67.408 201.216Z" fill="url(#paint29_linear_1895:66)"/>
</mask>
<g mask="url(#mask0_1895:66)">
<g filter="url(#filter0_f_1895:66)">
<circle cx="267.983" cy="62.4287" r="24.3621" fill="#FAC7B5" fill-opacity="0.8"/>
</g>
<g filter="url(#filter1_f_1895:66)">
<ellipse cx="172.818" cy="76.893" rx="31.2139" ry="47.9629" fill="#FAC7B5" fill-opacity="0.65"/>
</g>
</g>
<defs>
<filter id="filter0_f_1895:66" x="213.168" y="7.61404" width="109.629" height="109.629" filterUnits="userSpaceOnUse" color-interpolation-filters="sRGB">
<feFlood flood-opacity="0" result="BackgroundImageFix"/>
<feBlend mode="normal" in="SourceGraphic" in2="BackgroundImageFix" result="shape"/>
<feGaussianBlur stdDeviation="15.2263" result="effect1_foregroundBlur_1895:66"/>
</filter>
<filter id="filter1_f_1895:66" x="111.152" y="-1.52243" width="123.333" height="156.831" filterUnits="userSpaceOnUse" color-interpolation-filters="sRGB">
<feFlood flood-opacity="0" result="BackgroundImageFix"/>
<feBlend mode="normal" in="SourceGraphic" in2="BackgroundImageFix" result="shape"/>
<feGaussianBlur stdDeviation="15.2263" result="effect1_foregroundBlur_1895:66"/>
</filter>
<linearGradient id="paint0_linear_1895:66" x1="292.345" y1="207.839" x2="331.934" y2="265.699" gradientUnits="userSpaceOnUse">
<stop offset="0.463542" stop-color="#EA302A"/>
<stop offset="1" stop-color="#C5151B"/>
</linearGradient>
<linearGradient id="paint1_linear_1895:66" x1="292.345" y1="207.839" x2="331.934" y2="265.699" gradientUnits="userSpaceOnUse">
<stop offset="0.463542" stop-color="#EA302A"/>
<stop offset="1" stop-color="#C5151B"/>
</linearGradient>
<linearGradient id="paint2_linear_1895:66" x1="292.345" y1="207.839" x2="331.934" y2="265.699" gradientUnits="userSpaceOnUse">
<stop offset="0.463542" stop-color="#EA302A"/>
<stop offset="1" stop-color="#C5151B"/>
</linearGradient>
<linearGradient id="paint3_linear_1895:66" x1="184.238" y1="353.25" x2="184.238" y2="295.39" gradientUnits="userSpaceOnUse">
<stop stop-color="#9E0B0F"/>
<stop offset="1" stop-color="#DA181F"/>
</linearGradient>
<linearGradient id="paint4_linear_1895:66" x1="184.238" y1="353.25" x2="184.238" y2="295.39" gradientUnits="userSpaceOnUse">
<stop stop-color="#9E0B0F"/>
<stop offset="1" stop-color="#DA181F"/>
</linearGradient>
<linearGradient id="paint5_linear_1895:66" x1="184.238" y1="353.25" x2="184.238" y2="295.39" gradientUnits="userSpaceOnUse">
<stop stop-color="#9E0B0F"/>
<stop offset="1" stop-color="#DA181F"/>
</linearGradient>
<linearGradient id="paint6_linear_1895:66" x1="-4.23725e-06" y1="264.938" x2="64.7118" y2="222.304" gradientUnits="userSpaceOnUse">
<stop stop-color="#9A0A0E"/>
<stop offset="0.86899" stop-color="#DA181F"/>
</linearGradient>
<linearGradient id="paint7_linear_1895:66" x1="-4.23725e-06" y1="264.938" x2="64.7118" y2="222.304" gradientUnits="userSpaceOnUse">
<stop stop-color="#9A0A0E"/>
<stop offset="0.86899" stop-color="#DA181F"/>
</linearGradient>
<linearGradient id="paint8_linear_1895:66" x1="-4.23725e-06" y1="264.938" x2="64.7118" y2="222.304" gradientUnits="userSpaceOnUse">
<stop stop-color="#9A0A0E"/>
<stop offset="0.86899" stop-color="#DA181F"/>
</linearGradient>
<linearGradient id="paint9_linear_1895:66" x1="269.505" y1="24.3621" x2="199.464" y2="138.559" gradientUnits="userSpaceOnUse">
<stop stop-color="#F9B198"/>
<stop offset="1" stop-color="#EE1C25"/>
</linearGradient>
<linearGradient id="paint10_linear_1895:66" x1="269.505" y1="24.3621" x2="199.464" y2="138.559" gradientUnits="userSpaceOnUse">
<stop stop-color="#F9B198"/>
<stop offset="1" stop-color="#EE1C25"/>
</linearGradient>
<linearGradient id="paint11_linear_1895:66" x1="269.505" y1="24.3621" x2="199.464" y2="138.559" gradientUnits="userSpaceOnUse">
<stop stop-color="#F9B198"/>
<stop offset="1" stop-color="#EE1C25"/>
</linearGradient>
<linearGradient id="paint12_linear_1895:66" x1="82.983" y1="33.4979" x2="165.966" y2="181.193" gradientUnits="userSpaceOnUse">
<stop stop-color="#EE2729"/>
<stop offset="1" stop-color="#EE1C25"/>
</linearGradient>
<linearGradient id="paint13_linear_1895:66" x1="82.983" y1="33.4979" x2="165.966" y2="181.193" gradientUnits="userSpaceOnUse">
<stop stop-color="#EE2729"/>
<stop offset="1" stop-color="#EE1C25"/>
</linearGradient>
<linearGradient id="paint14_linear_1895:66" x1="82.983" y1="33.4979" x2="165.966" y2="181.193" gradientUnits="userSpaceOnUse">
<stop stop-color="#EE2729"/>
<stop offset="1" stop-color="#EE1C25"/>
</linearGradient>
<linearGradient id="paint15_linear_1895:66" x1="185" y1="-1.83354e-06" x2="185" y2="353.25" gradientUnits="userSpaceOnUse">
<stop stop-color="#EF4934"/>
<stop offset="1" stop-color="#D2171D"/>
</linearGradient>
<linearGradient id="paint16_linear_1895:66" x1="185" y1="-1.83354e-06" x2="185" y2="353.25" gradientUnits="userSpaceOnUse">
<stop stop-color="#EF4934"/>
<stop offset="1" stop-color="#D2171D"/>
</linearGradient>
<linearGradient id="paint17_linear_1895:66" x1="185" y1="-1.83354e-06" x2="185" y2="353.25" gradientUnits="userSpaceOnUse">
<stop stop-color="#EF4934"/>
<stop offset="1" stop-color="#D2171D"/>
</linearGradient>
<linearGradient id="paint18_linear_1895:66" x1="185" y1="-1.83354e-06" x2="185" y2="353.25" gradientUnits="userSpaceOnUse">
<stop stop-color="#EF4934"/>
<stop offset="1" stop-color="#D2171D"/>
</linearGradient>
<linearGradient id="paint19_linear_1895:66" x1="185" y1="-1.83354e-06" x2="185" y2="353.25" gradientUnits="userSpaceOnUse">
<stop stop-color="#EF4934"/>
<stop offset="1" stop-color="#D2171D"/>
</linearGradient>
<linearGradient id="paint20_linear_1895:66" x1="185" y1="-1.83354e-06" x2="185" y2="353.25" gradientUnits="userSpaceOnUse">
<stop stop-color="#EF4934"/>
<stop offset="1" stop-color="#D2171D"/>
</linearGradient>
<linearGradient id="paint21_linear_1895:66" x1="185" y1="-1.83354e-06" x2="185" y2="353.25" gradientUnits="userSpaceOnUse">
<stop stop-color="#EF4934"/>
<stop offset="1" stop-color="#D2171D"/>
</linearGradient>
<linearGradient id="paint22_linear_1895:66" x1="185" y1="-1.83354e-06" x2="185" y2="353.25" gradientUnits="userSpaceOnUse">
<stop stop-color="#EF4934"/>
<stop offset="1" stop-color="#D2171D"/>
</linearGradient>
<linearGradient id="paint23_linear_1895:66" x1="185" y1="-1.83354e-06" x2="185" y2="353.25" gradientUnits="userSpaceOnUse">
<stop stop-color="#EF4934"/>
<stop offset="1" stop-color="#D2171D"/>
</linearGradient>
<linearGradient id="paint24_linear_1895:66" x1="185" y1="-1.83354e-06" x2="185" y2="353.25" gradientUnits="userSpaceOnUse">
<stop stop-color="#EF4934"/>
<stop offset="1" stop-color="#D2171D"/>
</linearGradient>
<linearGradient id="paint25_linear_1895:66" x1="185" y1="-1.83354e-06" x2="185" y2="353.25" gradientUnits="userSpaceOnUse">
<stop stop-color="#EF4934"/>
<stop offset="1" stop-color="#D2171D"/>
</linearGradient>
<linearGradient id="paint26_linear_1895:66" x1="185" y1="-1.83354e-06" x2="185" y2="353.25" gradientUnits="userSpaceOnUse">
<stop stop-color="#EF4934"/>
<stop offset="1" stop-color="#D2171D"/>
</linearGradient>
<linearGradient id="paint27_linear_1895:66" x1="185" y1="-1.83354e-06" x2="185" y2="353.25" gradientUnits="userSpaceOnUse">
<stop stop-color="#EF4934"/>
<stop offset="1" stop-color="#D2171D"/>
</linearGradient>
<linearGradient id="paint28_linear_1895:66" x1="185" y1="-1.83354e-06" x2="185" y2="353.25" gradientUnits="userSpaceOnUse">
<stop stop-color="#EF4934"/>
<stop offset="1" stop-color="#D2171D"/>
</linearGradient>
<linearGradient id="paint29_linear_1895:66" x1="185" y1="-1.83354e-06" x2="185" y2="353.25" gradientUnits="userSpaceOnUse">
<stop stop-color="#EF4934"/>
<stop offset="1" stop-color="#D2171D"/>
</linearGradient>
</defs>
</svg>
