<?xml version="1.0" encoding="UTF-8"?>
<svg width="144px" height="144px" viewBox="0 0 144 144" version="1.1" xmlns="http://www.w3.org/2000/svg" xmlns:xlink="http://www.w3.org/1999/xlink">
    <title>编组</title>
    <defs>
        <linearGradient x1="34.6149577%" y1="30.7691717%" x2="34.6149577%" y2="100%" id="linearGradient-1">
            <stop stop-color="#094526" offset="0%"></stop>
            <stop stop-color="#1C834F" offset="100%"></stop>
        </linearGradient>
        <linearGradient x1="75.5333478%" y1="0%" x2="50.4518844%" y2="100.909022%" id="linearGradient-2">
            <stop stop-color="#4BD184" offset="0%"></stop>
            <stop stop-color="#6BEFA2" offset="100%"></stop>
        </linearGradient>
        <linearGradient x1="18.4613046%" y1="84.0908518%" x2="100%" y2="40.1514476%" id="linearGradient-3">
            <stop stop-color="#117043" offset="0%"></stop>
            <stop stop-color="#28A55F" offset="100%"></stop>
        </linearGradient>
        <linearGradient x1="50.1298985%" y1="9.009025%" x2="70.1050415%" y2="28.08325%" id="linearGradient-4">
            <stop stop-color="#28A55F" offset="0%"></stop>
            <stop stop-color="#31C971" offset="100%"></stop>
        </linearGradient>
        <linearGradient x1="0%" y1="32.9861111%" x2="106.0215%" y2="41.2147872%" id="linearGradient-5">
            <stop stop-color="#56E391" offset="0%"></stop>
            <stop stop-color="#137545" offset="100%"></stop>
        </linearGradient>
    </defs>
    <g id="页面-1" stroke="none" stroke-width="1" fill="none" fill-rule="evenodd">
        <g id="001-Launch" transform="translate(-284.000000, -372.000000)">
            <g id="logo/big" transform="translate(234.000000, 372.000000)">
                <g id="LOGO">
                    <g id="编组" transform="translate(50.000000, 0.000000)">
                        <path d="M71,118.05408 C80.8419933,118.05408 88.6139972,110.311011 88.6139972,101.252309 L115,100 C115,124.571053 95.0140936,144 71,144 L71,118.05408 Z" id="路径" fill="#31C971"></path>
                        <path d="M118.05408,73 C118.05408,63.6625261 110.468469,56.0769086 101.131003,56.0769086 L100,29 C124.291913,29 144,48.708066 144,73 L118.05408,73 Z" id="路径" fill="url(#linearGradient-1)"></path>
                        <path d="M26.0048307,71.872305 C26.0048307,81.4364285 33.7739374,89.2056832 43.3381718,89.2056832 L44,116 C19.7081846,116 0,96.2919634 0,72 L26.0048307,71.872305 Z" id="路径" fill="url(#linearGradient-2)"></path>
                        <path d="M72,25.9665066 C62.941329,25.9665066 55.0769809,33.4578545 55.0769809,43.2998478 L28,44 C28,19.9859804 47.429031,0 72,0 L72,25.9665066 Z" id="路径" fill="url(#linearGradient-3)"></path>
                        <path d="M87.3511776,42.48648 C87.3511776,33.359796 80.0222309,25.945956 71.0000178,25.945956 L71.0000178,0 C94.1875895,0 113,19.030248 113,42.48648 C113,65.94264 94.1875895,84.97296 71.0000178,84.97296 C61.9778047,84.97296 54.648858,92.3868 54.648858,101.51352 C54.648858,110.64024 61.9778047,118.05408 71.0000178,118.05408 L71.0000178,144 C47.8124461,144 29,124.96968 29,101.51352 C29,78.05736 47.8124461,59.02704 71.0000178,59.02704 C80.0222309,59.02704 87.3511776,51.6132 87.3511776,42.48648 Z" id="路径" fill="url(#linearGradient-4)"></path>
                        <path d="M42.48648,56.6487591 C33.359796,56.6487591 25.945956,63.9777182 25.945956,72.9999466 L0,72.9999466 C0,49.8123356 19.030248,31 42.48648,31 C65.94264,31 84.97296,49.8123356 84.97296,72.9999466 C84.97296,82.022175 92.3868,89.3511342 101.51352,89.3511342 C110.64024,89.3511342 118.05408,82.022175 118.05408,72.9999466 L144,72.9999466 C144,96.1879135 124.96968,115 101.51352,115 C78.05736,115 59.02704,96.1879135 59.02704,72.9999466 C59.02704,63.9777182 51.6132,56.6487591 42.48648,56.6487591 Z" id="路径" fill="url(#linearGradient-5)"></path>
                    </g>
                </g>
            </g>
        </g>
    </g>
</svg>