<svg width="30" height="36" viewBox="0 0 30 36" fill="none" xmlns="http://www.w3.org/2000/svg">
<path d="M4.54026 28.465H28.8291C28.9033 28.465 28.9752 28.4542 29.0443 28.4378C29.0499 28.4378 29.0546 28.4392 29.0603 28.4392C29.579 28.4392 30 28.0182 30 27.4994V0.939734C30 0.421001 29.579 0 29.0603 0H28.8305H6.04336H4.54167C2.04057 0 0.00604211 2.03499 0.00604211 4.53563C0.00604211 4.56899 0.0126203 4.60094 0.0159094 4.63336C0.0126203 6.94322 -0.0160418 28.1681 0.0126201 30.9586C0.0107406 31.0131 0.00416219 31.0662 0.00416219 31.1212C0.00416219 33.5259 1.88692 35.4942 4.25505 35.6427C4.30251 35.6502 4.34902 35.6573 4.39836 35.6573H29.0603C29.579 35.6573 30 35.2363 30 34.7175V31.1804C30 30.6616 29.579 30.2406 29.0603 30.2406C28.5415 30.2406 28.1205 30.6616 28.1205 31.1804V33.7778H4.54026C3.11233 33.7778 1.94659 32.644 1.88927 31.2302C1.89068 31.2053 1.89538 31.1813 1.89491 31.1555C1.89397 31.1141 1.89256 31.0497 1.89162 30.9642C1.97384 29.573 3.12878 28.465 4.54026 28.465ZM5.18116 4.53563C5.18116 4.01689 5.60216 3.59589 6.12089 3.59589C6.63962 3.59589 7.06062 4.01689 7.06062 4.53563V23.6235C7.06062 24.1422 6.63962 24.5632 6.12089 24.5632C5.60216 24.5632 5.18116 24.1422 5.18116 23.6235V4.53563Z" fill="url(#paint0_linear)"/>
<defs>
<linearGradient id="paint0_linear" x1="0" y1="0" x2="32.2387" y2="2.15421" gradientUnits="userSpaceOnUse">
<stop stop-color="#FF8212"/>
<stop offset="1" stop-color="#ED4454"/>
</linearGradient>
</defs>
</svg>
