<svg width="34" height="44" viewBox="0 0 34 44" fill="none" xmlns="http://www.w3.org/2000/svg">
    <path d="M17.1539 0C12.6097 0.0167341 8.25637 1.80015 5.04306 4.96147C1.82976 8.12279 0.0170094 12.4057 1.17585e-07 16.8764C-0.000218719 18.7404 0.305021 20.5923 0.903971 22.3607C1.11902 22.9395 1.55092 23.4154 2.11116 23.691C2.67139 23.9666 3.31755 24.021 3.91721 23.8429C4.49921 23.6254 4.9748 23.1974 5.24682 22.6464C5.51884 22.0954 5.56675 21.463 5.38078 20.8785C4.87127 19.5032 4.64448 18.0421 4.71356 16.58C4.78474 14.2196 5.55204 11.9306 6.92201 9.99159C8.29197 8.05263 10.2055 6.54743 12.4295 5.65934C14.6535 4.77124 17.092 4.53857 19.448 4.98965C21.804 5.44074 23.9759 6.55612 25.699 8.19995C27.4222 9.84377 28.6223 11.9451 29.1532 14.248C29.6841 16.5509 29.5228 18.956 28.6891 21.1703C27.8553 23.3847 26.3851 25.3127 24.4574 26.7196C22.5297 28.1265 20.2277 28.9516 17.8319 29.0943C17.8319 29.0943 15.4321 29.2425 14.2268 29.3908C13.7848 29.4521 13.3465 29.537 12.9139 29.6449C12.8828 29.6678 12.8443 29.6789 12.8056 29.6762C12.7668 29.6735 12.7304 29.6572 12.7029 29.6301C12.6754 29.6031 12.6588 29.5672 12.656 29.5291C12.6532 29.4909 12.6646 29.4531 12.6879 29.4225L13.0645 27.4215L15.3245 17.3528C15.4543 16.7533 15.3368 16.1276 14.9977 15.6134C14.6587 15.0991 14.1259 14.7384 13.5165 14.6107C12.9072 14.4829 12.2712 14.5985 11.7485 14.9321C11.2258 15.2657 10.8591 15.7899 10.7293 16.3894C10.7293 16.3894 5.3485 40.9734 5.3485 41.1958C5.2744 41.4924 5.26262 41.8008 5.31388 42.102C5.36514 42.4033 5.47836 42.6911 5.6466 42.9478C5.81485 43.2045 6.03458 43.4247 6.29234 43.595C6.5501 43.7652 6.84047 43.8819 7.14568 43.9379C7.44786 44.0092 7.7616 44.0192 8.06785 43.9674C8.37409 43.9157 8.66645 43.8032 8.92714 43.6368C9.18783 43.4705 9.41142 43.2537 9.58432 42.9997C9.75722 42.7457 9.87582 42.4597 9.93292 42.1592C10.0083 41.8628 10.6862 38.6019 10.6862 38.6019C10.936 37.4016 11.5537 36.3054 12.4561 35.4611C13.3586 34.6168 14.5024 34.0649 15.7334 33.8799C16.25 33.8057 18.4346 33.6575 18.4346 33.6575C22.8002 33.2606 26.8454 31.2331 29.7383 27.9921C32.6312 24.751 34.152 20.5427 33.988 16.2324C33.824 11.9221 31.9876 7.83739 28.8565 4.81819C25.7254 1.79899 21.5375 0.0747545 17.1539 0Z" fill="#C4C4C4"/>
</svg>
