<svg width="80" height="80" viewBox="0 0 80 80" fill="none" xmlns="http://www.w3.org/2000/svg">
    <circle cx="40" cy="40" r="40" fill="white"/>
    <path d="M40.1539 18C35.6097 18.0167 31.2564 19.8002 28.0431 22.9615C24.8298 26.1228 23.017 30.4057 23 34.8764C22.9998 36.7404 23.305 38.5923 23.904 40.3607C24.119 40.9395 24.5509 41.4154 25.1112 41.691C25.6714 41.9666 26.3175 42.021 26.9172 41.8429C27.4992 41.6254 27.9748 41.1974 28.2468 40.6464C28.5188 40.0954 28.5668 39.463 28.3808 38.8785C27.8713 37.5032 27.6445 36.0421 27.7136 34.58C27.7847 32.2196 28.552 29.9306 29.922 27.9916C31.292 26.0526 33.2055 24.5474 35.4295 23.6593C37.6535 22.7712 40.092 22.5386 42.448 22.9897C44.804 23.4407 46.9759 24.5561 48.699 26.1999C50.4222 27.8438 51.6223 29.9451 52.1532 32.248C52.6841 34.5509 52.5228 36.956 51.6891 39.1703C50.8553 41.3847 49.3851 43.3127 47.4574 44.7196C45.5297 46.1265 43.2277 46.9516 40.8319 47.0943C40.8319 47.0943 38.4321 47.2425 37.2268 47.3908C36.7848 47.4521 36.3465 47.537 35.9139 47.6449C35.8828 47.6678 35.8443 47.6789 35.8056 47.6762C35.7668 47.6735 35.7304 47.6572 35.7029 47.6301C35.6754 47.6031 35.6588 47.5672 35.656 47.5291C35.6532 47.4909 35.6646 47.4531 35.6879 47.4225L36.0645 45.4215L38.3245 35.3528C38.4543 34.7533 38.3368 34.1276 37.9977 33.6134C37.6587 33.0991 37.1259 32.7384 36.5165 32.6107C35.9072 32.4829 35.2712 32.5985 34.7485 32.9321C34.2258 33.2657 33.8591 33.7899 33.7293 34.3894C33.7293 34.3894 28.3485 58.9734 28.3485 59.1958C28.2744 59.4924 28.2626 59.8008 28.3139 60.102C28.3651 60.4033 28.4784 60.6911 28.6466 60.9478C28.8148 61.2045 29.0346 61.4247 29.2923 61.595C29.5501 61.7652 29.8405 61.8819 30.1457 61.9379C30.4479 62.0092 30.7616 62.0192 31.0678 61.9674C31.3741 61.9157 31.6664 61.8032 31.9271 61.6368C32.1878 61.4705 32.4114 61.2537 32.5843 60.9997C32.7572 60.7457 32.8758 60.4597 32.9329 60.1592C33.0083 59.8628 33.6862 56.6019 33.6862 56.6019C33.936 55.4016 34.5537 54.3054 35.4561 53.4611C36.3586 52.6168 37.5024 52.0649 38.7334 51.8799C39.25 51.8057 41.4346 51.6575 41.4346 51.6575C45.8002 51.2606 49.8454 49.2331 52.7383 45.9921C55.6312 42.751 57.152 38.5427 56.988 34.2324C56.824 29.9221 54.9876 25.8374 51.8565 22.8182C48.7254 19.799 44.5375 18.0748 40.1539 18Z" fill="#C4C4C4"/>
</svg>
