<svg width="40" height="30" viewBox="0 0 40 30" fill="none" xmlns="http://www.w3.org/2000/svg">
<mask id="path-1-inside-1" fill="white">
<path fill-rule="evenodd" clip-rule="evenodd" d="M3 0C1.34315 0 0 1.34315 0 3V27C0 28.6569 1.34315 30 3 30H37C38.6569 30 40 28.6569 40 27V19.9776C39.8353 19.9924 39.6685 20 39.5 20C36.4624 20 34 17.5376 34 14.5C34 11.4624 36.4624 9 39.5 9C39.6685 9 39.8353 9.00758 40 9.02242V3C40 1.34315 38.6569 0 37 0H3Z"/>
</mask>
<path d="M40 19.9776H43V16.6951L39.7307 16.9897L40 19.9776ZM40 9.02242L39.7307 12.0103L43 12.3049V9.02242H40ZM3 3V3V-3C-0.313709 -3 -3 -0.313707 -3 3H3ZM3 27V3H-3V27H3ZM3 27H3H-3C-3 30.3137 -0.313709 33 3 33V27ZM37 27H3V33H37V27ZM37 27V33C40.3137 33 43 30.3137 43 27H37ZM37 19.9776V27H43V19.9776H37ZM39.7307 16.9897C39.6555 16.9965 39.5786 17 39.5 17V23C39.7585 23 40.0152 22.9884 40.2693 22.9655L39.7307 16.9897ZM39.5 17C38.1193 17 37 15.8807 37 14.5H31C31 19.1944 34.8056 23 39.5 23V17ZM37 14.5C37 13.1193 38.1193 12 39.5 12V6C34.8056 6 31 9.80558 31 14.5H37ZM39.5 12C39.5785 12 39.6555 12.0035 39.7307 12.0103L40.2693 6.03453C40.0152 6.01163 39.7586 6 39.5 6V12ZM37 3V9.02242H43V3H37ZM37 3H43C43 -0.313707 40.3137 -3 37 -3V3ZM3 3H37V-3H3V3Z" fill="black" mask="url(#path-1-inside-1)"/>
<path d="M20 3L20 27" stroke="black" stroke-width="3" stroke-miterlimit="16" stroke-dasharray="3 3"/>
<mask id="path-4-inside-2" fill="white">
<path d="M3 7C4.98912 7 6.89678 7.79018 8.3033 9.1967C9.70982 10.6032 10.5 12.5109 10.5 14.5C10.5 16.4891 9.70982 18.3968 8.3033 19.8033C6.89678 21.2098 4.98912 22 3 22L3 19C4.19347 19 5.33807 18.5259 6.18198 17.682C7.02589 16.8381 7.5 15.6935 7.5 14.5C7.5 13.3065 7.02589 12.1619 6.18198 11.318C5.33807 10.4741 4.19347 10 3 10L3 7Z"/>
</mask>
<path d="M3 7L3 4L-7.86805e-07 4L-6.55671e-07 7L3 7ZM3 22L1.19209e-06 22L1.80006e-06 25L3 25L3 22ZM3 19L3 16L-2.38497e-08 16L5.84122e-07 19L3 19ZM3 10L-5.24537e-07 10L-3.93402e-07 13L3 13L3 10ZM3 10C4.19347 10 5.33807 10.4741 6.18198 11.318L10.4246 7.07538C8.45549 5.10625 5.78477 4 3 4L3 10ZM6.18198 11.318C7.02589 12.1619 7.5 13.3065 7.5 14.5L13.5 14.5C13.5 11.7152 12.3938 9.04451 10.4246 7.07538L6.18198 11.318ZM7.5 14.5C7.5 15.6935 7.02589 16.8381 6.18198 17.682L10.4246 21.9246C12.3938 19.9555 13.5 17.2848 13.5 14.5L7.5 14.5ZM6.18198 17.682C5.33807 18.5259 4.19347 19 3 19L3 25C5.78477 25 8.45549 23.8938 10.4246 21.9246L6.18198 17.682ZM6 22L6 19L5.84122e-07 19L1.19209e-06 22L6 22ZM3 22C4.98912 22 6.89678 21.2098 8.3033 19.8033L4.06066 15.5607C3.77936 15.842 3.39782 16 3 16L3 22ZM8.3033 19.8033C9.70982 18.3968 10.5 16.4891 10.5 14.5L4.5 14.5C4.5 14.8978 4.34196 15.2794 4.06066 15.5607L8.3033 19.8033ZM10.5 14.5C10.5 12.5109 9.70982 10.6032 8.3033 9.1967L4.06066 13.4393C4.34196 13.7206 4.5 14.1022 4.5 14.5L10.5 14.5ZM8.3033 9.1967C6.89678 7.79018 4.98912 7 3 7L3 13C3.39783 13 3.77936 13.158 4.06066 13.4393L8.3033 9.1967ZM6 10L6 7L-6.55671e-07 7L-5.24537e-07 10L6 10Z" fill="black" mask="url(#path-4-inside-2)"/>
</svg>
