<svg width="64" height="64" viewBox="0 0 64 64" fill="none" xmlns="http://www.w3.org/2000/svg">
    <circle cx="32" cy="32" r="32" fill="white" fill-opacity="0.1"/>
    <path fill-rule="evenodd" clip-rule="evenodd" d="M27.755 19.093C28.7352 17.6141 30.3732 16.6674 32.1625 16.6489C35.1793 16.6788 37.6205 19.1385 37.6205 22.1622C37.6205 24.0365 36.6825 25.6941 35.2508 26.6906C33.8392 23.2853 31.137 20.5491 27.755 19.093ZM18.6952 18.3727C20.3486 12.4666 25.6653 8.04964 32.107 8.00042V8L32.1616 8.0001L32.2158 8V8.00041C38.7962 8.04998 44.3117 12.5925 45.8452 18.7105C51.6749 20.3924 55.9502 25.7488 55.9985 32.107H56C56 38.5683 51.668 44.0221 45.7512 45.7211C44.0763 51.6613 38.5479 55.9515 32.107 55.9985V56C25.6509 56 20.2008 51.675 18.4971 45.7657C12.4812 44.1192 8.04837 38.6325 8.00039 32.107H8C8 32.0892 8.00003 32.0714 8.0001 32.0536C8.00003 32.0357 8 32.0179 8 32H8.0004C8.04912 25.4244 12.5843 19.9116 18.6952 18.3727ZM16.6489 32.0538C16.6662 33.8998 17.5759 35.5347 18.9669 36.5474C20.3714 33.0642 23.1212 30.2666 26.5718 28.7991C25.5653 27.4603 23.9639 26.5935 22.1622 26.5935C19.1377 26.5935 16.6775 29.036 16.6489 32.0538ZM28.7313 37.48C27.4311 38.4891 26.5935 40.0667 26.5935 41.8378C26.5935 44.8443 29.007 47.2932 32 47.3503V47.3503C33.8585 47.3503 35.4586 46.4987 36.4711 45.2161C32.9691 43.7801 30.169 40.9812 28.7313 37.48ZM47.3503 32.2158H47.3503C47.3503 30.4068 46.4589 28.8036 45.0919 27.8222C43.6047 31.2274 40.817 33.9357 37.3573 35.3184C38.3585 36.7119 39.9932 37.6205 41.8378 37.6205C44.8437 37.6205 47.2922 35.2079 47.3503 32.2158Z" fill="white" fill-opacity="0.2"/>
</svg>
