<svg width="34" height="32" viewBox="0 0 34 32" fill="none" xmlns="http://www.w3.org/2000/svg">
<g opacity="0.2">
<path d="M33.5816 14.3501L28.4138 18.6385C28.5971 18.9197 28.6559 19.2775 28.5435 19.6208C28.4406 19.935 28.2146 20.1754 27.9357 20.3063L29.245 26.9658C29.815 26.8212 30.3332 26.4765 30.7245 25.8926C31.4551 24.8024 31.9459 23.5223 32.1285 22.2024C32.2492 21.3295 32.5282 20.477 32.9476 19.7004C33.5833 18.5229 33.9445 17.197 33.9975 15.8853C34.0219 15.2825 33.8654 14.7682 33.5816 14.3501Z" fill="#F9BEC9"/>
<path d="M26.4505 18.7248C26.7193 18.2664 27.2837 18.0393 27.8138 18.2097C27.8779 18.2303 27.939 18.2559 27.9966 18.2859L33.2228 13.9649C32.3143 13.1326 30.773 12.8853 29.3662 13.335L20.3406 16.2201C20.1215 16.2901 19.9489 16.4271 19.8336 16.5982L26.4505 18.7248Z" fill="#F9BEC9"/>
<path d="M25.4232 25.3286C26.2371 26.4386 27.5112 27.1226 28.6809 27.0891L27.3749 20.4698C27.2799 20.4637 27.1842 20.4459 27.0895 20.4155C26.5896 20.255 26.2749 19.7915 26.2856 19.2975L19.6524 17.1667C19.6556 17.3538 19.7145 17.5433 19.8373 17.7108L25.4232 25.3286Z" fill="#F9BEC9"/>
<path d="M23.6654 30.8068L17.9592 27.2539C17.7464 27.5138 17.4218 27.6799 17.058 27.6799C16.7251 27.6799 16.425 27.5408 16.2133 27.3181L10.2366 30.6118C10.5513 31.1052 11.0418 31.4878 11.7222 31.6767C12.9926 32.0295 14.3709 32.0973 15.6921 31.8617C16.5658 31.7059 17.4689 31.7059 18.3427 31.8617C19.6674 32.0979 21.0496 32.0292 22.3229 31.6739C22.908 31.5106 23.3525 31.204 23.6654 30.8068Z" fill="#F9BEC9"/>
<path d="M17.2753 25.3755C17.7991 25.4867 18.1919 25.9474 18.1919 26.4989C18.1919 26.5655 18.1861 26.6308 18.1751 26.6944L23.9447 30.2756C24.4641 29.1637 24.2257 27.6373 23.3585 26.4528L17.7955 18.8537C17.6604 18.6692 17.4754 18.5491 17.2753 18.4936V25.3755Z" fill="#F9BEC9"/>
<path d="M10.6044 26.4768C9.78814 27.5851 9.52386 28.9945 9.91752 30.0839L15.8814 26.8104C15.8579 26.7193 15.8454 26.6237 15.8454 26.5253C15.8454 26.0057 16.1939 25.5665 16.6724 25.4239L16.6725 18.5283C16.4934 18.5892 16.3293 18.7032 16.2062 18.8703L10.6044 26.4768Z" fill="#F9BEC9"/>
<path d="M5.58622 18.6385L0.418436 14.3502C0.134565 14.7682 -0.0218815 15.2826 0.00247798 15.8853C0.0554867 17.197 0.416732 18.5229 1.05245 19.7004C1.47176 20.477 1.75083 21.3295 1.87154 22.2024C2.05405 23.5223 2.54487 24.8024 3.27552 25.8926C3.66684 26.4765 4.18503 26.8213 4.75505 26.9658L6.06427 20.3063C5.78538 20.1754 5.55937 19.9351 5.45651 19.6209C5.3441 19.2775 5.40291 18.9197 5.58622 18.6385Z" fill="#F9BEC9"/>
<path d="M5.36072 27.0621C6.52866 27.0956 7.80087 26.4122 8.61355 25.3034L14.1912 17.6933C14.3137 17.526 14.3726 17.3367 14.3758 17.1497L7.75247 19.2784C7.76314 19.772 7.44888 20.2349 6.94978 20.3953C6.85524 20.4257 6.75962 20.4434 6.66478 20.4495L5.36072 27.0621Z" fill="#F9BEC9"/>
<path d="M6.19425 18.2278C6.72523 18.0572 7.29039 18.2845 7.55965 18.7434L14.1864 16.6146C14.071 16.4434 13.8981 16.3063 13.6787 16.2362L4.63961 13.3481C3.23067 12.898 1.68711 13.1456 0.777197 13.9787L6.01118 18.304C6.06895 18.274 6.13007 18.2484 6.19425 18.2278Z" fill="#F9BEC9"/>
<path d="M23.0713 6.29523L20.559 0.0919768C21.0474 -0.0467898 21.5886 -0.0355264 22.1586 0.173735C23.3991 0.629107 24.558 1.37983 25.4899 2.34376C26.1045 2.97956 26.8351 3.50642 27.6343 3.89011C28.8426 4.47026 29.9176 5.32913 30.7364 6.35572C31.175 6.90553 31.3452 7.5012 31.3076 8.08394L24.5217 7.26187C24.4825 6.95816 24.322 6.67055 24.0527 6.47636C23.7584 6.26415 23.3974 6.2091 23.0713 6.29523Z" fill="#F9BEC9"/>
<path d="M22.4995 6.78349C22.1718 7.22961 22.2157 7.83065 22.5734 8.22525L18.484 13.7928C18.3551 13.6315 18.2768 13.4268 18.2771 13.199L18.2922 3.8168C18.2945 2.35436 19.0086 0.98088 20.0896 0.383352L22.6292 6.63507C22.5825 6.68007 22.5391 6.72958 22.4995 6.78349Z" fill="#F9BEC9"/>
<path d="M31.28 8.70795C30.9507 9.81814 29.899 10.8048 28.5798 11.2271L19.5256 14.1254C19.3266 14.1891 19.1261 14.186 18.9451 14.1312L23.0446 8.55251C23.5166 8.71521 24.0596 8.56248 24.3685 8.1421C24.427 8.06248 24.4737 7.97792 24.5089 7.89048L31.28 8.70795Z" fill="#F9BEC9"/>
<path d="M13.7837 0.0919768L11.2715 6.29523C10.9453 6.2091 10.5843 6.26415 10.29 6.47636C10.0208 6.67055 9.86029 6.95816 9.82101 7.26187L3.03515 8.08394C2.99751 7.5012 3.16775 6.90553 3.60631 6.35572C4.42518 5.32914 5.50013 4.47027 6.70848 3.89011C7.50765 3.50642 8.23828 2.97956 8.8529 2.34376C9.78472 1.37983 10.9436 0.629107 12.1841 0.173735C12.7542 -0.0355264 13.2954 -0.0467898 13.7837 0.0919768Z" fill="#F9BEC9"/>
<path d="M5.80476 11.2161C4.48749 10.7942 3.43733 9.80859 3.10858 8.69953L9.86954 7.88289C9.90466 7.97024 9.95127 8.05471 10.0097 8.13425C10.3182 8.55421 10.8604 8.70679 11.3316 8.54425L15.4251 14.1173C15.2443 14.172 15.0441 14.1752 14.8454 14.1115L5.80476 11.2161Z" fill="#F9BEC9"/>
<path d="M11.786 8.23318C12.1443 7.83819 12.1883 7.23654 11.8601 6.78997C11.8204 6.736 11.7769 6.68644 11.7302 6.6414L14.2736 0.383352C15.3562 0.981485 16.0713 2.35636 16.0737 3.82028L16.0888 13.212C16.0891 13.4401 16.0106 13.645 15.8816 13.8064L11.786 8.23318Z" fill="#F9BEC9"/>
</g>
</svg>
