<svg width="80" height="80" viewBox="0 0 80 80" fill="none" xmlns="http://www.w3.org/2000/svg">
<path d="M40 80C18 80 0 62 0 40C0 18 18 0 40 0C62 0 80 18 80 40C80 62 62 80 40 80ZM40 5.71429C21.1429 5.71429 5.71429 21.1429 5.71429 40C5.71429 58.8571 21.1429 74.2857 40 74.2857C58.8571 74.2857 74.2857 58.8571 74.2857 40C74.2857 21.1429 58.8571 5.71429 40 5.71429Z" fill="#191919"/>
<path d="M40.7148 67.1445C29.7148 67.1445 20.7148 58.1445 20.7148 47.1445H26.4291C26.4291 55.0017 32.8577 61.4302 40.7148 61.4302C48.572 61.4302 55.0006 55.0017 55.0006 47.1445H60.7148C60.7148 58.1445 51.7148 67.1445 40.7148 67.1445Z" fill="#191919"/>
<path d="M17.5703 39.5714L14.5703 34.7143L22.9989 29.4286L15.4275 22L19.5703 18L31.9989 30.5714L17.5703 39.5714ZM61.7132 39.5714L47.2846 30.5714L59.7132 18L63.856 22L56.2846 29.4286L64.7132 34.7143L61.7132 39.5714Z" fill="#4ED09B"/>
</svg>
